<svg width="24" height="19" viewBox="0 0 24 19" fill="none" xmlns="http://www.w3.org/2000/svg"><path d="M23.6844 1.12695C23.0889 0.196668 21.8476 -0.075582 20.9172 0.519824C19.9832 1.11767 19.1141 1.72681 18.3068 2.33647C18.0386 1.12372 16.9555 0.21359 15.6633 0.21359H6.85083C6.63572 0.21359 6.46139 0.387965 6.46139 0.603027C6.46139 0.81809 6.63572 0.992465 6.85083 0.992465H15.6633C16.7153 0.992465 17.5732 1.83893 17.592 2.88654C17.038 3.32403 16.5161 3.76006 16.0237 4.19168V3.98131C16.0237 3.19822 15.3866 2.56114 14.6035 2.56114H12.6142C12.399 2.56114 12.2247 2.73551 12.2247 2.95057C12.2247 3.16564 12.399 3.34001 12.6142 3.34001H14.6035C14.9572 3.34001 15.2449 3.62773 15.2449 3.98136V4.89326C13.2128 6.7744 11.7586 8.5301 10.7847 9.87111L7.23759 6.41356C6.44644 5.64251 5.17566 5.65887 4.40475 6.44979C3.6337 7.24076 3.64997 8.51164 4.44094 9.28264L6.42431 11.2159C6.49636 11.2862 6.59667 11.3273 6.69745 11.3264C6.80091 11.3254 6.90277 11.283 6.97509 11.2088C7.12519 11.0548 7.12205 10.8083 6.96802 10.6582L4.98464 8.72492C4.50117 8.25364 4.49123 7.47692 4.96252 6.99345C5.43361 6.51007 6.21042 6.50009 6.69394 6.97132C6.69394 6.97132 10.5653 10.7449 10.566 10.7457C10.6471 10.8247 10.7614 10.8651 10.8741 10.8545C10.9878 10.8439 11.0911 10.7839 11.1566 10.6905C11.2315 10.5837 11.3074 10.4775 11.3839 10.3718C12.9095 8.26601 16.0766 4.54372 21.3372 1.17598C21.9058 0.811996 22.6645 0.978402 23.0285 1.54704C23.3925 2.11564 23.2261 2.8744 22.6575 3.23839C20.7178 4.48011 19.0853 5.76879 17.7293 6.9979C17.7263 7.00043 17.7231 7.00245 17.7201 7.00512C16.8048 7.835 16.0166 8.63698 15.3454 9.37906C14.8295 9.94957 14.3278 10.5455 13.8555 11.1572C12.8042 12.5177 12.298 13.4354 12.2299 13.5619C12.2283 13.5647 12.227 13.5672 12.2258 13.5694C12.225 13.5709 12.2246 13.5717 12.224 13.5728C12.2226 13.5754 12.2215 13.5774 12.2213 13.5779C12.0429 13.9194 11.7095 14.1595 11.329 14.2203C10.9493 14.281 10.5564 14.1563 10.2812 13.888L8.08669 11.7489C8.06742 11.7301 8.0467 11.7138 8.02495 11.6998C7.87247 11.6019 7.66725 11.6212 7.536 11.756C7.38591 11.91 7.38905 12.1565 7.54308 12.3066L9.73763 14.4457C10.1138 14.8125 10.6104 15.0145 11.1359 15.0145C11.4749 15.0145 11.8144 14.9259 12.1104 14.7605C12.4478 14.5722 12.7293 14.2879 12.9115 13.939C12.9255 13.9125 13.64 12.5835 15.2449 10.6826V14.8173C15.2449 15.171 14.9572 15.4587 14.6036 15.4587H3.76767C3.414 15.4587 3.12628 15.171 3.12628 14.8173V3.98126C3.12628 3.62764 3.414 3.33992 3.76767 3.33992H11.0564C11.2715 3.33992 11.4458 3.16554 11.4458 2.95048C11.4458 2.73542 11.2715 2.56104 11.0564 2.56104H3.76767C2.98453 2.56104 2.34741 3.19817 2.34741 3.98122V14.8171C2.34741 15.6002 2.98453 16.2373 3.76767 16.2373H14.6036C15.3867 16.2373 16.0238 15.6002 16.0238 14.8171V9.7955C16.489 9.28549 17.0109 8.74709 17.5923 8.19125V15.8769C17.5923 16.9406 16.727 17.8059 15.6634 17.8059H2.70783C1.64419 17.8059 0.778875 16.9406 0.778875 15.8769V2.92146C0.778875 1.85782 1.64419 0.992512 2.70783 0.992512H5.29303C5.50814 0.992512 5.68247 0.818137 5.68247 0.603074C5.68247 0.388012 5.50814 0.213637 5.29303 0.213637H2.70783C1.21477 0.213637 0 1.42836 0 2.92146V15.8769C0 17.37 1.21477 18.5847 2.70783 18.5847H15.6633C17.1564 18.5847 18.3711 17.37 18.3711 15.8769V7.46923C19.674 6.29839 21.2339 5.07429 23.0774 3.89422C24.0076 3.29857 24.28 2.05718 23.6844 1.12695Z" fill="#00CEF9"/></svg>