<svg width="288" height="193" viewBox="0 0 288 193" fill="none" xmlns="http://www.w3.org/2000/svg"><path d="M169 0H272C280.837 0 288 7.16344 288 16V177C288 185.837 280.837 193 272 193H169V0Z" fill="url(#paint0_linear)"/><path d="M153 0H272V193H153V0Z" fill="url(#paint1_linear)"/><path d="M138 0H241C249.837 0 257 7.16344 257 16V193H154C145.163 193 138 185.837 138 177V0Z" fill="url(#paint2_linear)"/><path d="M0 0H103C111.837 0 119 7.16344 119 16V193H16C7.16344 193 0 185.837 0 177V0Z" fill="url(#paint3_linear)"/><defs><linearGradient id="paint0_linear" x1="286" y1="97" x2="176.5" y2="97" gradientUnits="userSpaceOnUse"><stop stop-color="#00C4ED"/><stop offset="1" stop-color="#00C4ED" stop-opacity="0"/></linearGradient><linearGradient id="paint1_linear" x1="268.5" y1="97" x2="158.5" y2="81" gradientUnits="userSpaceOnUse"><stop stop-color="#00CEF9" stop-opacity="0"/><stop offset=".505" stop-color="#38DBFD"/><stop offset=".987" stop-color="#00CEF9" stop-opacity="0"/></linearGradient><linearGradient id="paint2_linear" x1="253.5" y1="97" x2="143.5" y2="81" gradientUnits="userSpaceOnUse"><stop stop-color="#00CEF9" stop-opacity="0"/><stop offset=".505" stop-color="#00CAF4"/><stop offset=".987" stop-color="#00CEF9" stop-opacity="0"/></linearGradient><linearGradient id="paint3_linear" x1="69.5" y1="97" x2="5.5" y2="81" gradientUnits="userSpaceOnUse"><stop stop-color="#00CEF9" stop-opacity="0"/><stop offset=".505" stop-color="#07D4FF"/><stop offset=".987" stop-color="#00CEF9" stop-opacity="0"/></linearGradient></defs></svg>