<svg width="12" height="12" viewBox="0 0 12 12" fill="none" xmlns="http://www.w3.org/2000/svg"><mask id="path-1-inside-1" fill="#fff"><path d="M2.78707 7.66176L2.15357 11.5453C2.10308 11.8538 2.43257 12.0853 2.70507 11.9338L6.00008 10.1128L9.29508 11.9343C9.56508 12.0843 9.89758 11.8573 9.84658 11.5458L9.21308 7.66226L11.8931 4.91526C12.1056 4.69776 11.9836 4.32875 11.6816 4.28275L7.99258 3.71925L6.33908 0.19725C6.21558 -0.0657501 5.78407 -0.0657501 5.66057 0.19725L4.00758 3.71875L0.318575 4.28225C0.0155746 4.32875 -0.105425 4.69726 0.107075 4.91476L2.78707 7.66176Z"/></mask><path d="M2.78707 7.66176L2.15357 11.5453C2.10308 11.8538 2.43257 12.0853 2.70507 11.9338L6.00008 10.1128L9.29508 11.9343C9.56508 12.0843 9.89758 11.8573 9.84658 11.5458L9.21308 7.66226L11.8931 4.91526C12.1056 4.69776 11.9836 4.32875 11.6816 4.28275L7.99258 3.71925L6.33908 0.19725C6.21558 -0.0657501 5.78407 -0.0657501 5.66057 0.19725L4.00758 3.71875L0.318575 4.28225C0.0155746 4.32875 -0.105425 4.69726 0.107075 4.91476L2.78707 7.66176Z" fill="#BB41C1"/><path d="M2.78707 7.66176L9.43603 8.74638L9.98341 5.39084L7.60919 2.95726L2.78707 7.66176ZM2.15357 11.5453L8.80193 12.6336L8.80253 12.6299L2.15357 11.5453ZM2.70507 11.9338L-0.553553 6.03746L-0.561013 6.04158L-0.568462 6.04572L2.70507 11.9338ZM6.00008 10.1128L9.25939 4.21684L6.00052 2.41531L2.74145 4.21646L6.00008 10.1128ZM9.29508 11.9343L12.5668 6.0452L12.5606 6.04176L12.5544 6.03834L9.29508 11.9343ZM9.84658 11.5458L3.19762 12.6304L3.19825 12.6343L9.84658 11.5458ZM9.21308 7.66226L4.39096 2.95776L2.01674 5.39134L2.56412 8.74688L9.21308 7.66226ZM11.8931 4.91526L7.07434 0.207299L7.07096 0.21076L11.8931 4.91526ZM11.6816 4.28275L10.6643 10.9424L10.6671 10.9428L11.6816 4.28275ZM7.99258 3.71925L1.89435 6.58223L3.42195 9.83607L6.97531 10.3789L7.99258 3.71925ZM6.33908 0.19725L12.4373 -2.66573L12.4371 -2.66625L6.33908 0.19725ZM5.66057 0.19725L-0.43741 -2.66625L-0.437832 -2.66535L5.66057 0.19725ZM4.00758 3.71875L5.02484 10.3784L8.57847 9.83553L10.106 6.58136L4.00758 3.71875ZM0.318575 4.28225L-0.69869 -2.37734L-0.703335 -2.37663L0.318575 4.28225ZM0.107075 4.91476L4.92919 0.210258L4.92581 0.2068L0.107075 4.91476ZM-3.86188 6.57714L-4.49538 10.4606L8.80253 12.6299L9.43603 8.74638L-3.86188 6.57714ZM-4.49478 10.457C-5.45388 16.316 0.775363 20.7146 5.97861 17.8218L-0.568462 6.04572C4.08979 3.45591 9.66003 7.3915 8.80193 12.6336L-4.49478 10.457ZM5.9637 17.8301L9.2587 16.0091L2.74145 4.21646L-0.553553 6.03746L5.9637 17.8301ZM2.74076 16.0087L6.03576 17.8302L12.5544 6.03834L9.25939 4.21684L2.74076 16.0087ZM6.02337 17.8233C11.1306 20.6606 17.4718 16.4239 16.4949 10.4573L3.19825 12.6343C2.32337 7.29059 7.9996 3.50788 12.5668 6.0452L6.02337 17.8233ZM16.4955 10.4611L15.862 6.57764L2.56412 8.74688L3.19762 12.6304L16.4955 10.4611ZM14.0352 12.3668L16.7152 9.61975L7.07096 0.21076L4.39096 2.95776L14.0352 12.3668ZM16.7118 9.62321C20.7383 5.50199 18.4512 -1.50066 12.696 -2.37727L10.6671 10.9428C5.51596 10.1582 3.47286 3.89352 7.07434 0.2073L16.7118 9.62321ZM12.6988 -2.37684L9.00984 -2.94034L6.97531 10.3789L10.6643 10.9424L12.6988 -2.37684ZM14.0908 0.856276L12.4373 -2.66573L0.240845 3.06023L1.89435 6.58223L14.0908 0.856276ZM12.4371 -2.66625C10.9951 -5.73705 8.04832 -6.73684 5.99983 -6.73684C3.95133 -6.73684 1.00458 -5.73705 -0.43741 -2.66625L11.7586 3.06075C10.4401 5.86855 7.77082 6.73684 5.99983 6.73684C4.22883 6.73684 1.55958 5.86855 0.24109 3.06075L12.4371 -2.66625ZM-0.437832 -2.66535L-2.09083 0.856152L10.106 6.58136L11.759 3.05985L-0.437832 -2.66535ZM2.99031 -2.94084L-0.698689 -2.37734L1.33584 10.9419L5.02484 10.3784L2.99031 -2.94084ZM-0.703335 -2.37663C-6.45877 -1.49337 -8.73317 5.50658 -4.71166 9.62271L4.92581 0.2068C8.52232 3.88793 6.48992 10.1509 1.34048 10.9411L-0.703335 -2.37663ZM-4.71504 9.61925L-2.03504 12.3663L7.60919 2.95726L4.92919 0.21026L-4.71504 9.61925Z" fill="#BB41C1" mask="url(#path-1-inside-1)"/></svg>