<svg width="18" height="19" viewBox="0 0 18 19" fill="none" xmlns="http://www.w3.org/2000/svg"><path fill-rule="evenodd" clip-rule="evenodd" d="M10.3746 9.00455L17.7479 1.48127C17.909 1.31568 17.9981 1.09343 17.9956 0.862844C17.9932 0.632261 17.8996 0.411902 17.735 0.24969C17.6537 0.169485 17.5573 0.106168 17.4513 0.0633067C17.3452 0.0204455 17.2317 -0.00104625 17.1173 3.91526e-05C17.0029 0.00112456 16.8898 0.024783 16.7846 0.0696477C16.6795 0.114513 16.5842 0.179642 16.5045 0.261374L9.14403 7.77304L1.47889 0.24969C1.39756 0.169556 1.30111 0.106266 1.19509 0.0634492C1.08908 0.0206323 0.97559 -0.000832301 0.861192 0.000252894C0.746794 0.00133809 0.633723 0.0249699 0.528541 0.0697902C0.423359 0.114611 0.328146 0.179712 0.248357 0.261374C0.0870888 0.426816 -0.00215477 0.649004 3.9527e-05 0.879587C0.00223382 1.11017 0.0956645 1.33052 0.260052 1.49288L7.91407 9.00455L0.260052 16.5162C0.0956645 16.6786 0.00223382 16.899 3.9527e-05 17.1296C-0.00215477 17.3602 0.0870888 17.5824 0.248357 17.7478C0.328065 17.8296 0.423241 17.8948 0.528433 17.9397C0.633625 17.9847 0.74675 18.0083 0.861192 18.0094C0.975634 18.0105 1.08913 17.989 1.19517 17.9461C1.3012 17.9032 1.39763 17.8397 1.47889 17.7594L9.14403 10.2361L16.5045 17.7478C16.5852 17.8309 16.6819 17.897 16.7888 17.9421C16.8957 17.9872 17.0107 18.0105 17.1268 18.0104C17.24 18.0109 17.3522 17.9889 17.4568 17.9458C17.5614 17.9027 17.6564 17.8394 17.7362 17.7594C17.9008 17.5972 17.9944 17.3769 17.9968 17.1463C17.9992 16.9158 17.9102 16.6935 17.7491 16.5279L10.3746 9.00455Z" fill="#000"/></svg>