<svg width="18" height="18" viewBox="0 0 18 18" fill="none" xmlns="http://www.w3.org/2000/svg"><g clip-path="url(#clip0)" fill="#505ADD"><path d="M16.125 2.99997H1.87499C0.8415 2.99997 0 3.84147 0 4.87499V13.125C0 14.1585 0.8415 15 1.87499 15H16.125C17.1585 15 18 14.1585 18 13.125V4.87499C18 3.84147 17.1585 2.99997 16.125 2.99997ZM17.25 13.125C17.25 13.7452 16.7453 14.25 16.125 14.25H1.87499C1.25473 14.25 0.749988 13.7452 0.749988 13.125V4.87499C0.749988 4.25473 1.25473 3.74999 1.87499 3.74999H16.125C16.7452 3.74999 17.25 4.25473 17.25 4.87499V13.125H17.25Z"/><path d="M17.625 5.24997H0.375012C0.168012 5.24997 0 5.41798 0 5.62498V7.87498C0 8.08198 0.168012 8.24999 0.375012 8.24999H17.625C17.832 8.24999 18 8.08198 18 7.87498V5.62498C18 5.41798 17.832 5.24997 17.625 5.24997ZM17.25 7.49997H0.749988V5.99996H17.25V7.49997H17.25Z"/><path d="M7.12501 10.5H2.62501C2.41801 10.5 2.25 10.668 2.25 10.875C2.25 11.082 2.41801 11.25 2.62501 11.25H7.12501C7.33201 11.25 7.50002 11.082 7.50002 10.875C7.50002 10.668 7.33201 10.5 7.12501 10.5Z"/><path d="M7.12501 12H2.62501C2.41801 12 2.25 12.168 2.25 12.375C2.25 12.582 2.41801 12.75 2.62501 12.75H7.12501C7.33201 12.75 7.50002 12.582 7.50002 12.375C7.49999 12.168 7.33201 12 7.12501 12Z"/><path d="M14.625 9.74998H13.875C13.2547 9.74998 12.75 10.2547 12.75 10.875V11.625C12.75 12.2452 13.2547 12.75 13.875 12.75H14.625C15.2453 12.75 15.75 12.2452 15.75 11.625V10.875C15.75 10.2548 15.2453 9.74998 14.625 9.74998ZM15 11.625C15 11.832 14.832 12 14.625 12H13.875C13.668 12 13.5 11.832 13.5 11.625V10.875C13.5 10.668 13.668 10.5 13.875 10.5H14.625C14.832 10.5 15 10.668 15 10.875V11.625Z"/></g><defs><clipPath id="clip0"><path fill="#fff" d="M0 0H18V18H0z"/></clipPath></defs></svg>