<svg width="17" height="17" viewBox="0 0 17 17" fill="none" xmlns="http://www.w3.org/2000/svg"><path d="M6.19366 9.37864C6.19366 9.16569 6.02092 8.99316 5.80779 8.99316H4.46128C4.24839 8.99316 4.07562 9.16569 4.07562 9.37864V10.725C4.07562 10.9382 4.24839 11.1108 4.46128 11.1108H5.80779C6.02092 11.1108 6.19366 10.9382 6.19366 10.725V9.37864Z" fill="#475469"/><path d="M9.55903 9.37864C9.55903 9.16569 9.38626 8.99316 9.17355 8.99316H7.82685C7.61396 8.99316 7.44119 9.16569 7.44119 9.37864V10.725C7.44119 10.9382 7.61396 11.1108 7.82685 11.1108H9.17355C9.38626 11.1108 9.55903 10.9382 9.55903 10.725V9.37864Z" fill="#475469"/><path d="M12.9244 9.37864C12.9244 9.16569 12.7516 8.99316 12.5387 8.99316H11.1922C10.9791 8.99316 10.8063 9.16569 10.8063 9.37864V10.725C10.8063 10.9382 10.9791 11.1108 11.1922 11.1108H12.5387C12.7516 11.1108 12.9244 10.9382 12.9244 10.725V9.37864Z" fill="#475469"/><path d="M6.19366 12.7443C6.19366 12.531 6.02092 12.3586 5.80779 12.3586H4.46128C4.24839 12.3586 4.07562 12.531 4.07562 12.7443V14.0904C4.07562 14.3035 4.24839 14.4761 4.46128 14.4761H5.80779C6.02092 14.4761 6.19366 14.3035 6.19366 14.0904V12.7443Z" fill="#475469"/><path d="M9.55903 12.7443C9.55903 12.531 9.38626 12.3586 9.17355 12.3586H7.82685C7.61396 12.3586 7.44119 12.531 7.44119 12.7443V14.0904C7.44119 14.3035 7.61396 14.4761 7.82685 14.4761H9.17355C9.38626 14.4761 9.55903 14.3035 9.55903 14.0904V12.7443Z" fill="#475469"/><path d="M12.9244 12.7443C12.9244 12.531 12.7516 12.3586 12.5389 12.3586H11.1922C10.9791 12.3586 10.8063 12.531 10.8063 12.7443V14.0904C10.8063 14.3035 10.9791 14.4761 11.1922 14.4761H12.5389C12.7516 14.4761 12.9244 14.3035 12.9244 14.0904V12.7443Z" fill="#475469"/><path d="M15.3318 1.89288V3.94931C15.3318 4.8788 14.5778 5.62782 13.6484 5.62782H12.5865C11.6571 5.62782 10.8931 4.8788 10.8931 3.94931V1.8855H6.1067V3.94931C6.1067 4.8788 5.3427 5.62782 4.41342 5.62782H3.35129C2.42198 5.62782 1.66798 4.8788 1.66798 3.94931V1.89288C0.855749 1.91736 0.188324 2.58946 0.188324 3.41554V15.4672C0.188324 16.3088 0.87048 17 1.7121 17H15.2877C16.128 17 16.8114 16.3074 16.8114 15.4672V3.41554C16.8114 2.58946 16.1441 1.91736 15.3318 1.89288ZM14.8386 14.7167C14.8386 15.0804 14.5437 15.3755 14.1798 15.3755H2.79092C2.42706 15.3755 2.13216 15.0804 2.13216 14.7167V8.4916C2.13216 8.12774 2.42703 7.83267 2.79092 7.83267H14.1798C14.5437 7.83267 14.8386 8.12774 14.8386 8.4916L14.8386 14.7167Z" fill="#475469"/><path d="M3.34787 4.52536H4.39827C4.71709 4.52536 4.9756 4.26724 4.9756 3.94841V0.577158C4.9756 0.258299 4.71709 0 4.39827 0H3.34787C3.02901 0 2.77054 0.258299 2.77054 0.577158V3.94841C2.77054 4.26724 3.02901 4.52536 3.34787 4.52536Z" fill="#475469"/><path d="M12.5731 4.52536H13.6235C13.9421 4.52536 14.2006 4.26724 14.2006 3.94841V0.577158C14.2007 0.258299 13.9422 0 13.6235 0H12.5731C12.2543 0 11.9958 0.258299 11.9958 0.577158V3.94841C11.9958 4.26724 12.2543 4.52536 12.5731 4.52536Z" fill="#475469"/></svg>