<svg width="38" height="38" viewBox="0 0 38 38" fill="none" xmlns="http://www.w3.org/2000/svg"><path d="M5.87175 19.5348C5.68962 19.3126 5.45085 19.1904 5.19918 19.1904C5.19829 19.1904 5.19747 19.1904 5.19658 19.1904C4.94453 19.1913 4.70637 19.3146 4.52728 19.536L0.310761 24.7077C0.0483233 25.0324 0.117421 25.3075 0.181917 25.4426C0.233425 25.5506 0.398413 25.8018 0.8153 25.8018H2.33879V30.5604C2.33879 30.8679 2.58794 31.1171 2.89543 31.1171C3.20292 31.1171 3.45207 30.8679 3.45207 30.5604V25.5866C3.45207 25.0914 3.0501 24.6886 2.5561 24.6886H1.76285L5.2 20.4728L8.63536 24.6886H7.84396C7.34878 24.6886 6.94584 25.0914 6.94584 25.5866V36.1453H3.45207V32.6596C3.45207 32.3522 3.20292 32.103 2.89543 32.103C2.58794 32.103 2.33879 32.3522 2.33879 32.6596V36.3458C2.33879 36.8491 2.74833 37.2586 3.2516 37.2586H7.14631C7.64959 37.2586 8.05912 36.8491 8.05912 36.3458V25.8018H9.58261C10.0003 25.8018 10.1653 25.5508 10.2168 25.4429C10.2812 25.308 10.3501 25.0331 10.0857 24.706L5.87175 19.5348Z" fill="#00CEF9"/><path d="M0.800396 6.37144H2.07726V12.1606C2.07726 12.6407 2.46787 13.0313 2.94792 13.0313H6.38313C6.86325 13.0313 7.25379 12.6407 7.25379 12.1606V6.37144H8.53065C8.93529 6.37144 9.09731 6.12444 9.14815 6.0183C9.21168 5.8856 9.28056 5.61611 9.02539 5.29883L5.30881 0.736602C5.13588 0.52582 4.90744 0.409668 4.66556 0.409668C4.42368 0.409668 4.19524 0.525746 4.02231 0.736602C4.02194 0.737047 4.02149 0.737566 4.02112 0.738086L0.307955 5.29593C0.0492284 5.60921 0.116471 5.8807 0.179557 6.01467C0.2301 6.12191 0.391748 6.37144 0.800396 6.37144ZM4.66556 1.70968L7.55638 5.25823H6.99647C6.52452 5.25823 6.14058 5.64313 6.14058 6.11627V11.9182H3.19054V6.1162C3.19054 5.64305 2.80556 5.25816 2.33249 5.25816H1.77474L4.66556 1.70968Z" fill="#00CEF9"/><path d="M37.6962 10.4292L33.9795 5.86698C33.8058 5.65516 33.5768 5.53908 33.3326 5.54005C33.0901 5.54101 32.8624 5.65783 32.6912 5.86913L28.9758 10.4273C28.719 10.7394 28.7869 11.0109 28.8503 11.1449C28.901 11.2522 29.063 11.5019 29.471 11.5019H30.7479V17.2911C30.7479 17.7711 31.1385 18.1618 31.6185 18.1618H35.0517C35.5318 18.1618 35.9223 17.7711 35.9223 17.2911V11.5019H37.1992C37.6072 11.5019 37.7693 11.2523 37.8199 11.145C37.8834 11.011 37.9513 10.7397 37.6962 10.4292ZM35.6672 10.3886C35.194 10.3886 34.8091 10.7735 34.8091 11.2467V17.0486H31.8612V11.2467C31.8612 10.7735 31.4762 10.3886 31.0031 10.3886H30.4435L33.3361 6.84006L36.2271 10.3886H35.6672Z" fill="#00CEF9"/><path d="M26.8017 26.4834C25.5336 25.4055 23.8463 25.3719 22.8363 26.4202C21.6486 27.6513 21.6486 29.6545 22.8363 30.8856C22.8389 30.8883 22.8416 30.8911 22.8444 30.8937L26.158 34.1801C26.1733 34.1954 26.1896 34.2096 26.2065 34.223L26.2403 34.2496C26.3897 34.3672 26.5442 34.489 26.7815 34.4971C26.7879 34.4974 26.7943 34.4974 26.8007 34.4974C26.8068 34.4974 26.813 34.4974 26.8192 34.4971C27.0588 34.4892 27.2207 34.3617 27.3635 34.2492L27.3968 34.223C27.4139 34.2096 27.4301 34.1953 27.4456 34.18L30.3597 31.2889L30.758 30.8948C30.7611 30.8918 30.7642 30.8887 30.7671 30.8856C31.9549 29.6545 31.9549 27.6513 30.7674 26.4204C29.7566 25.3712 28.0679 25.4055 26.8017 26.4834ZM29.9703 30.1083L26.8018 33.2506L24.0257 30.4986L23.634 30.1088C22.8611 29.3036 22.8624 27.9968 23.6379 27.1928C24.3299 26.4745 25.4453 26.7564 26.1455 27.3883C26.1966 27.434 26.2371 27.4722 26.2701 27.5033C26.3937 27.6202 26.5476 27.7658 26.8008 27.7658C27.0557 27.7658 27.2112 27.6189 27.3362 27.501C27.3687 27.4703 27.4084 27.4328 27.4603 27.3864C28.1584 26.7564 29.2739 26.4746 29.9662 27.1931C30.7412 27.9966 30.7425 29.303 29.9703 30.1083Z" fill="#00CEF9"/><path d="M26.8012 20.9408C26.0551 20.9408 25.3314 21.0374 24.6412 21.2182V18.5026C24.6412 17.9493 24.192 17.4991 23.6399 17.4991H23.6233V16.2685C23.6233 14.2326 24.1971 13.5397 24.8617 12.7373C25.5348 11.9247 26.2978 11.0034 26.2978 8.75291V6.09529V3.3302C26.2978 2.21558 25.3901 1.30877 24.2743 1.30877C23.9076 1.30877 23.5637 1.40719 23.2668 1.57826C22.9773 0.667004 22.0715 0 21.0014 0C20.2634 0 19.6037 0.317137 19.17 0.812695C18.7365 0.315281 18.0991 0 17.3891 0C16.6659 0 16.0181 0.327379 15.5847 0.841492C15.1509 0.327379 14.5025 0 13.7788 0C12.476 0 11.4161 1.05999 11.4161 2.36283V4.49743C10.7231 4.92011 10.2798 5.67128 10.2592 6.50379C10.2412 7.26802 10.2673 9.8639 10.2647 9.97322C10.2308 11.2565 10.9993 12.1869 11.6867 13.0663C12.4341 14.0223 13.14 14.9253 13.14 16.393V17.4992H13.1233C12.57 17.4992 12.1198 17.9494 12.1198 18.5027V24.5451C12.1198 24.8525 12.369 25.1017 12.6765 25.1017C12.984 25.1017 13.2331 24.8525 13.2331 24.5451V18.6125H23.5278V21.5944C20.4446 22.8806 18.2717 25.9264 18.2717 29.4705C18.2717 30.5548 18.4755 31.5923 18.8462 32.5473H13.2332V27.1205C13.2332 26.8131 12.984 26.5639 12.6765 26.5639C12.369 26.5639 12.1199 26.8131 12.1199 27.1205V32.6592C12.1199 33.2113 12.57 33.6606 13.1234 33.6606H19.3743C20.8404 36.249 23.6199 38 26.8012 38C31.5055 38 35.3326 34.1737 35.3326 29.4704C35.3326 24.7672 31.5055 20.9408 26.8012 20.9408ZM23.3641 3.3302C23.3641 2.82944 23.7724 2.42205 24.2743 2.42205C24.7763 2.42205 25.1845 2.82944 25.1845 3.3302V6.09529C25.1845 6.12668 25.183 6.15763 25.1799 6.18821C25.1332 6.64666 24.7449 7.00551 24.2744 7.00551C23.8039 7.00551 23.4156 6.64666 23.3689 6.18821C23.3658 6.15763 23.3643 6.12661 23.3643 6.09529V3.3302H23.3641ZM19.7518 5.5221V2.20266C19.7518 1.60201 20.3124 1.11328 21.0014 1.11328C21.6903 1.11328 22.2508 1.60194 22.2508 2.20266V6.09536C22.2508 6.69609 21.6903 7.18475 21.0014 7.18475C20.3124 7.18475 19.7518 6.69609 19.7518 6.09536V5.5221ZM16.1416 2.36283C16.1416 1.67386 16.7012 1.11328 17.3891 1.11328C18.078 1.11328 18.6385 1.67386 18.6385 2.36283V4.2278C18.2568 4.14311 17.8189 4.14215 17.3572 4.14348H16.1416V2.36283ZM12.5294 2.36283C12.5294 1.67386 13.0899 1.11328 13.7788 1.11328C14.4678 1.11328 15.0283 1.67386 15.0283 2.36283V4.14348H12.6577C12.6561 4.14348 12.6544 4.14348 12.6529 4.14348C12.6116 4.14386 12.5705 4.14541 12.5294 4.14786V2.36283H12.5294ZM22.5101 16.2686V17.4992H14.2533V16.393C14.2533 14.5418 13.3557 13.3936 12.5639 12.3806C11.9459 11.59 11.3543 10.8859 11.3776 10.0012C11.3808 9.86605 11.3549 7.26334 11.3722 6.53073C11.3851 6.00994 11.7031 5.54755 12.1822 5.35295C12.335 5.29091 12.4958 5.25862 12.6601 5.25684H17.3573C17.7817 5.25595 18.2183 5.25677 18.4776 5.33551C18.6385 5.38435 18.6385 5.41084 18.6385 5.52217V5.69258C18.595 6.09284 18.4486 6.43773 18.2041 6.70596C17.8965 7.04321 17.4551 7.22898 16.9612 7.22898H15.2984C14.301 7.22898 13.7048 8.01993 13.7048 8.78461V9.26933C13.7048 9.29174 13.7041 9.31208 13.7035 9.33056C13.6804 10.074 14.302 10.1324 14.5378 10.1546C15.7968 10.2689 16.841 11.1723 17.1364 12.4026C17.2083 12.7016 17.5203 12.8888 17.818 12.8113C18.1076 12.7358 18.2888 12.4338 18.219 12.1427C17.8261 10.5063 16.471 9.28966 14.8181 9.06619V8.78468C14.8181 8.60685 14.9461 8.34234 15.2984 8.34234H16.9612C17.7721 8.34234 18.5057 8.02757 19.0267 7.45616C19.0484 7.43241 19.0684 7.40881 19.0878 7.38536C19.5175 7.93784 20.2149 8.2981 21.0013 8.2981C21.7317 8.2981 22.3858 7.9875 22.8195 7.50055C22.8215 7.50262 22.8237 7.50426 22.8257 7.50634C23.1935 7.88381 23.7068 8.11886 24.2742 8.11886C24.599 8.11886 24.9061 8.04145 25.1784 7.90482C25.1804 7.90385 25.1824 7.90341 25.1844 7.90237V8.75299C25.1844 10.6024 24.6375 11.2627 24.0042 12.0273C23.3039 12.873 22.5101 13.8315 22.5101 16.2686ZM26.8012 36.8867C22.712 36.8867 19.3851 33.5598 19.3851 29.4704C19.3851 25.381 22.712 22.0541 26.8012 22.0541C30.8915 22.0541 34.2193 25.381 34.2193 29.4704C34.2193 33.5598 30.8915 36.8867 26.8012 36.8867Z" fill="#00CEF9"/></svg>