<svg width="38" height="38" viewBox="0 0 38 38" fill="none" xmlns="http://www.w3.org/2000/svg"><path d="M17.6052 19.1108C18.075 18.4522 18.4419 17.7155 18.683 16.9244C19.8949 16.6427 20.8017 15.5057 20.8121 14.1851C21.2633 13.8234 21.5529 13.2682 21.5529 12.6463C21.5529 12.0247 21.2635 11.4697 20.8126 11.108V3.51737C20.8126 2.84613 20.5784 2.19865 20.1532 1.69441C19.2389 0.610003 17.7066 0.436183 16.5891 1.2894L16.2298 1.56386C15.7113 0.614827 14.7351 0 13.6485 0H10.4306C10.1231 0 9.87397 0.249152 9.87397 0.556639C9.87397 0.864127 10.1231 1.11328 10.4306 1.11328H13.6485C14.4891 1.11328 15.2271 1.71927 15.443 2.58704C15.4882 2.76887 15.6221 2.91583 15.7989 2.97787C15.9757 3.03999 16.1721 3.00867 16.321 2.89505L17.2648 2.17423C17.902 1.68773 18.7778 1.79008 19.3021 2.41196C19.5583 2.71581 19.6994 3.10842 19.6994 3.51737V10.6783C19.5865 10.6715 19.5833 10.6758 19.0111 10.6744C19.0101 10.0886 19.1474 8.70651 17.7464 7.74464C16.9661 7.20893 15.9624 7.06917 15.0613 7.37028C12.7881 8.13072 10.6924 7.74234 8.65441 6.1836C6.73556 4.71578 3.8446 5.96198 3.8446 8.63281V10.6744C3.26547 10.6758 3.26918 10.6715 3.15637 10.6783V4.74962C3.15622 2.74453 4.69433 1.11328 6.58497 1.11328H8.20502C8.5125 1.11328 8.76165 0.864127 8.76165 0.556639C8.76165 0.249152 8.5125 0 8.20502 0H6.58497C4.08046 0 2.04294 2.13067 2.04294 4.74962V11.108C1.59206 11.4697 1.30261 12.0247 1.30261 12.6463C1.30261 13.2682 1.59229 13.8234 2.04346 14.1851C2.0537 15.5077 2.95078 16.644 4.17264 16.925C4.41378 17.7158 4.78064 18.4524 5.2503 19.1109C3.88327 19.5816 2.65688 20.4328 1.73694 21.5652C0.616905 22.9438 0 24.6833 0 26.4628V36.8987C0 37.5059 0.493999 37.9999 1.10133 37.9999H14.5986C14.9061 37.9999 15.1552 37.7508 15.1552 37.4433C15.1552 37.1358 14.9061 36.8866 14.5986 36.8866H1.11328V26.4628C1.11328 24.938 1.64164 23.448 2.60099 22.2671C3.41109 21.2699 4.49772 20.5272 5.70704 20.1314L7.38505 26.7093C7.56176 27.402 8.34677 27.7371 8.9691 27.3867L11.4278 26.0026L13.8864 27.3867C14.5089 27.7371 15.2939 27.4018 15.4706 26.7093L17.1485 20.1313C18.3578 20.5272 19.4445 21.2699 20.2546 22.267C21.2139 23.4479 21.7423 24.938 21.7423 26.4627V36.8866H16.8242C16.5168 36.8866 16.2676 37.1358 16.2676 37.4433C16.2676 37.7508 16.5168 37.9999 16.8242 37.9999H21.7543C22.3615 37.9999 22.8555 37.5059 22.8555 36.8987V26.4628C22.8555 24.6832 22.2386 22.9438 21.1186 21.5651C20.1985 20.4327 18.9722 19.5815 17.6052 19.1108ZM18.9587 15.6052C19.0201 15.0812 19.0098 14.6612 19.0109 14.6182C19.6542 14.6173 19.533 14.6201 19.6402 14.6167C19.5336 15.0261 19.2873 15.3779 18.9587 15.6052ZM19.581 11.7877C20.0545 11.7877 20.4396 12.1728 20.4396 12.6463C20.4396 13.1197 20.0545 13.5049 19.581 13.5049H19.0109V11.7876H19.581V11.7877ZM4.9578 8.63281C4.9578 6.89283 6.78128 6.15243 7.97791 7.06784C10.2989 8.84307 12.8009 9.29989 15.4142 8.42619C15.9941 8.23225 16.6147 8.31827 17.1162 8.66257C17.5921 8.98921 17.8977 9.51705 17.8977 10.1495V14.7173C17.8977 18.2847 14.9953 21.1872 11.4277 21.1872C7.8602 21.1872 4.95773 18.2848 4.95773 14.7173V8.63281H4.9578ZM11.4277 24.2506L10.2488 22.2087C10.6332 22.2689 11.0268 22.3005 11.4277 22.3005C11.8287 22.3005 12.2223 22.2689 12.6066 22.2087L11.4277 24.2506ZM3.84452 11.7877V13.505H3.27452C2.80108 13.505 2.41596 13.1198 2.41596 12.6463C2.41596 12.1729 2.80108 11.7878 3.27452 11.7878H3.84452V11.7877ZM3.21411 14.6167C3.31653 14.6197 3.12683 14.6171 3.84452 14.6182C3.84489 14.6338 3.83064 15.0423 3.89707 15.6078C3.56628 15.3805 3.32009 15.028 3.21411 14.6167ZM8.45476 26.3987L7.05433 20.9089C7.56918 21.2736 8.13146 21.5754 8.72974 21.804L10.6644 25.1548L8.45476 26.3987ZM14.4008 26.3988L12.1912 25.1548L14.1257 21.8039C14.724 21.5754 15.2863 21.2736 15.8011 20.9088L14.4008 26.3988Z" fill="#00CEF9"/><path d="M8.20526 13.0593C8.51275 13.0593 8.7619 12.8102 8.7619 12.5027V11.7275C8.7619 11.4201 8.51275 11.1709 8.20526 11.1709C7.89777 11.1709 7.64862 11.4201 7.64862 11.7275V12.5026C7.64862 12.8101 7.89777 13.0593 8.20526 13.0593Z" fill="#00CEF9"/><path d="M14.6501 13.0593C14.9576 13.0593 15.2068 12.8102 15.2068 12.5027V11.7275C15.2068 11.4201 14.9576 11.1709 14.6501 11.1709C14.3427 11.1709 14.0935 11.4201 14.0935 11.7275V12.5026C14.0935 12.8101 14.3427 13.0593 14.6501 13.0593Z" fill="#00CEF9"/><path d="M9.90863 16.5262C10.4057 16.8339 10.9167 16.9876 11.4281 16.9876C11.9393 16.9876 12.4505 16.8338 12.9476 16.5262C13.209 16.3644 13.2897 16.0213 13.1279 15.7599C12.9661 15.4984 12.623 15.4177 12.3617 15.5796C11.7248 15.9738 11.1315 15.9737 10.4947 15.5796C10.2334 15.4177 9.89022 15.4984 9.72843 15.7599C9.56648 16.0212 9.64716 16.3644 9.90863 16.5262Z" fill="#00CEF9"/><path d="M19.4901 29.2036C19.4901 28.8961 19.2409 28.647 18.9334 28.647H15.711C15.4035 28.647 15.1544 28.8961 15.1544 29.2036C15.1544 29.5111 15.4035 29.7603 15.711 29.7603H18.9334C19.2409 29.7603 19.4901 29.5111 19.4901 29.2036Z" fill="#00CEF9"/><path d="M36.5618 0H34.3024C33.9949 0 33.7458 0.249152 33.7458 0.556641C33.7458 0.864129 33.9949 1.11328 34.3024 1.11328H36.5618C36.7407 1.11328 36.8863 1.25882 36.8863 1.43777V11.0074C36.8863 11.1863 36.7407 11.3319 36.5618 11.3319H24.4933C24.3143 11.3319 24.1687 11.1863 24.1687 11.0074V9.40084C24.1687 9.20194 24.0626 9.01825 23.8904 8.91879L23.1759 8.50621L23.8904 8.09363C24.0626 7.99418 24.1687 7.81048 24.1687 7.61158V1.43784C24.1687 1.2589 24.3143 1.11336 24.4933 1.11336H32.0767C32.3842 1.11336 32.6334 0.864203 32.6334 0.556715C32.6334 0.249227 32.3842 7.42188e-05 32.0767 7.42188e-05H24.4933C23.7004 7.42188e-05 23.0554 0.645035 23.0554 1.43784V7.29036L21.7843 8.02431C21.6121 8.12376 21.506 8.30745 21.506 8.50636C21.506 8.70527 21.6121 8.88896 21.7843 8.98841L23.0554 9.72236V11.0075C23.0554 11.8003 23.7004 12.4452 24.4933 12.4452H36.5617C37.3546 12.4452 37.9995 11.8003 37.9995 11.0075V1.43784C37.9996 0.645035 37.3547 0 36.5618 0V0Z" fill="#00CEF9"/><path d="M30.7179 3.42431C30.3623 3.13003 29.8033 2.81445 29.0411 2.81445C27.7887 2.81445 26.8076 3.89404 26.8076 5.27213C26.8076 7.41141 29.1008 8.88414 30.4678 9.57155C30.6254 9.65082 30.8109 9.65052 30.9679 9.57155C32.3348 8.88414 34.628 7.41149 34.628 5.27213C34.628 3.89404 33.6469 2.81445 32.3946 2.81445C31.6325 2.81445 31.0735 3.13003 30.7179 3.42431ZM33.5148 5.27221C33.5148 6.34927 32.4995 7.49766 30.7178 8.44751C28.9363 7.49766 27.9209 6.3492 27.9209 5.27221C27.9209 4.62049 28.3135 3.92781 29.0411 3.92781C29.8214 3.92781 30.2333 4.50456 30.2557 4.53692C30.3591 4.69078 30.5324 4.78325 30.7179 4.78325C30.9051 4.78325 31.0798 4.68907 31.1828 4.53277C31.1868 4.52675 31.6033 3.92781 32.3947 3.92781C33.1222 3.92773 33.5148 4.62042 33.5148 5.27221Z" fill="#00CEF9"/><path d="M11.9849 28.5601C11.9849 28.2526 11.7357 28.0034 11.4282 28.0034C11.1207 28.0034 10.8716 28.2526 10.8716 28.5601V29.2554C10.8716 29.5629 11.1207 29.8121 11.4282 29.8121C11.7357 29.8121 11.9849 29.5629 11.9849 29.2554V28.5601Z" fill="#00CEF9"/><path d="M11.9849 31.7549C11.9849 31.4474 11.7357 31.1982 11.4282 31.1982C11.1207 31.1982 10.8716 31.4474 10.8716 31.7549V32.4502C10.8716 32.7577 11.1207 33.0069 11.4282 33.0069C11.7357 33.0069 11.9849 32.7577 11.9849 32.4502V31.7549Z" fill="#00CEF9"/><path d="M11.4282 34.3926C11.1207 34.3926 10.8716 34.6417 10.8716 34.9492V35.6446C10.8716 35.9521 11.1207 36.2013 11.4282 36.2013C11.7357 36.2013 11.9849 35.9521 11.9849 35.6446V34.9492C11.9849 34.6418 11.7356 34.3926 11.4282 34.3926Z" fill="#00CEF9"/></svg>