<svg width="127" height="28" viewBox="0 0 127 28" fill="none" xmlns="http://www.w3.org/2000/svg"><path d="M0 14C0 11.8667 0.374438 9.94667 1.12331 8.24C1.87219 6.50667 2.88852 5.02667 4.17231 3.8C5.4561 2.57333 6.95385 1.64 8.66557 0.999999C10.3773 0.333333 12.196 0 14.1217 0C15.6462 0 16.9968 0.146666 18.1736 0.439999C19.3772 0.733333 20.4069 1.06667 21.2627 1.44C22.2523 1.86667 23.1082 2.33333 23.8303 2.84L19.6179 10.24C19.19 9.92 18.7219 9.61333 18.2137 9.32C17.7591 9.10667 17.2108 8.90667 16.5689 8.72C15.9537 8.50667 15.245 8.4 14.4426 8.4C13.6135 8.4 12.8513 8.54667 12.1559 8.84C11.4605 9.13333 10.8453 9.53333 10.3104 10.04C9.80226 10.5467 9.40107 11.1467 9.10687 11.84C8.81267 12.5067 8.66557 13.2267 8.66557 14C8.66557 14.7733 8.81267 15.5067 9.10687 16.2C9.42782 16.8667 9.85575 17.4533 10.3907 17.96C10.9256 18.4667 11.5541 18.8667 12.2762 19.16C12.9984 19.4533 13.7873 19.6 14.6432 19.6C15.4991 19.6 16.2613 19.4933 16.93 19.28C17.5986 19.0667 18.1603 18.8267 18.6149 18.56C19.1498 18.2667 19.6179 17.92 20.0191 17.52L24.2315 24.92C23.5094 25.5067 22.6535 26.0267 21.6639 26.48C20.8081 26.8533 19.7784 27.2 18.5748 27.52C17.3713 27.84 15.9939 28 14.4426 28C12.3565 28 10.4308 27.6667 8.66557 27C6.90036 26.3067 5.37586 25.3467 4.09207 24.12C2.80829 22.8933 1.80533 21.4267 1.0832 19.72C0.361065 17.9867 0 16.08 0 14Z" fill="#fff"/><path d="M25.2448 0.639999H33.79V9.72H38.5641V0.639999H47.1494V27.32H38.5641V17.44H33.79V27.32H25.2448V0.639999Z" fill="#fff"/><path d="M49.9662 0.639999H65.7327V7.64H58.5114V10.6H65.6124V17.24H58.5114V20.32H66.0135V27.32H49.9662V0.639999Z" fill="#fff"/><path d="M76.2421 14C76.2421 14.7733 76.3893 15.5067 76.6835 16.2C76.9777 16.8667 77.3788 17.4533 77.887 17.96C78.3952 18.4667 78.9836 18.8667 79.6522 19.16C80.3476 19.4533 81.0831 19.6 81.8587 19.6C82.6343 19.6 83.3565 19.4533 84.0251 19.16C84.7205 18.8667 85.3223 18.4667 85.8304 17.96C86.3386 17.4533 86.7398 16.8667 87.034 16.2C87.3282 15.5067 87.4753 14.7733 87.4753 14C87.4753 13.2267 87.3282 12.5067 87.034 11.84C86.7398 11.1467 86.3386 10.5467 85.8304 10.04C85.3223 9.53333 84.7205 9.13333 84.0251 8.84C83.3565 8.54667 82.6343 8.4 81.8587 8.4C81.0831 8.4 80.3476 8.54667 79.6522 8.84C78.9836 9.13333 78.3952 9.53333 77.887 10.04C77.3788 10.5467 76.9777 11.1467 76.6835 11.84C76.3893 12.5067 76.2421 13.2267 76.2421 14ZM67.8173 14C67.8173 12.08 68.1784 10.2667 68.9005 8.56C69.6494 6.85333 70.6523 5.37333 71.9094 4.12C73.1932 2.84 74.6909 1.84 76.4026 1.12C78.1143 0.373333 79.933 0 81.8587 0C83.7844 0 85.6031 0.373333 87.3148 1.12C89.0265 1.84 90.5109 2.84 91.768 4.12C93.0518 5.37333 94.0547 6.85333 94.7768 8.56C95.5257 10.2667 95.9002 12.08 95.9002 14C95.9002 15.1467 95.7664 16.2533 95.499 17.32C95.2315 18.3867 94.8571 19.3867 94.3757 20.32H96.863L93.2523 27.32H86.1514C84.7339 27.7733 83.303 28 81.8587 28C79.933 28 78.1143 27.64 76.4026 26.92C74.6909 26.1733 73.1932 25.1733 71.9094 23.92C70.6523 22.64 69.6494 21.1467 68.9005 19.44C68.1784 17.7333 67.8173 15.92 67.8173 14Z" fill="#fff"/><path d="M105.939 14C105.939 14.7733 106.086 15.5067 106.38 16.2C106.675 16.8667 107.076 17.4533 107.584 17.96C108.092 18.4667 108.681 18.8667 109.349 19.16C110.045 19.4533 110.78 19.6 111.556 19.6C112.331 19.6 113.053 19.4533 113.722 19.16C114.417 18.8667 115.019 18.4667 115.527 17.96C116.036 17.4533 116.437 16.8667 116.731 16.2C117.025 15.5067 117.172 14.7733 117.172 14C117.172 13.2267 117.025 12.5067 116.731 11.84C116.437 11.1467 116.036 10.5467 115.527 10.04C115.019 9.53333 114.417 9.13333 113.722 8.84C113.053 8.54667 112.331 8.4 111.556 8.4C110.78 8.4 110.045 8.54667 109.349 8.84C108.681 9.13333 108.092 9.53333 107.584 10.04C107.076 10.5467 106.675 11.1467 106.38 11.84C106.086 12.5067 105.939 13.2267 105.939 14ZM97.5143 14C97.5143 12.08 97.8753 10.2667 98.5975 8.56C99.3464 6.85333 100.349 5.37333 101.606 4.12C102.89 2.84 104.388 1.84 106.1 1.12C107.811 0.373333 109.63 0 111.556 0C113.481 0 115.3 0.373333 117.012 1.12C118.724 1.84 120.208 2.84 121.465 4.12C122.749 5.37333 123.752 6.85333 124.474 8.56C125.223 10.2667 125.597 12.08 125.597 14C125.597 15.1467 125.463 16.2533 125.196 17.32C124.929 18.3867 124.554 19.3867 124.073 20.32H126.56L122.949 27.32H115.848C114.431 27.7733 113 28 111.556 28C109.63 28 107.811 27.64 106.1 26.92C104.388 26.1733 102.89 25.1733 101.606 23.92C100.349 22.64 99.3464 21.1467 98.5975 19.44C97.8753 17.7333 97.5143 15.92 97.5143 14Z" fill="#00CEF9"/></svg>