<svg width="19" height="19" viewBox="0 0 19 19" fill="none" xmlns="http://www.w3.org/2000/svg"><path d="M15.6299 14.2856L12.597 13.5272L12.3389 12.4949C13.1504 11.6913 13.7061 10.5877 13.8708 9.45565C14.3204 9.329 14.6688 8.94343 14.7289 8.45975L14.9268 6.8764C14.9688 6.54231 14.8659 6.20428 14.6442 5.95093C14.5144 5.80209 14.3505 5.68968 14.1692 5.62081L14.2421 4.13009L14.5382 3.83321C14.9839 3.35899 15.3536 2.54596 14.5809 1.36637C13.9872 0.459971 12.9786 0 11.5821 0C11.0311 0 9.76285 0 8.58169 0.79325C5.20915 0.863721 4.75 2.4304 4.75 3.95835C4.75 4.31382 4.83628 5.11419 4.89328 5.5971C4.68981 5.66122 4.50537 5.77997 4.36128 5.94385C4.13565 6.19957 4.03115 6.53919 4.07312 6.87722L4.27103 8.46057C4.33593 8.97672 4.72781 9.38285 5.2234 9.47944C5.38728 10.568 5.91453 11.6359 6.67928 12.426L6.40378 13.5288L3.3709 14.2872C1.3854 14.782 0 16.5569 0 18.6042C0 18.8227 0.177346 19 0.395846 19H18.6042C18.8227 19 19 18.8211 19 18.6026C19 16.5569 17.6146 14.782 15.6299 14.2856Z" fill="#fff"/></svg>