<svg width="24" height="24" viewBox="0 0 24 24" fill="none" xmlns="http://www.w3.org/2000/svg"><path d="M21.4393 4.59078H22.1808C22.4395 4.59078 22.6492 4.38102 22.6492 4.12234C22.6492 3.86367 22.4395 3.6539 22.1808 3.6539H20.4007C20.142 3.6539 19.9323 3.86367 19.9323 4.12234V5.90242C19.9323 6.1611 20.142 6.37087 20.4007 6.37087C20.6594 6.37087 20.8692 6.1611 20.8692 5.90242V5.387C22.2905 7.28986 23.0631 9.59867 23.0631 12C23.0631 18.1002 18.1002 23.0631 12 23.0631C5.89975 23.0631 0.936885 18.1002 0.936885 12C0.936885 5.89975 5.89975 0.936885 12 0.936885C12.4512 0.936885 12.9052 0.964289 13.3497 1.0183C13.6061 1.04931 13.84 0.866666 13.8712 0.609819C13.9025 0.353018 13.7196 0.119453 13.4628 0.0882546C12.9809 0.0296993 12.4888 0 12 0C8.79468 0 5.78119 1.24821 3.51472 3.51472C1.24821 5.78119 0 8.79468 0 12C0 15.2053 1.24821 18.2188 3.51472 20.4853C5.78119 22.7518 8.79468 24 12 24C15.2053 24 18.2188 22.7518 20.4853 20.4853C22.7518 18.2188 24 15.2053 24 12C24 9.29517 23.0964 6.69849 21.4393 4.59078Z" fill="#00CEF9"/><path d="M5.08127 7.07427C4.86265 6.93589 4.57329 7.001 4.43487 7.21949C3.36546 8.9085 2.89205 10.9398 3.10187 12.9391C3.31478 14.9681 4.228 16.8815 5.67334 18.3269C7.41758 20.0712 9.70878 20.9433 12 20.9433C14.2913 20.9433 16.5824 20.0712 18.3267 18.3269C21.8153 14.8384 21.8153 9.16207 18.3267 5.67358C16.8836 4.23049 14.9733 3.31759 12.9477 3.10305C10.952 2.89154 8.92297 3.36125 7.23466 4.42541C7.01575 4.56337 6.95022 4.85263 7.08813 5.07149C7.22608 5.29039 7.51535 5.35593 7.7342 5.21802C10.9167 3.21215 15 3.67183 17.6642 6.33605C20.7874 9.4593 20.7874 14.5412 17.6642 17.6644C14.541 20.7877 9.45906 20.7877 6.33586 17.6644C3.70845 15.037 3.24189 10.8551 5.22649 7.72072C5.36482 7.5021 5.29985 7.21269 5.08127 7.07427Z" fill="#00CEF9"/><path d="M18.0898 12.4759H18.6674C18.9261 12.4759 19.1359 12.2662 19.1359 12.0075C19.1359 11.7488 18.9261 11.5391 18.6674 11.5391H18.0898C17.8311 11.5391 17.6213 11.7488 17.6213 12.0075C17.6213 12.2662 17.831 12.4759 18.0898 12.4759Z" fill="#00CEF9"/><path d="M4.86392 11.9924C4.86392 12.251 5.07369 12.4608 5.33236 12.4608H5.91005C6.16872 12.4608 6.37849 12.251 6.37849 11.9924C6.37849 11.7337 6.16872 11.5239 5.91005 11.5239H5.33236C5.07369 11.5239 4.86392 11.7336 4.86392 11.9924Z" fill="#00CEF9"/><path d="M12.476 5.91014V5.33246C12.476 5.07378 12.2662 4.86401 12.0075 4.86401C11.7489 4.86401 11.5391 5.07378 11.5391 5.33246V5.91014C11.5391 6.16881 11.7489 6.37858 12.0075 6.37858C12.2662 6.37858 12.476 6.16881 12.476 5.91014Z" fill="#00CEF9"/><path d="M11.5239 18.0898V18.6675C11.5239 18.9261 11.7337 19.1359 11.9924 19.1359C12.251 19.1359 12.4608 18.9261 12.4608 18.6675V18.0898C12.4608 17.8311 12.251 17.6213 11.9924 17.6213C11.7337 17.6213 11.5239 17.8311 11.5239 18.0898Z" fill="#00CEF9"/><path d="M9.65207 8.98924C9.4691 8.80636 9.17257 8.80636 8.98955 8.98924C8.80662 9.17217 8.80662 9.46879 8.98955 9.65176L10.5772 11.2394C10.4555 11.4661 10.3863 11.725 10.3863 11.9998C10.3863 12.8896 11.1102 13.6136 12.0001 13.6136C12.8899 13.6136 13.6139 12.8896 13.6139 11.9998C13.6139 11.725 13.5446 11.4661 13.423 11.2394L16.6264 8.03601C16.8093 7.85308 16.8093 7.55646 16.6264 7.37349C16.4434 7.19061 16.1469 7.19061 15.9639 7.37349L12.7605 10.5768C12.5338 10.4552 12.2749 10.386 12.0001 10.386C11.7253 10.386 11.4664 10.4552 11.2397 10.5768L9.65207 8.98924ZM12.677 11.9998C12.677 12.373 12.3733 12.6767 12.0001 12.6767C11.6268 12.6767 11.3232 12.373 11.3232 11.9998C11.3232 11.6265 11.6268 11.3229 12.0001 11.3229C12.3733 11.3229 12.677 11.6265 12.677 11.9998Z" fill="#00CEF9"/><path d="M6.33549 6.33552C6.42308 6.24839 6.47316 6.12753 6.47316 6.00433C6.47316 5.88113 6.42308 5.76074 6.33549 5.67314C6.24836 5.58606 6.12792 5.53589 6.0043 5.53589C5.8811 5.53589 5.76024 5.58601 5.67311 5.67314C5.58603 5.76027 5.53586 5.88113 5.53586 6.00433C5.53586 6.128 5.58598 6.24839 5.67311 6.33552C5.76024 6.4226 5.8811 6.47277 6.0043 6.47277C6.12792 6.47277 6.24836 6.4226 6.33549 6.33552Z" fill="#00CEF9"/><path d="M15.245 1.39953C15.3687 1.39953 15.4896 1.34983 15.5766 1.26228C15.6638 1.17515 15.714 1.05471 15.714 0.931089C15.714 0.807889 15.6638 0.68703 15.5766 0.5999C15.4896 0.512817 15.3687 0.462646 15.245 0.462646C15.1218 0.462646 15.0009 0.51277 14.9139 0.5999C14.8267 0.68703 14.7766 0.807889 14.7766 0.931089C14.7766 1.05476 14.8267 1.17515 14.9139 1.26228C15.0009 1.34983 15.1218 1.39953 15.245 1.39953Z" fill="#00CEF9"/></svg>