<svg width="38" height="38" viewBox="0 0 38 38" fill="none" xmlns="http://www.w3.org/2000/svg"><path d="M25.3793 24.37C24.4789 24.37 23.7465 23.7361 23.7465 22.9568C23.7465 22.1775 24.4789 21.5436 25.3793 21.5436C26.2796 21.5436 27.0121 22.1775 27.0121 22.9568C27.0121 23.3667 27.3444 23.699 27.7543 23.699C28.1641 23.699 28.4965 23.3667 28.4965 22.9568C28.4965 21.5968 27.4831 20.4532 26.1215 20.1428V19.7568C26.1215 19.347 25.7891 19.0146 25.3793 19.0146C24.9694 19.0146 24.6371 19.347 24.6371 19.7568V20.1428C23.2755 20.4532 22.2621 21.5968 22.2621 22.9568C22.2621 24.5545 23.6604 25.8544 25.3793 25.8544C26.2796 25.8544 27.0121 26.4884 27.0121 27.2677C27.0121 28.047 26.2796 28.681 25.3793 28.681C24.4789 28.681 23.7465 28.047 23.7465 27.2677C23.7465 26.8578 23.4141 26.5255 23.0043 26.5255C22.5944 26.5255 22.2621 26.8578 22.2621 27.2677C22.2621 28.6277 23.2755 29.7713 24.6371 30.0817V30.4023C24.6371 30.8121 24.9694 31.1445 25.3793 31.1445C25.7891 31.1445 26.1215 30.8121 26.1215 30.4023V30.0817C27.4831 29.7713 28.4965 28.6277 28.4965 27.2677C28.4965 25.6699 27.0981 24.37 25.3793 24.37Z" fill="#00CEF9"/><path d="M33.5087 19.955C32.5392 18.4443 31.1733 17.2354 29.5587 16.4592C29.1891 16.2816 28.7457 16.4371 28.5682 16.8066C28.3905 17.176 28.546 17.6194 28.9155 17.797C31.7292 19.1496 33.5472 22.0396 33.5472 25.1596C33.5472 26.4946 33.2181 27.8186 32.5956 28.9886C32.4031 29.3504 32.5403 29.7999 32.9022 29.9924C33.0133 30.0515 33.1326 30.0796 33.2502 30.0796C33.5157 30.0796 33.7726 29.9366 33.906 29.6858C34.6424 28.3021 35.0316 26.7369 35.0316 25.1596C35.0316 23.3071 34.505 21.5074 33.5087 19.955Z" fill="#00CEF9"/><path d="M26.546 15.5118L26.496 15.5117C26.0862 15.5117 25.7538 15.844 25.7538 16.2539C25.7538 16.6638 26.0862 16.9961 26.496 16.9961L26.539 16.9962C26.5402 16.9962 26.5413 16.9962 26.5426 16.9962C26.9509 16.9962 27.2828 16.6662 27.2847 16.2575C27.2865 15.8476 26.9558 15.5137 26.546 15.5118Z" fill="#00CEF9"/><path d="M21.8505 32.5232C19.0369 31.1706 17.2189 28.2806 17.2189 25.1607C17.2189 23.8256 17.548 22.5016 18.1705 21.3316C18.363 20.9698 18.2258 20.5204 17.8639 20.3278C17.5021 20.1353 17.0525 20.2725 16.8601 20.6344C16.1238 22.0182 15.7346 23.5834 15.7346 25.1607C15.7346 27.0132 16.2611 28.8128 17.2574 30.3652C18.2269 31.876 19.5928 33.0848 21.2074 33.8611C21.3111 33.911 21.4207 33.9345 21.5285 33.9345C21.8049 33.9345 22.0701 33.7794 22.198 33.5137C22.3754 33.1443 22.22 32.7008 21.8505 32.5232Z" fill="#00CEF9"/><path d="M24.2696 33.3244L24.2266 33.3242C23.8148 33.3235 23.4829 33.6529 23.4811 34.0629C23.4792 34.4728 23.81 34.8067 24.2199 34.8086L24.2696 34.8088C24.6794 34.8088 25.0118 34.4764 25.0118 34.0666C25.0118 33.6567 24.6794 33.3244 24.2696 33.3244Z" fill="#00CEF9"/><path d="M28.753 13.0007C28.6626 12.7855 28.552 12.5827 28.4232 12.3945H30.3554C32.2379 12.3945 33.7695 10.8629 33.7695 8.98045C33.7695 7.09797 32.2379 5.5664 30.3554 5.5664H24.412C24.7898 5.01703 25.0117 4.3524 25.0117 3.63671C25.0117 1.75423 23.4801 0.222656 21.5976 0.222656H3.41406C1.53158 0.222656 0 1.75423 0 3.63671C0 5.51919 1.53158 7.05077 3.41406 7.05077H9.35748C8.97964 7.60013 8.7578 8.26476 8.7578 8.98045C8.7578 9.69614 8.97956 10.3608 9.35748 10.9101H7.42186C5.53938 10.9101 4.0078 12.4417 4.0078 14.3242C4.0078 15.4053 4.51353 16.3701 5.30032 16.9961C4.51353 17.622 4.0078 18.5868 4.0078 19.6679C4.0078 20.7491 4.51353 21.7138 5.30032 22.3398C4.51353 22.9658 4.0078 23.9305 4.0078 25.0117C4.0078 26.0928 4.51353 27.0576 5.30032 27.6835C4.51353 28.3095 4.0078 29.2743 4.0078 30.3554C4.0078 32.2379 5.53938 33.7695 7.42186 33.7695H16.1685C18.4727 36.234 21.7507 37.7773 25.3828 37.7773C32.3399 37.7773 38 32.1173 38 25.1602C38 19.3699 34.079 14.4788 28.753 13.0007ZM30.3554 7.05077C31.4195 7.05077 32.2851 7.91645 32.2851 8.98045C32.2851 10.0444 31.4195 10.9101 30.3554 10.9101H25.6054H12.1719C11.1078 10.9101 10.2422 10.0444 10.2422 8.98045C10.2422 7.91645 11.1078 7.05077 12.1719 7.05077H30.3554ZM3.41406 5.5664C2.34998 5.5664 1.48437 4.70071 1.48437 3.63671C1.48437 2.57271 2.34998 1.70703 3.41406 1.70703H21.5976C22.6617 1.70703 23.5273 2.57271 23.5273 3.63671C23.5273 4.70071 22.6617 5.5664 21.5976 5.5664H3.41406ZM7.42186 12.3945H25.6054C25.9044 12.3945 26.1906 12.464 26.4474 12.5884C26.0964 12.5589 25.7415 12.543 25.3828 12.543C21.8986 12.543 18.7399 13.9627 16.4544 16.2539H7.42186C6.35786 16.2539 5.49218 15.3882 5.49218 14.3242C5.49218 13.2602 6.35786 12.3945 7.42186 12.3945ZM7.42186 17.7382H15.1862C14.3437 18.8926 13.6923 20.1945 13.2786 21.5976H7.42186C6.35779 21.5976 5.49218 20.732 5.49218 19.6679C5.49218 18.6039 6.35779 17.7382 7.42186 17.7382ZM7.42186 23.082H12.9378C12.8252 23.7583 12.7657 24.4524 12.7657 25.1602C12.7657 25.7648 12.8094 26.3593 12.892 26.9414H7.42186C6.35779 26.9414 5.49218 26.0757 5.49218 25.0117C5.49218 23.9476 6.35779 23.082 7.42186 23.082ZM7.42186 32.2851C6.35779 32.2851 5.49218 31.4195 5.49218 30.3554C5.49218 29.2913 6.35779 28.4257 7.42186 28.4257H13.195C13.5695 29.822 14.1779 31.1233 14.9758 32.2851H7.42186ZM25.3828 36.293C19.2442 36.293 14.25 31.2988 14.25 25.1602C14.25 19.0216 19.2442 14.0274 25.3828 14.0274C31.5215 14.0274 36.5156 19.0216 36.5156 25.1602C36.5156 31.2988 31.5215 36.293 25.3828 36.293Z" fill="#00CEF9"/></svg>