<svg width="42" height="42" viewBox="0 0 42 42" fill="none" xmlns="http://www.w3.org/2000/svg"><path d="M6.73071 7.55127C6.51497 7.55127 6.30333 7.4635 6.15075 7.31092C5.99817 7.15834 5.9104 6.9467 5.9104 6.73096C5.9104 6.51521 5.99817 6.30357 6.15075 6.151C6.30333 5.99842 6.51497 5.91064 6.73071 5.91064C6.94646 5.91064 7.1581 5.99842 7.31067 6.151C7.46325 6.30357 7.55103 6.51521 7.55103 6.73096C7.55103 6.9467 7.46325 7.15834 7.31067 7.31092C7.1581 7.4635 6.94646 7.55127 6.73071 7.55127Z" fill="#F6F5F3"/><path d="M21 42C15.3907 42 10.1172 39.8157 6.15079 35.8492C2.18433 31.8828 0 26.6093 0 21C0 16.7246 1.27706 12.6105 3.69321 9.10227C3.95021 8.72919 4.46102 8.6351 4.8341 8.89202C5.20718 9.14903 5.30135 9.65975 5.04435 10.0329C2.81761 13.2661 1.64062 17.0585 1.64062 21C1.64062 31.6748 10.3252 40.3594 21 40.3594C31.6748 40.3594 40.3594 31.6748 40.3594 21C40.3594 10.3252 31.6748 1.64062 21 1.64062C17.0585 1.64062 13.2661 2.81761 10.0328 5.04443C9.65984 5.30135 9.14903 5.20726 8.89194 4.8341C8.63502 4.46102 8.72911 3.95021 9.10227 3.69321C12.6105 1.27706 16.7246 0 21 0C26.6093 0 31.8828 2.18433 35.8492 6.15079C39.8157 10.1172 42 15.3907 42 21C42 26.6093 39.8157 31.8828 35.8492 35.8492C31.8828 39.8157 26.6093 42 21 42Z" fill="#F6F5F3"/><path d="M21 38.0625C11.5918 38.0625 3.9375 30.4082 3.9375 21C3.9375 11.5918 11.5918 3.9375 21 3.9375C30.4082 3.9375 38.0625 11.5918 38.0625 21C38.0625 30.4082 30.4082 38.0625 21 38.0625ZM21 5.57812C12.4963 5.57812 5.57812 12.4963 5.57812 21C5.57812 29.5037 12.4963 36.4219 21 36.4219C29.5037 36.4219 36.4219 29.5037 36.4219 21C36.4219 12.4963 29.5037 5.57812 21 5.57812Z" fill="#F6F5F3"/><path d="M31.1719 24.7734H10.8281C10.3751 24.7734 10.0078 24.4062 10.0078 23.9531V18.0469C10.0078 17.5938 10.3751 17.2266 10.8281 17.2266H31.1719C31.6249 17.2266 31.9922 17.5938 31.9922 18.0469V23.9531C31.9922 24.4062 31.6249 24.7734 31.1719 24.7734ZM11.6484 23.1328H30.3516V18.8672H11.6484V23.1328Z" fill="#F6F5F3"/></svg>