<svg width="38" height="32" viewBox="0 0 38 32" fill="none" xmlns="http://www.w3.org/2000/svg"><path d="M25.6313 31.4006H26.7446V28.1342H36.887V31.4006H38.0003V22.0112H25.6313V31.4006ZM36.887 23.1245V27.021H26.7446V23.1245H36.887Z" fill="#fff"/><path d="M35.7734 7.41602C34.5457 7.41602 33.5469 8.41485 33.5469 9.64258V11.4353H34.6602V9.64265C34.6602 9.02879 35.1596 8.52937 35.7734 8.52937H36.8867V20.8983H38V7.41602H35.7734Z" fill="#fff"/><path d="M25.6313 20.8979H26.7446C26.7446 20.284 27.244 19.7846 27.8579 19.7846H35.7737V18.6713H34.6604V12.5483H33.5471V18.6713H27.8579C26.6302 18.6712 25.6313 19.6701 25.6313 20.8979Z" fill="#fff"/><path d="M1.11328 8.52922H2.22656C2.84043 8.52922 3.33984 9.02864 3.33984 9.6425V11.4353H4.45312V9.64258C4.45312 8.41485 3.45429 7.41602 2.22656 7.41602H0V20.8982H1.11328V8.52922Z" fill="#fff"/><path d="M10.1424 18.6713H4.45312V12.5483H3.33984V18.6713H2.22656V19.7846H10.1424C10.7562 19.7846 11.2556 20.284 11.2556 20.8979H12.3689C12.3689 19.6701 11.3701 18.6713 10.1424 18.6713Z" fill="#fff"/><path d="M0 31.4006H1.11328V28.1342H11.2556V31.4006H12.3689V22.0112H0V31.4006ZM11.2556 23.1245V27.021H1.11328V23.1245H11.2556Z" fill="#fff"/><path d="M21.2265 29.174V17.0015C21.2265 16.3876 21.7259 15.8882 22.3398 15.8882H31.3203V11.4351H19.5566V12.5483H30.207V14.7749H7.79285V12.5483H18.4433V11.4351H6.67957V15.8882H15.6601C16.274 15.8882 16.7734 16.3876 16.7734 17.0015V29.174C16.7734 29.7879 16.274 30.2873 15.6601 30.2873H13.4335V31.4006H15.6601H22.3398H24.5664V30.2873H22.3398C21.7259 30.2873 21.2265 29.7879 21.2265 29.174ZM17.5871 15.8882H20.4128C20.2227 16.2159 20.1132 16.5961 20.1132 17.0015V29.174C20.1132 29.5794 20.2227 29.9595 20.4128 30.2873H17.5871C17.7772 29.9595 17.8867 29.5794 17.8867 29.174V17.0015C17.8867 16.5961 17.7772 16.2159 17.5871 15.8882Z" fill="#fff"/><path d="M27.5706 9.2085H25.8784C25.6085 5.82501 22.9014 3.11781 19.5179 2.84802V1.7124H20.6312V0.599121H17.2914V1.7124H18.4047V2.8481C16.6253 2.99164 14.9581 3.8188 13.7644 5.16691L14.5979 5.90487C15.7041 4.65547 17.2945 3.93889 18.9612 3.93889C21.986 3.93889 24.4789 6.25607 24.7602 9.20842H13.1622C13.2463 8.32693 13.5289 7.47623 13.9931 6.72068L13.0445 6.13792C12.4727 7.06884 12.1321 8.12067 12.045 9.20842H10.3519V10.3217H27.5706V9.2085Z" fill="#fff"/><path d="M22.9425 7.24035C22.1928 6.06064 20.9713 5.27838 19.5912 5.09424L19.444 6.19773C20.4974 6.3383 21.4301 6.93591 22.003 7.83745L22.9425 7.24035Z" fill="#fff"/><path d="M18.3325 5.09424C17.8783 5.15487 17.4368 5.2812 17.02 5.46971L17.479 6.48398C17.7966 6.3403 18.1333 6.24396 18.4798 6.19772L18.3325 5.09424Z" fill="#fff"/></svg>