<svg width="32" height="38" viewBox="0 0 32 38" fill="none" xmlns="http://www.w3.org/2000/svg"><path d="M30.6016 31.3999H30.1873C30.5342 29.8618 30.0058 28.433 28.5062 26.7607C28.4037 26.6464 28.2585 26.5796 28.105 26.5759C27.9508 26.5743 27.8034 26.6321 27.6955 26.7414C27.1126 27.3322 26.5255 27.7529 25.9449 28.0531C25.51 26.6877 24.4214 25.1505 22.9238 24.512C22.4287 24.3015 21.9199 24.1137 21.4161 23.9451C21.3933 23.9358 18.1472 23.021 18.1472 23.021C18.1432 23.02 18.1394 23.019 18.1357 23.018V20.7023C19.6073 19.6549 20.9339 18.2029 21.612 16.8671C21.9858 16.1303 22.2772 15.3524 22.4732 14.5881C23.0249 14.5483 23.5156 14.3613 23.9361 14.0293C24.9337 13.2438 25.4467 11.7389 25.0795 10.6744C24.845 9.99482 24.2942 9.60391 23.5682 9.6019L22.7716 9.59945C22.7723 8.96525 22.7725 8.47964 22.7725 8.47964C22.7725 7.16686 22.4761 5.90492 21.8917 4.729C21.7549 4.45372 21.4208 4.34135 21.1455 4.47829C20.8702 4.61507 20.758 4.9492 20.8948 5.22448C21.402 6.24506 21.6592 7.34031 21.6592 8.47964V9.57867C19.204 9.41814 16.6318 8.21282 14.6777 6.28462C14.461 6.07095 14.1127 6.0708 13.8958 6.28447C11.9434 8.20949 9.37569 9.41391 6.92462 9.57778V8.47964C6.92462 4.41772 10.2291 1.11321 14.2908 1.11321C16.1934 1.11321 18.0028 1.84352 19.3859 3.16951C19.6079 3.38215 19.9602 3.3748 20.173 3.15289C20.3857 2.93097 20.3783 2.57858 20.1563 2.36587C18.5651 0.840231 16.482 0 14.2909 0C9.61527 0 5.81141 3.80401 5.81141 8.47971C5.81141 8.47971 5.81 8.96525 5.80867 9.59945L5.0054 9.60198C4.27887 9.60398 3.72765 9.99474 3.49312 10.674C3.12573 11.7378 3.63799 13.2429 4.63571 14.0297C5.01223 14.3256 5.44336 14.5058 5.92267 14.5697C5.74142 15.8433 5.24416 16.6246 4.76033 17.382C3.95216 18.6469 3.18882 19.8418 4.54888 22.5715C4.9766 23.4289 5.12778 23.8872 5.06767 24.7741C2.37145 26.0519 0.940437 27.7729 0.813894 29.8931C0.813745 29.8966 0.813522 29.9001 0.813374 29.9036L0.53587 36.7089C0.517018 37.0324 0.534089 37.3997 0.796526 37.6783C1.06364 37.9618 1.44668 38 1.78616 38H28.0183C28.0961 38 28.1731 37.9837 28.2443 37.9521C30.2036 37.0815 31.4697 35.1409 31.4697 33.0085V32.2679C31.4696 31.7892 31.0802 31.3999 30.6016 31.3999ZM22.7599 12.5082C22.765 12.4169 22.768 11.5924 22.7699 10.7128L23.565 10.7153C23.8144 10.7159 23.9483 10.8094 24.0271 11.0375C24.2195 11.5956 23.927 12.6196 23.2469 13.1551C23.0847 13.2831 22.9007 13.373 22.6972 13.4261C22.7371 13.1112 22.7591 12.8035 22.7599 12.5082ZM5.32424 13.155C4.64492 12.6192 4.35272 11.5951 4.54532 11.0374C4.62414 10.8093 4.75825 10.7159 5.00859 10.7153L5.80674 10.7128C5.80577 11.5924 5.80629 12.417 5.81141 12.5083C5.81216 12.804 5.83368 13.112 5.87383 13.4275C5.67173 13.3747 5.4893 13.2846 5.32424 13.155ZM21.7606 25.2474C22.0044 25.3385 22.2474 25.4342 22.4877 25.5364C23.6681 26.0396 24.581 27.3393 24.911 28.4728C23.8309 28.8007 22.7977 28.798 21.8858 28.7949C21.8436 28.7948 21.8021 28.7947 21.7605 28.7946V25.2474H21.7606ZM21.8821 29.9083C23.5611 29.9142 25.8213 29.922 28.0499 27.9399C29.0881 29.2221 29.3803 30.2488 29.0372 31.3999H19.3668C19.4503 30.544 19.7216 30.2757 19.934 30.1489C20.346 29.903 21.058 29.9058 21.8821 29.9083ZM20.0673 24.6886L16.3635 27.7928L15.0576 25.8778L17.6983 24.0435C17.7517 24.064 19.3673 24.4832 20.0673 24.6886ZM12.0984 23.5394C12.1993 22.983 12.253 22.3837 12.2608 21.7403C12.9155 22.0155 13.5592 22.1744 14.1508 22.1743C14.1964 22.1743 14.3789 22.1743 14.4256 22.1743C15.2296 22.1743 16.1299 21.879 17.023 21.3982C17.0236 22.1796 17.0245 23.1385 17.0256 23.1552L14.2866 25.0578L12.0984 23.5394ZM13.5158 25.878L12.2092 27.7939L10.7653 26.584C11.2115 26.0355 11.5567 25.4057 11.8024 24.689L13.5158 25.878ZM14.2866 7.44711C16.3937 9.36069 19.0814 10.5437 21.6587 10.6946C21.6587 10.8584 21.6579 12.2871 21.6477 12.4583C21.647 12.4694 21.6467 12.4806 21.6467 12.4918C21.6467 13.6655 21.2722 15.0766 20.6193 16.3634C20.0568 17.4715 18.9656 18.6952 17.7002 19.6369C17.5623 19.7396 17.4244 19.8364 17.2869 19.9291C17.2726 19.938 17.2587 19.9475 17.2453 19.9576C16.2397 20.6281 15.2612 21.0245 14.5217 21.0585C14.451 21.0617 14.1479 21.0615 14.091 21.0599C13.2367 21.035 12.0503 20.5141 10.8714 19.6369C9.60599 18.6953 8.51468 17.4715 7.95218 16.3635C7.2992 15.0766 6.92477 13.6655 6.92477 12.4918C6.92477 12.4806 6.92447 12.4694 6.92373 12.4583C6.91341 12.2871 6.91275 10.8583 6.91267 10.6946C9.48962 10.5437 12.178 9.36062 14.2866 7.44711ZM5.69838 17.9813C6.01396 17.4873 6.37214 16.9262 6.64845 16.1994C6.74486 16.4245 6.84803 16.6479 6.95935 16.8673C7.74526 18.4154 9.40204 20.12 11.1468 21.169C11.1468 21.1745 11.1468 21.1793 11.1468 21.1848C11.1473 21.2832 11.1478 21.3939 11.1487 21.5177C11.1595 23.8069 10.5829 25.3798 9.33421 26.4681C8.37634 27.3029 7.07373 27.8018 5.66683 28.2258C5.70706 27.9893 5.74536 27.7663 5.78143 27.5556C6.323 24.3987 6.4206 23.8299 5.54504 22.0747C4.46642 19.9098 4.95649 19.1426 5.69838 17.9813ZM4.42293 33.1368V36.8867H1.78601C1.72567 36.8867 1.67921 36.8849 1.64373 36.8822C1.64366 36.8528 1.64462 36.8157 1.64737 36.7695C1.64752 36.766 1.64774 36.7626 1.64789 36.7591L1.92539 29.9542C2.01935 28.4146 2.99414 27.1505 4.89622 26.1091C4.83803 26.4703 4.76708 26.8843 4.68418 27.3673C4.6061 27.8224 4.5183 28.3345 4.42196 28.9157C4.39087 29.1035 4.45789 29.2944 4.59972 29.4214C4.7031 29.514 4.83581 29.5633 4.97111 29.5633C5.02143 29.5633 5.07212 29.5565 5.12177 29.5426C5.41598 29.4598 5.7078 29.3756 5.99651 29.2886V31.8183H5.74113C5.0143 31.8185 4.42293 32.4099 4.42293 33.1368ZM5.53621 36.8867V33.1368C5.53621 33.0257 5.6301 32.9318 5.74113 32.9318H11.1962C11.5036 32.9318 11.7528 32.6827 11.7528 32.3752C11.7528 32.0677 11.5036 31.8185 11.1962 31.8185H7.1098V28.925C8.1755 28.5425 9.15972 28.068 9.97983 27.3784L11.5945 28.7313C12.1161 29.1672 12.6113 29.1759 13.0277 28.5695L14.2866 26.7234L15.5451 28.5689C15.9591 29.1776 16.4567 29.1658 16.9772 28.7308L20.6471 25.655V28.8272C20.1695 28.8702 19.7389 28.9687 19.3633 29.1928C18.698 29.5899 18.3388 30.2985 18.2503 31.3999H17.7283C17.4143 31.3999 17.1396 31.5681 16.9871 31.8185H13.7648C13.4574 31.8185 13.2082 32.0677 13.2082 32.3752C13.2082 32.6827 13.4574 32.9318 13.7648 32.9318H16.8604V33.0084C16.8604 34.4932 17.4747 35.8844 18.5088 36.8867H5.53621ZM30.3563 33.0084C30.3563 34.6633 29.3946 36.1732 27.8962 36.8867H20.4338C18.9354 36.1732 17.9737 34.6633 17.9737 33.0084V32.5132H30.3562V33.0084H30.3563Z" fill="#fff"/><path d="M10.2775 13.3281C10.6223 13.163 11.2518 13.1632 11.5984 13.3285C11.6757 13.3654 11.7573 13.3828 11.8376 13.3828C12.0455 13.3828 12.245 13.2658 12.3404 13.0656C12.4728 12.7882 12.355 12.4559 12.0775 12.3236C11.4263 12.013 10.4458 12.0133 9.79672 12.324C9.51944 12.4568 9.40232 12.7892 9.53503 13.0665C9.66773 13.3438 10.0002 13.461 10.2775 13.3281Z" fill="#fff"/><path d="M16.734 13.2378C16.8143 13.2378 16.8959 13.2204 16.9732 13.1835C17.3198 13.0182 17.9494 13.018 18.294 13.1831C18.5713 13.3157 18.9037 13.1986 19.0365 12.9215C19.1693 12.6442 19.0521 12.3118 18.7749 12.179C18.1259 11.8682 17.1454 11.868 16.4941 12.1786C16.2166 12.3109 16.0989 12.6432 16.2312 12.9206C16.3267 13.1208 16.5261 13.2378 16.734 13.2378Z" fill="#fff"/><path d="M14.2859 18.6548C14.9394 18.6548 15.5498 18.3735 16.0049 17.8625C16.2093 17.6328 16.189 17.281 15.9594 17.0766C15.7299 16.8721 15.3781 16.8926 15.1735 17.122C14.9326 17.3926 14.6174 17.5415 14.2859 17.5415C13.9545 17.5415 13.6393 17.3925 13.3984 17.122C13.1938 16.8924 12.842 16.872 12.6125 17.0766C12.3829 17.281 12.3625 17.6328 12.567 17.8625C13.0219 18.3735 13.6325 18.6548 14.2859 18.6548Z" fill="#fff"/></svg>