<svg width="93" height="19" viewBox="0 0 93 19" fill="none" xmlns="http://www.w3.org/2000/svg"><path d="M15.192 16.488C13.336 17.704 11.256 18.312 8.952 18.312C6.36 18.312 4.336 17.536 2.88 15.984C1.44 14.416 0.72 12.336 0.72 9.744C0.72 7.152 1.48 5.072 3 3.504C4.536 1.92 6.592 1.128 9.168 1.128C11.056 1.128 12.744 1.512 14.232 2.28L13.608 6.408C12.072 5.512 10.64 5.064 9.312 5.064C8.08 5.064 7.152 5.488 6.528 6.336C5.92 7.168 5.616 8.296 5.616 9.72C5.616 11.16 5.928 12.32 6.552 13.2C7.176 14.08 8.088 14.52 9.288 14.52C9.896 14.52 10.472 14.384 11.016 14.112V11.76H8.544L7.992 8.304H15.192V16.488ZM26.6833 7.584C27.7713 8.704 28.3153 10.192 28.3153 12.048C28.3153 13.904 27.7633 15.4 26.6593 16.536C25.5713 17.672 24.1793 18.24 22.4833 18.24C20.7873 18.24 19.4033 17.68 18.3313 16.56C17.2593 15.424 16.7233 13.928 16.7233 12.072C16.7233 10.216 17.2673 8.72 18.3553 7.584C19.4433 6.448 20.8353 5.88 22.5313 5.88C24.2273 5.88 25.6113 6.448 26.6833 7.584ZM23.7793 14.088C24.0993 13.592 24.2593 12.92 24.2593 12.072C24.2593 11.224 24.0993 10.56 23.7793 10.08C23.4753 9.584 23.0513 9.336 22.5073 9.336C21.9633 9.336 21.5393 9.576 21.2353 10.056C20.9313 10.536 20.7793 11.2 20.7793 12.048C20.7793 12.896 20.9313 13.568 21.2353 14.064C21.5393 14.56 21.9633 14.808 22.5073 14.808C23.0513 14.808 23.4753 14.568 23.7793 14.088ZM43.782 17.232C42.614 17.872 41.39 18.192 40.11 18.192C38.334 18.192 36.918 17.664 35.862 16.608C34.806 15.536 34.278 14.064 34.278 12.192C34.278 10.16 34.846 8.608 35.982 7.536C37.118 6.464 38.558 5.928 40.302 5.928C41.486 5.928 42.622 6.2 43.71 6.744L43.134 10.296C42.318 9.816 41.542 9.576 40.806 9.576C40.15 9.576 39.614 9.792 39.198 10.224C38.782 10.64 38.574 11.248 38.574 12.048C38.574 12.864 38.79 13.488 39.222 13.92C39.67 14.352 40.23 14.568 40.902 14.568C41.574 14.568 42.374 14.32 43.302 13.824L43.782 17.232ZM56.4609 18H52.1889V10.824C52.1889 10.024 51.8609 9.624 51.2049 9.624C50.7729 9.624 50.3009 9.864 49.7889 10.344V18H45.5169V1.344L49.7889 0.671999V7.536C50.9249 6.432 52.0369 5.88 53.1249 5.88C54.2129 5.88 55.0369 6.208 55.5969 6.864C56.1729 7.504 56.4609 8.424 56.4609 9.624V18ZM69.0613 17.016C67.6373 17.832 66.0613 18.24 64.3333 18.24C62.3813 18.24 60.8293 17.728 59.6773 16.704C58.5413 15.68 57.9733 14.16 57.9733 12.144C57.9733 10.224 58.5013 8.704 59.5573 7.584C60.6293 6.448 62.0133 5.88 63.7093 5.88C65.5013 5.88 66.8373 6.456 67.7173 7.608C68.6133 8.76 69.0613 10.264 69.0613 12.12C69.0613 12.648 69.0373 13.032 68.9893 13.272H62.1973C62.4373 14.6 63.3413 15.264 64.9093 15.264C66.0133 15.264 67.2693 14.904 68.6773 14.184L69.0613 17.016ZM65.0533 11.088C65.0053 9.36 64.5173 8.496 63.5893 8.496C62.6613 8.496 62.1813 9.36 62.1493 11.088H65.0533ZM79.6648 17.232C78.4968 17.872 77.2728 18.192 75.9928 18.192C74.2168 18.192 72.8008 17.664 71.7448 16.608C70.6888 15.536 70.1608 14.064 70.1608 12.192C70.1608 10.16 70.7288 8.608 71.8648 7.536C73.0008 6.464 74.4408 5.928 76.1848 5.928C77.3688 5.928 78.5048 6.2 79.5928 6.744L79.0168 10.296C78.2008 9.816 77.4248 9.576 76.6888 9.576C76.0328 9.576 75.4968 9.792 75.0808 10.224C74.6648 10.64 74.4568 11.248 74.4568 12.048C74.4568 12.864 74.6728 13.488 75.1048 13.92C75.5528 14.352 76.1128 14.568 76.7848 14.568C77.4568 14.568 78.2568 14.32 79.1848 13.824L79.6648 17.232ZM92.7518 17.568L88.3118 18.168L85.6718 12.72V18H81.3998V1.344L85.6718 0.671999V10.92L88.1918 6.12H92.7758L89.5118 11.664L92.7518 17.568Z" fill="url(#paint0_radial)"/><defs><radialGradient id="paint0_radial" cx="0" cy="0" r="1" gradientUnits="userSpaceOnUse" gradientTransform="rotate(-165.24 44.317 5.206) scale(73.0549 77.3076)"><stop stop-color="#F0AB48"/><stop offset=".551" stop-color="#B04DB7"/><stop offset=".984" stop-color="#515CD5"/></radialGradient></defs></svg>