<svg width="139" height="135" viewBox="0 0 139 135" fill="none" xmlns="http://www.w3.org/2000/svg"><g opacity=".2"><path d="M128.723 32.7929C120.85 20.0009 108.85 10.109 94.5974 4.66225C80.3444 -0.784532 64.6408 -1.47945 49.9395 2.68603C35.2382 6.85151 22.3671 15.6428 13.3366 27.6868C4.30604 39.7308 -0.375385 54.3492 0.0235229 69.2587C0.42243 84.1682 5.8792 98.5292 15.5415 110.099C25.2038 121.668 38.5276 129.794 53.4317 133.208C68.3357 136.622 83.9808 135.131 97.9232 128.968C111.866 122.806 123.32 112.318 130.498 99.1442L69.292 67.5L128.723 32.7929Z" fill="#475469"/><circle cx="69.89" cy="67.5" r="42.411" fill="#00CEF9"/><circle cx="70.487" cy="65.708" r="17.92" fill="#fff"/><rect x="64.513" y="72.378" width="17.458" height="55.623" rx="2" transform="rotate(-35.97 64.513 72.378)" fill="#00CEF9"/><path d="M128.723 32.7929C120.85 20.0009 108.85 10.109 94.5974 4.66225C80.3444 -0.784532 64.6408 -1.47945 49.9395 2.68603C35.2382 6.85151 22.3671 15.6428 13.3366 27.6868C4.30604 39.7308 -0.375385 54.3492 0.0235229 69.2587C0.42243 84.1682 5.8792 98.5292 15.5415 110.099C25.2038 121.668 38.5276 129.794 53.4317 133.208C68.3357 136.622 83.9808 135.131 97.9232 128.968C111.866 122.806 123.32 112.318 130.498 99.1442L69.292 67.5L128.723 32.7929Z" fill="#01ADD2"/><circle cx="69.5" cy="67.5" r="42.5" fill="#fff"/><circle cx="70.487" cy="66.903" r="27.478" fill="#475469"/><rect x="64.513" y="72.378" width="17.458" height="55.623" rx="2" transform="rotate(-35.97 64.513 72.378)" fill="#fff"/></g></svg>