<svg width="12" height="12" viewBox="0 0 12 12" fill="none" xmlns="http://www.w3.org/2000/svg"><mask id="path-1-inside-1" fill="#fff"><path d="M2.78686 7.68111L2.15336 11.5646C2.10286 11.8731 2.43236 12.1046 2.70486 11.9531L5.99986 10.1321L9.29486 11.9536C9.56486 12.1036 9.89736 11.8766 9.84636 11.5651L9.21286 7.68161L11.8929 4.9346C12.1054 4.7171 11.9834 4.3481 11.6814 4.3021L7.99236 3.7386L6.33886 0.216598C6.21536 -0.0464019 5.78386 -0.0464019 5.66036 0.216598L4.00736 3.7381L0.318361 4.3016C0.015361 4.3481 -0.105639 4.7166 0.106861 4.9341L2.78686 7.68111Z"/></mask><path d="M2.78686 7.68111L2.15336 11.5646C2.10286 11.8731 2.43236 12.1046 2.70486 11.9531L5.99986 10.1321L9.29486 11.9536C9.56486 12.1036 9.89736 11.8766 9.84636 11.5651L9.21286 7.68161L11.8929 4.9346C12.1054 4.7171 11.9834 4.3481 11.6814 4.3021L7.99236 3.7386L6.33886 0.216598C6.21536 -0.0464019 5.78386 -0.0464019 5.66036 0.216598L4.00736 3.7381L0.318361 4.3016C0.015361 4.3481 -0.105639 4.7166 0.106861 4.9341L2.78686 7.68111Z" fill="#FCFF66"/><path d="M2.78686 7.68111L9.43582 8.76572L9.9832 5.41019L7.60897 2.97661L2.78686 7.68111ZM2.15336 11.5646L8.80172 12.6529L8.80232 12.6492L2.15336 11.5646ZM2.70486 11.9531L-0.553767 6.05681L-0.561227 6.06093L-0.568676 6.06507L2.70486 11.9531ZM5.99986 10.1321L9.25917 4.23618L6.00031 2.43466L2.74123 4.23581L5.99986 10.1321ZM9.29486 11.9536L12.5666 6.06455L12.5604 6.06111L12.5542 6.05769L9.29486 11.9536ZM9.84636 11.5651L3.1974 12.6497L3.19804 12.6536L9.84636 11.5651ZM9.21286 7.68161L4.39075 2.97711L2.01653 5.41069L2.5639 8.76622L9.21286 7.68161ZM11.8929 4.9346L7.07413 0.226647L7.07075 0.230108L11.8929 4.9346ZM11.6814 4.3021L10.6641 10.9617L10.6669 10.9621L11.6814 4.3021ZM7.99236 3.7386L1.89413 6.60158L3.42173 9.85542L6.9751 10.3982L7.99236 3.7386ZM6.33886 0.216598L12.4371 -2.64638L12.4368 -2.6469L6.33886 0.216598ZM5.66036 0.216598L-0.437624 -2.6469L-0.438045 -2.646L5.66036 0.216598ZM4.00736 3.7381L5.02463 10.3977L8.57825 9.85488L10.1058 6.6007L4.00736 3.7381ZM0.318361 4.3016L-0.698903 -2.358L-0.703548 -2.35728L0.318361 4.3016ZM0.106861 4.9341L4.92898 0.229607L4.9256 0.226148L0.106861 4.9341ZM-3.8621 6.59649L-4.4956 10.48L8.80232 12.6492L9.43582 8.76572L-3.8621 6.59649ZM-4.495 10.4763C-5.45409 16.3354 0.775139 20.734 5.9784 17.8412L-0.568676 6.06507C4.08958 3.47525 9.65982 7.41086 8.80172 12.6529L-4.495 10.4763ZM5.96349 17.8494L9.25849 16.0284L2.74123 4.23581L-0.553767 6.05681L5.96349 17.8494ZM2.74055 16.028L6.03555 17.8495L12.5542 6.05769L9.25917 4.23618L2.74055 16.028ZM6.02316 17.8427C11.1304 20.68 17.4716 16.4433 16.4947 10.4766L3.19804 12.6536C2.32315 7.30995 7.99937 3.52722 12.5666 6.06455L6.02316 17.8427ZM16.4953 10.4805L15.8618 6.59699L2.5639 8.76622L3.1974 12.6497L16.4953 10.4805ZM14.035 12.3861L16.715 9.6391L7.07075 0.230108L4.39075 2.97711L14.035 12.3861ZM16.7116 9.64256C20.7381 5.52134 18.451 -1.48131 12.6958 -2.35792L10.6669 10.9621C5.51574 10.1775 3.47265 3.91287 7.07413 0.226648L16.7116 9.64256ZM12.6986 -2.35749L9.00963 -2.92099L6.9751 10.3982L10.6641 10.9617L12.6986 -2.35749ZM14.0906 0.875624L12.4371 -2.64638L0.240632 3.07958L1.89413 6.60158L14.0906 0.875624ZM12.4368 -2.6469C10.9949 -5.7177 8.04811 -6.71749 5.99961 -6.71749C3.95111 -6.71749 1.00436 -5.7177 -0.437624 -2.6469L11.7583 3.0801C10.4399 5.88789 7.77061 6.75619 5.99961 6.75619C4.22861 6.75619 1.55936 5.88789 0.240876 3.0801L12.4368 -2.6469ZM-0.438045 -2.646L-2.09104 0.875499L10.1058 6.6007L11.7588 3.0792L-0.438045 -2.646ZM2.9901 -2.92149L-0.698903 -2.35799L1.33562 10.9612L5.02463 10.3977L2.9901 -2.92149ZM-0.703548 -2.35728C-6.45898 -1.47402 -8.73338 5.52593 -4.71187 9.64206L4.9256 0.226148C8.5221 3.90728 6.48971 10.1702 1.34027 10.9605L-0.703548 -2.35728ZM-4.71525 9.6386L-2.03525 12.3856L7.60897 2.97661L4.92897 0.229608L-4.71525 9.6386Z" fill="#FCFF66" mask="url(#path-1-inside-1)"/></svg>