<svg width="220" height="84" viewBox="0 0 220 84" fill="none" xmlns="http://www.w3.org/2000/svg">
<path d="M69.3567 67.2479H58.714V82.4444H36.2329V67.2479H0V52.7692L32.6455 1.55555H58.714V51.6923H69.3567V67.2479ZM36.2329 51.6923V23.812L19.0133 51.6923H36.2329Z" fill="url(#paint0_radial)"/>
<path d="M135.143 11.0085C141.361 18.2678 144.47 28.5983 144.47 42C144.47 55.4017 141.361 65.7721 135.143 73.1111C128.925 80.3704 120.474 84 109.792 84C99.1889 84 90.7385 80.3305 84.4406 72.9915C78.1427 65.6524 74.9938 55.3219 74.9938 42C74.9938 28.6781 78.1427 18.3476 84.4406 11.0085C90.7385 3.66952 99.1889 0 109.792 0C120.474 0 128.925 3.66952 135.143 11.0085ZM109.792 66.4103C117.206 66.4103 120.913 58.2735 120.913 42C120.913 25.7265 117.206 17.5897 109.792 17.5897C102.298 17.5897 98.5511 25.7265 98.5511 42C98.5511 58.2735 102.298 66.4103 109.792 66.4103Z" fill="url(#paint1_radial)"/>
<path d="M220 67.2479H209.357V82.4444H186.876V67.2479H150.643V52.7692L183.289 1.55555H209.357V51.6923H220V67.2479ZM186.876 51.6923V23.812L169.657 51.6923H186.876Z" fill="url(#paint2_radial)"/>
<defs>
<radialGradient id="paint0_radial" cx="0" cy="0" r="1" gradientUnits="userSpaceOnUse" gradientTransform="translate(203.077 78.8571) rotate(-158.704) scale(179.363 260.703)">
<stop stop-color="#F0AB48"/>
<stop offset="0.550547" stop-color="#B04DB7"/>
<stop offset="0.984375" stop-color="#515CD5"/>
</radialGradient>
<radialGradient id="paint1_radial" cx="0" cy="0" r="1" gradientUnits="userSpaceOnUse" gradientTransform="translate(203.077 78.8571) rotate(-158.704) scale(179.363 260.703)">
<stop stop-color="#F0AB48"/>
<stop offset="0.550547" stop-color="#B04DB7"/>
<stop offset="0.984375" stop-color="#515CD5"/>
</radialGradient>
<radialGradient id="paint2_radial" cx="0" cy="0" r="1" gradientUnits="userSpaceOnUse" gradientTransform="translate(203.077 78.8571) rotate(-158.704) scale(179.363 260.703)">
<stop stop-color="#F0AB48"/>
<stop offset="0.550547" stop-color="#B04DB7"/>
<stop offset="0.984375" stop-color="#515CD5"/>
</radialGradient>
</defs>
</svg>
