<svg width="18" height="18" viewBox="0 0 18 18" fill="none" xmlns="http://www.w3.org/2000/svg">
<g clip-path="url(#clip0)">
<path d="M17.1702 17.297H16.3991V6.10095C16.3991 5.57983 15.9751 5.15588 15.454 5.15588H13.7305C13.2094 5.15588 12.7855 5.57987 12.7855 6.10095V17.297H10.8275V11.1736C10.8275 10.6525 10.4036 10.2285 9.88246 10.2285H8.15896C7.63784 10.2285 7.21389 10.6525 7.21389 11.1736V17.297H5.25597V14.1257C5.25597 13.6046 4.83198 13.1806 4.3109 13.1806H2.58736C2.06624 13.1806 1.64229 13.6046 1.64229 14.1257V17.297H0.82962C0.635452 17.297 0.478058 17.4544 0.478058 17.6485C0.478058 17.8427 0.635452 18.0001 0.82962 18.0001H17.1702C17.3643 18.0001 17.5217 17.8427 17.5217 17.6485C17.5217 17.4544 17.3643 17.297 17.1702 17.297ZM4.55277 17.297H2.34538V14.1257C2.34538 13.9923 2.45391 13.8838 2.58733 13.8838H4.31083C4.44425 13.8838 4.55277 13.9923 4.55277 14.1257V17.297ZM10.1244 17.297H7.91698V11.1736C7.91698 11.0402 8.02551 10.9317 8.15893 10.9317H9.88242C10.0158 10.9317 10.1244 11.0402 10.1244 11.1736V17.297ZM15.696 17.297H13.4886V6.10095C13.4886 5.96754 13.5971 5.85901 13.7305 5.85901H15.454C15.5874 5.85901 15.696 5.96754 15.696 6.10095V17.297Z" fill="#BB41C1"/>
<path d="M16.3984 0.369703C16.4034 0.273762 16.3696 0.176203 16.2964 0.102937C16.2231 0.0296719 16.1255 -0.00411328 16.0296 0.00084375C16.0239 0.000597656 16.0183 0 16.0126 0H13.8856C13.6915 0 13.5341 0.157395 13.5341 0.351562C13.5341 0.54573 13.6915 0.703125 13.8856 0.703125H15.199L11.7235 4.1786L10.4129 2.86798C10.347 2.80206 10.2575 2.765 10.1643 2.765C10.0711 2.765 9.98162 2.80206 9.9157 2.86798L3.5957 9.18801C3.45842 9.3253 3.45842 9.54791 3.5957 9.68523C3.66436 9.75382 3.75433 9.78813 3.84429 9.78813C3.93426 9.78813 4.02426 9.75382 4.09288 9.68516L10.1643 3.61371L11.4749 4.92434C11.6122 5.06162 11.8348 5.06162 11.9721 4.92434L15.6962 1.20034V2.38897C15.6962 2.58314 15.8536 2.74054 16.0477 2.74054C16.2419 2.74054 16.3993 2.58314 16.3993 2.38897V0.386719C16.3993 0.380988 16.3987 0.375398 16.3984 0.369703Z" fill="#BB41C1"/>
<path d="M2.65918 11.0146C2.85334 11.0146 3.01074 10.8572 3.01074 10.6631C3.01074 10.4689 2.85334 10.3115 2.65918 10.3115C2.46502 10.3115 2.30762 10.4689 2.30762 10.6631C2.30762 10.8572 2.46502 11.0146 2.65918 11.0146Z" fill="#BB41C1"/>
</g>
<defs>
<clipPath id="clip0">
<rect width="18" height="18" fill="white"/>
</clipPath>
</defs>
</svg>
