<svg width="18" height="18" viewBox="0 0 18 18" fill="none" xmlns="http://www.w3.org/2000/svg">
<path fill-rule="evenodd" clip-rule="evenodd" d="M10.3687 8.9943L17.742 1.47102C17.9032 1.30542 17.9922 1.08317 17.9898 0.85259C17.9874 0.622007 17.8937 0.401648 17.7292 0.239436C17.6479 0.159231 17.5514 0.095914 17.4454 0.0530528C17.3394 0.0101916 17.2259 -0.0113002 17.1114 -0.0102148C16.997 -0.00912935 16.884 0.014529 16.7788 0.0593938C16.6736 0.104259 16.5784 0.169388 16.4986 0.25112L9.13817 7.76279L1.47303 0.239436C1.3917 0.159302 1.29526 0.0960122 1.18924 0.0531953C1.08322 0.0103784 0.969731 -0.0110862 0.855333 -0.010001C0.740935 -0.00891582 0.627863 0.0147159 0.522681 0.0595363C0.417499 0.104357 0.322286 0.169458 0.242497 0.25112C0.0812295 0.416562 -0.00801414 0.63875 -0.00581985 0.869333C-0.00362555 1.09992 0.0898051 1.32026 0.254193 1.48263L7.90821 8.9943L0.254193 16.506C0.0898051 16.6683 -0.00362555 16.8888 -0.00581985 17.1193C-0.00801414 17.3499 0.0812295 17.5721 0.242497 17.7375C0.322205 17.8194 0.417382 17.8846 0.522574 17.9295C0.627766 17.9744 0.74089 17.9981 0.855333 17.9992C0.969775 18.0003 1.08328 17.9787 1.18931 17.9358C1.29534 17.8929 1.39177 17.8294 1.47303 17.7492L9.13817 10.2259L16.4986 17.7375C16.5794 17.8207 16.6761 17.8867 16.783 17.9318C16.8899 17.977 17.0048 18.0002 17.1209 18.0002C17.2341 18.0006 17.3463 17.9786 17.4509 17.9355C17.5555 17.8925 17.6505 17.8291 17.7303 17.7492C17.8949 17.5869 17.9885 17.3667 17.9909 17.1361C17.9933 16.9055 17.9043 16.6832 17.7432 16.5177L10.3687 8.9943Z" fill="white"/>
</svg>
