<svg width="25" height="24" viewBox="0 0 25 24" fill="none" xmlns="http://www.w3.org/2000/svg">
<path d="M3.43921 12.5678H7.04713C7.24133 12.5678 7.39869 12.4105 7.39869 12.2163C7.39869 12.0221 7.24133 11.8647 7.04713 11.8647H3.43921C3.24501 11.8647 3.08765 12.0221 3.08765 12.2163C3.08765 12.4105 3.24505 12.5678 3.43921 12.5678Z" fill="#505ADD"/>
<path d="M3.39523 15.1278H14.9401C15.1343 15.1278 15.2916 14.9705 15.2916 14.7763C15.2916 14.5821 15.1343 14.4247 14.9401 14.4247H3.39523C3.20103 14.4247 3.04367 14.5821 3.04367 14.7763C3.04367 14.9705 3.20103 15.1278 3.39523 15.1278Z" fill="#505ADD"/>
<path d="M14.976 16.9851H3.39523C3.20103 16.9851 3.04367 17.1425 3.04367 17.3367C3.04367 17.5309 3.20103 17.6882 3.39523 17.6882H14.976C15.1702 17.6882 15.3276 17.5309 15.3276 17.3367C15.3276 17.1425 15.1702 16.9851 14.976 16.9851Z" fill="#505ADD"/>
<path d="M8.0151 19.545H3.43921C3.24501 19.545 3.08765 19.7023 3.08765 19.8965C3.08765 20.0907 3.24501 20.2481 3.43921 20.2481H8.0151C8.2093 20.2481 8.36666 20.0907 8.36666 19.8965C8.36666 19.7023 8.2093 19.545 8.0151 19.545Z" fill="#505ADD"/>
<path d="M23.4922 16.5504C23.298 16.5504 23.1406 16.7078 23.1406 16.902V18.8027C23.1406 19.1258 22.8778 19.3886 22.5547 19.3886H21.1719C20.9777 19.3886 20.8203 19.546 20.8203 19.7402C20.8203 19.9344 20.9777 20.0917 21.1719 20.0917H22.5547C23.2655 20.0917 23.8438 19.5134 23.8438 18.8027V16.902C23.8438 16.7078 23.6864 16.5504 23.4922 16.5504Z" fill="#505ADD"/>
<path d="M19.5312 19.3883H17.2152V14.3562H21.3684C21.5626 14.3562 21.7199 14.1988 21.7199 14.0046C21.7199 13.8104 21.5626 13.653 21.3684 13.653H17.2152V11.7031H21.3684C21.5626 11.7031 21.7199 11.5457 21.7199 11.3515C21.7199 11.1573 21.5626 11 21.3684 11H17.2152V10.3082C17.2152 9.96469 17.0816 9.64144 16.839 9.39816L11.7114 4.25409C11.4712 4.01325 11.1385 3.87516 10.7984 3.87516H8.50091V2.98505C8.50091 2.79084 8.34355 2.63348 8.14934 2.63348C7.95514 2.63348 7.79778 2.79084 7.79778 2.98505V3.87516H2.44531C1.7345 3.87516 1.15625 4.45341 1.15625 5.16422V22.7108C1.15625 23.4217 1.7345 23.9999 2.44531 23.9999H15.9261C16.6369 23.9999 17.2152 23.4217 17.2152 22.7108V20.0914H19.5312C19.7255 20.0914 19.8828 19.9341 19.8828 19.7399C19.8828 19.5457 19.7255 19.3883 19.5312 19.3883ZM16.0167 9.56925H11.6564C11.5918 9.56925 11.5392 9.5167 11.5392 9.45206V5.07736L16.0167 9.56925ZM16.512 22.7108C16.512 23.034 16.2492 23.2968 15.9261 23.2968H2.44531C2.1222 23.2968 1.85938 23.034 1.85938 22.7108V5.16422C1.85938 4.84111 2.1222 4.57828 2.44531 4.57828H10.7984C10.811 4.57828 10.8235 4.57936 10.8361 4.5802V9.45206C10.8361 9.90436 11.2041 10.2724 11.6564 10.2724H16.5103C16.511 10.2843 16.512 10.2962 16.512 10.3083V22.7108Z" fill="#505ADD"/>
<path d="M23.4677 5.523L18.3401 0.379078C18.1 0.138141 17.7673 0 17.4271 0H9.08694C8.37617 0 7.79788 0.57825 7.79788 1.28906C7.76408 1.52428 7.88132 1.78814 8.14944 1.78481C8.41766 1.78805 8.53475 1.52423 8.501 1.28906C8.501 0.965953 8.76383 0.703125 9.08694 0.703125C9.08694 0.703125 17.4523 0.704203 17.4648 0.705047V5.57691C17.4648 6.0292 17.8328 6.39722 18.2851 6.39722H19.2708C19.465 6.39722 19.6223 6.23986 19.6223 6.04566C19.6223 5.85145 19.465 5.69409 19.2708 5.69409H18.2851C18.2205 5.69409 18.1679 5.64155 18.1679 5.57691V1.20225L22.6455 5.69405H20.9111C20.7169 5.69405 20.5595 5.85141 20.5595 6.04561C20.5595 6.23981 20.7169 6.39717 20.9111 6.39717H23.1389C23.1396 6.40913 23.1407 6.42098 23.1407 6.43308V15.2562C23.1407 15.4504 23.298 15.6077 23.4922 15.6077C23.6864 15.6077 23.8438 15.4504 23.8438 15.2562V6.43308C23.8438 6.08958 23.7102 5.76638 23.4677 5.523Z" fill="#505ADD"/>
</svg>
