<svg width="14" height="13" viewBox="0 0 14 13" fill="none" xmlns="http://www.w3.org/2000/svg">
<path fill="transparent" d="M9.91666 1.25009C10.0699 1.09689 10.2518 0.975354 10.4519 0.892438C10.6521 0.809522 10.8667 0.766846 11.0833 0.766846C11.3 0.766846 11.5145 0.809522 11.7147 0.892438C11.9149 0.975354 12.0968 1.09689 12.25 1.25009C12.4032 1.4033 12.5247 1.58519 12.6076 1.78537C12.6906 1.98554 12.7332 2.20009 12.7332 2.41676C12.7332 2.63343 12.6906 2.84798 12.6076 3.04816C12.5247 3.24833 12.4032 3.43022 12.25 3.58343L4.37499 11.4584L1.16666 12.3334L2.04166 9.1251L9.91666 1.25009Z" stroke="#475469" stroke-linecap="round" stroke-linejoin="round"/>
</svg>
