<svg width="38" height="38" viewBox="0 0 38 38" fill="none" xmlns="http://www.w3.org/2000/svg">
<path d="M35.3176 19.893C33.9088 19.6001 32.0005 19.4453 29.7988 19.4453C28.8902 19.4453 28.0325 19.4721 27.2383 19.5237V2.04102C27.2383 0.915637 26.3226 0 25.1973 0H2.04102C0.85834 0 0 0.98325 0 2.33789V33.1387C0 33.9452 0.89159 34.8828 2.04102 34.8828H21.5977V35.7363C21.5977 36.9946 23.6166 37.4143 24.2801 37.5523C25.6888 37.8452 27.5972 38 29.7988 38C32.0005 38 33.9088 37.8452 35.3176 37.5523C35.9811 37.4143 38 36.9946 38 35.7363V21.709C38 20.4507 35.9811 20.031 35.3176 19.893ZM36.8867 28.7191C36.8752 28.743 36.6436 29.1521 34.9049 29.4859C33.5854 29.7392 31.8197 29.8731 29.7988 29.8731C27.7779 29.8731 26.0123 29.7392 24.6927 29.4859C22.9113 29.1439 22.7119 28.7227 22.7109 28.7227V26.5535C23.2936 26.8264 23.9522 26.9636 24.2801 27.0317C25.6888 27.3246 27.5972 27.4794 29.7988 27.4794C32.0005 27.4794 33.9088 27.3246 35.3176 27.0317C35.6454 26.9636 36.3041 26.8264 36.8867 26.5535V28.7191ZM14.3242 28.834C14.0167 28.834 13.7676 29.0831 13.7676 29.3906V30.8008H5.30664C5.01652 30.8008 4.82422 30.5631 4.82422 30.4668V24.9375H13.7676V26.793C13.7676 27.1005 14.0167 27.3496 14.3242 27.3496C14.6317 27.3496 14.8809 27.1005 14.8809 26.793V24.9375H21.5977V30.8008H14.8809V29.3906C14.8809 29.0831 14.6317 28.834 14.3242 28.834ZM23.8242 19.9947C22.9707 20.204 21.5977 20.6711 21.5977 21.709V23.8242H14.8809V17.9609H23.3418C23.6078 17.9609 23.8242 18.1774 23.8242 18.4434V19.9947ZM13.7676 23.8242H4.82422V18.5918C4.82422 18.2145 5.01808 17.9609 5.30664 17.9609H13.7676V23.8242ZM36.8867 25.2123C36.8752 25.2362 36.6436 25.6453 34.9049 25.9791C33.5854 26.2324 31.8197 26.3663 29.7988 26.3663C27.7779 26.3663 26.0123 26.2324 24.6927 25.9791C22.9113 25.6371 22.7119 25.2158 22.7109 25.2158V23.0466C23.2936 23.3195 23.9522 23.4568 24.2801 23.5249C25.6888 23.8178 27.5972 23.9727 29.7988 23.9727C32.0005 23.9727 33.9088 23.8178 35.3176 23.525C35.6454 23.4568 36.3041 23.3196 36.8867 23.0467V25.2123ZM34.9049 20.9458C36.5839 21.2681 36.8576 21.6609 36.8849 21.709C36.8576 21.7571 36.5839 22.1498 34.9049 22.4722C33.5854 22.7255 31.8197 22.8594 29.7988 22.8594C27.7779 22.8594 26.0123 22.7255 24.6927 22.4722C23.0138 22.1498 22.74 21.7571 22.7128 21.709C22.74 21.6609 23.0138 21.2681 24.6927 20.9458C26.0123 20.6925 27.7779 20.5586 29.7988 20.5586C31.8197 20.5586 33.5854 20.6925 34.9049 20.9458ZM2.04102 33.7695C1.50501 33.7695 1.11328 33.3268 1.11328 33.1387V14.9922H19.4453C19.7528 14.9922 20.002 14.743 20.002 14.4355C20.002 14.1281 19.7528 13.8789 19.4453 13.8789H1.11328V2.33789C1.11328 1.594 1.4774 1.11328 2.04102 1.11328H25.1973C25.7089 1.11328 26.125 1.52943 26.125 2.04102V13.8789H22.043C21.7355 13.8789 21.4863 14.1281 21.4863 14.4355C21.4863 14.743 21.7355 14.9922 22.043 14.9922H26.125V19.6166C25.7042 19.6605 25.3078 19.7126 24.9375 19.7727V18.4434C24.9375 17.5635 24.2217 16.8477 23.3418 16.8477H5.30664C4.39694 16.8477 3.71094 17.5975 3.71094 18.5918V30.4668C3.71094 31.2378 4.45661 31.9141 5.30664 31.9141H21.5977V33.7695H2.04102ZM34.9049 36.4995C33.5854 36.7528 31.8197 36.8867 29.7988 36.8867C27.7779 36.8867 26.0123 36.7528 24.6927 36.4995C22.9113 36.1576 22.7119 35.7363 22.7109 35.7363V33.5671C23.2936 33.84 23.9522 33.9773 24.2801 34.0454C25.6888 34.3383 27.5972 34.4931 29.7988 34.4931C30.8596 34.4931 31.8645 34.4564 32.7854 34.3838C33.0918 34.3596 33.3207 34.0916 33.2966 33.7852C33.2725 33.4787 33.0037 33.2498 32.698 33.274C31.8061 33.3442 30.8307 33.3798 29.7988 33.3798C27.7779 33.3798 26.0123 33.2459 24.6927 32.9926C22.9113 32.6508 22.7119 32.2295 22.7109 32.2295V30.0603C23.2936 30.3332 23.9522 30.4704 24.2801 30.5386C25.6888 30.8314 27.5972 30.9863 29.7988 30.9863C32.0005 30.9863 33.9088 30.8314 35.3176 30.5386C35.6454 30.4704 36.3041 30.3332 36.8867 30.0603V32.2259C36.8753 32.2496 36.6703 32.6119 35.197 32.9329C34.8966 32.9984 34.7062 33.295 34.7716 33.5953C34.8358 33.8979 35.1413 34.087 35.434 34.0207C35.7386 33.9543 36.3417 33.8225 36.8867 33.5676V35.7327C36.8752 35.7567 36.6436 36.1657 34.9049 36.4995Z" fill="#00CEF9"/>
<path d="M25.0117 10.4277V4.56445C25.0117 3.68459 24.2959 2.96875 23.416 2.96875H11.1328C10.8253 2.96875 10.5762 3.2179 10.5762 3.52539C10.5762 3.83288 10.8253 4.08203 11.1328 4.08203H23.416C23.682 4.08203 23.8984 4.29845 23.8984 4.56445V10.4277C23.8984 10.6937 23.682 10.9102 23.416 10.9102H5.30664C5.04064 10.9102 4.82422 10.6937 4.82422 10.4277V4.56445C4.82422 4.29845 5.04064 4.08203 5.30664 4.08203H8.53516C8.84264 4.08203 9.0918 3.83288 9.0918 3.52539C9.0918 3.2179 8.84264 2.96875 8.53516 2.96875H5.30664C4.42678 2.96875 3.71094 3.68459 3.71094 4.56445V10.4277C3.71094 11.3076 4.42678 12.0234 5.30664 12.0234H23.416C24.2959 12.0234 25.0117 11.3076 25.0117 10.4277Z" fill="#00CEF9"/>
<path d="M11.6895 27.3125H7.68164C7.37415 27.3125 7.125 27.5617 7.125 27.8691C7.125 28.1766 7.37415 28.4258 7.68164 28.4258H11.6895C11.9969 28.4258 12.2461 28.1766 12.2461 27.8691C12.2461 27.5617 11.9969 27.3125 11.6895 27.3125Z" fill="#00CEF9"/>
<path d="M8.05273 21.4492H9.12891V22.5254C9.12891 22.8329 9.37806 23.082 9.68555 23.082C9.99304 23.082 10.2422 22.8329 10.2422 22.5254V21.4492H11.3184C11.6258 21.4492 11.875 21.2001 11.875 20.8926C11.875 20.5851 11.6258 20.3359 11.3184 20.3359H10.2422V19.2598C10.2422 18.9523 9.99304 18.7031 9.68555 18.7031C9.37806 18.7031 9.12891 18.9523 9.12891 19.2598V20.3359H8.05273C7.74525 20.3359 7.49609 20.5851 7.49609 20.8926C7.49609 21.2001 7.74525 21.4492 8.05273 21.4492Z" fill="#00CEF9"/>
<path d="M20.5481 19.3441C20.3307 19.1268 19.9783 19.1268 19.7609 19.3441L18.9999 20.1051L18.239 19.3441C18.0215 19.1268 17.6691 19.1268 17.4517 19.3441C17.2343 19.5616 17.2343 19.914 17.4517 20.1314L18.2127 20.8923L17.4517 21.6533C17.2343 21.8708 17.2343 22.2232 17.4517 22.4405C17.6692 22.6579 18.0215 22.6579 18.239 22.4405L18.9999 21.6796L19.7609 22.4405C19.9784 22.6579 20.3307 22.6579 20.5481 22.4405C20.7655 22.2231 20.7655 21.8707 20.5481 21.6533L19.7872 20.8923L20.5481 20.1314C20.7655 19.9139 20.7655 19.5615 20.5481 19.3441Z" fill="#00CEF9"/>
<path d="M17.7489 29.6986C17.8913 29.6986 18.0338 29.6443 18.1425 29.5357L20.666 27.0122C20.8834 26.7948 20.8834 26.4424 20.666 26.225C20.4485 26.0077 20.0961 26.0077 19.8787 26.225L17.3553 28.7484C17.1379 28.9659 17.1379 29.3183 17.3553 29.5357C17.464 29.6443 17.6065 29.6986 17.7489 29.6986Z" fill="#00CEF9"/>
<path d="M17.9238 27.0156C18.2313 27.0156 18.4805 26.7664 18.4805 26.459C18.4805 26.1516 18.2313 25.9023 17.9238 25.9023C17.6164 25.9023 17.3672 26.1516 17.3672 26.459C17.3672 26.7664 17.6164 27.0156 17.9238 27.0156Z" fill="#00CEF9"/>
<path d="M20.1504 29.8359C20.4578 29.8359 20.707 29.5867 20.707 29.2793C20.707 28.9719 20.4578 28.7227 20.1504 28.7227C19.843 28.7227 19.5938 28.9719 19.5938 29.2793C19.5938 29.5867 19.843 29.8359 20.1504 29.8359Z" fill="#00CEF9"/>
<path d="M21.5605 9.87109C22.2767 9.87109 22.8594 9.2884 22.8594 8.57227V6.41992C22.8594 5.70379 22.2767 5.12109 21.5605 5.12109H20.5215C19.8053 5.12109 19.2227 5.70379 19.2227 6.41992V8.57227C19.2227 9.2884 19.8053 9.87109 20.5215 9.87109H21.5605ZM20.3359 8.57227V6.41992C20.3359 6.31757 20.4191 6.23438 20.5215 6.23438H21.5605C21.6629 6.23438 21.7461 6.31757 21.7461 6.41992V8.57227C21.7461 8.67461 21.6629 8.75781 21.5605 8.75781H20.5215C20.4191 8.75781 20.3359 8.67461 20.3359 8.57227Z" fill="#00CEF9"/>
</svg>
