<svg width="38" height="38" viewBox="0 0 38 38" fill="none" xmlns="http://www.w3.org/2000/svg">
<path d="M35.9441 0H28.5267C28.2193 0 27.9701 0.249227 27.9701 0.556641C27.9701 0.864055 28.2193 1.11328 28.5267 1.11328H35.9441C36.4639 1.11328 36.8867 1.53611 36.8867 2.05586V6.14754H8.27539C7.96798 6.14754 7.71875 6.39677 7.71875 6.70418C7.71875 7.01159 7.96798 7.26082 8.27539 7.26082H36.8867V31.2958C36.8867 31.8156 36.4639 32.2384 35.9441 32.2384H20.2988C19.9914 32.2384 19.7422 32.4876 19.7422 32.795C19.7422 33.1025 19.9914 33.3517 20.2988 33.3517H35.9441C37.0778 33.3517 38 32.4294 38 31.2958V2.05586C38 0.922242 37.0778 0 35.9441 0V0Z" fill="#00CEF9"/>
<path d="M20.7992 25.3413C20.4918 25.3413 20.2426 25.5905 20.2426 25.8979V30.3963C20.2426 30.7038 20.4918 30.953 20.7992 30.953H23.1983C23.5057 30.953 23.755 30.7038 23.755 30.3963V25.8979C23.755 25.5905 23.5057 25.3413 23.1983 25.3413H20.7992ZM22.6417 29.8397H21.3558V26.4546H22.6417V29.8397Z" fill="#00CEF9"/>
<path d="M25.5977 22.3418C25.2902 22.3418 25.041 22.591 25.041 22.8984V30.3958C25.041 30.7032 25.2902 30.9524 25.5977 30.9524H27.9968C28.3042 30.9524 28.5534 30.7032 28.5534 30.3958V22.8984C28.5534 22.591 28.3042 22.3418 27.9968 22.3418H25.5977ZM27.4401 29.8392H26.1543V23.4551H27.4401V29.8392Z" fill="#00CEF9"/>
<path d="M32.7951 19.3428H30.396C30.0886 19.3428 29.8394 19.592 29.8394 19.8994V30.3957C29.8394 30.7031 30.0886 30.9523 30.396 30.9523H32.7951C33.1025 30.9523 33.3518 30.7031 33.3518 30.3957V19.8994C33.3518 19.592 33.1025 19.3428 32.7951 19.3428ZM32.2385 29.839H30.9526V20.4561H32.2385V29.839Z" fill="#00CEF9"/>
<path d="M24.2482 14.3945H5.20508C4.89766 14.3945 4.64844 14.6438 4.64844 14.9512C4.64844 15.2586 4.89766 15.5078 5.20508 15.5078H24.2483C24.5557 15.5078 24.8049 15.2586 24.8049 14.9512C24.8049 14.6438 24.5557 14.3945 24.2482 14.3945Z" fill="#00CEF9"/>
<path d="M5.20508 17.9067H14.2019C14.5093 17.9067 14.7585 17.6575 14.7585 17.3501C14.7585 17.0427 14.5093 16.7935 14.2019 16.7935H5.20508C4.89766 16.7935 4.64844 17.0427 4.64844 17.3501C4.64844 17.6575 4.89766 17.9067 5.20508 17.9067Z" fill="#00CEF9"/>
<path d="M33.3518 9.10352C33.3518 8.7961 33.1026 8.54688 32.7952 8.54688H5.20508C4.89766 8.54688 4.64844 8.7961 4.64844 9.10352V12.5522C4.64844 12.8597 4.89766 13.1089 5.20508 13.1089H32.7952C33.1026 13.1089 33.3518 12.8597 33.3518 12.5522V9.10352ZM5.76172 9.66016H26.9904V11.9956H5.76172V9.66016ZM32.2385 11.9956H28.1037V9.66016H32.2385V11.9956Z" fill="#00CEF9"/>
<path d="M17.7012 32.2384H13.0508L14.3678 31.8269C14.6002 31.7542 14.7584 31.539 14.7584 31.2955V28.2966C14.7584 28.0532 14.6002 27.838 14.3678 27.7653L12.3593 27.1376V24.5479C12.3593 24.3745 12.2784 24.2108 12.1405 24.1056C12.0026 24.0003 11.8235 23.9652 11.6561 24.011L3.48101 26.2406H1.75624C1.52935 26.2406 1.31256 26.2843 1.11328 26.363V7.26082H5.67773C5.98515 7.26082 6.23438 7.01159 6.23438 6.70418C6.23438 6.39677 5.98515 6.14754 5.67773 6.14754H1.11328V2.05586C1.11328 1.53611 1.53611 1.11328 2.05586 1.11328H25.9291C26.2365 1.11328 26.4857 0.864055 26.4857 0.556641C26.4857 0.249227 26.2365 0 25.9291 0H2.05586C0.922242 0 0 0.922242 0 2.05586V31.5954C0 32.4028 0.547734 33.0841 1.29096 33.2886L2.06083 36.9614C2.18686 37.5632 2.72464 38 3.33962 38H4.39152C4.74132 38 5.06847 37.8443 5.28905 37.5729C5.50963 37.3013 5.59513 36.9492 5.52336 36.6065L4.92367 33.7452L11.6562 35.5814C11.7044 35.5945 11.7537 35.601 11.8026 35.601C11.9234 35.601 12.0424 35.5616 12.1406 35.4867C12.2785 35.3813 12.3594 35.2178 12.3594 35.0443V33.3517H17.7012C18.0086 33.3517 18.2578 33.1025 18.2578 32.795C18.2578 32.4876 18.0086 32.2384 17.7012 32.2384ZM13.6451 28.7059V30.8863L12.3593 31.2882V28.3041L13.6451 28.7059ZM1.11328 27.9968C1.11328 27.6423 1.4017 27.3538 1.75624 27.3538H2.99896V32.2384H1.75765C1.75631 32.2384 1.75498 32.2383 1.75364 32.2383C1.40036 32.2368 1.11328 31.9491 1.11328 31.5954V27.9968ZM4.43368 36.8346C4.43487 36.8402 4.43791 36.8549 4.42492 36.8708C4.41208 36.8867 4.39716 36.8867 4.39152 36.8867H3.33962C3.24863 36.8867 3.16914 36.8221 3.15044 36.7332L2.44157 33.3517H3.48101L3.71725 33.4161L4.43368 36.8346ZM4.11224 32.3699V27.2224L11.246 25.2768V34.3155L4.11224 32.3699Z" fill="#00CEF9"/>
<path d="M24.8048 19.75C24.8048 19.4426 24.5556 19.1934 24.2482 19.1934H5.20508C4.89766 19.1934 4.64844 19.4426 4.64844 19.75C4.64844 20.0574 4.89766 20.3066 5.20508 20.3066H24.2483C24.5557 20.3066 24.8048 20.0574 24.8048 19.75Z" fill="#00CEF9"/>
<path d="M5.20508 21.5923C4.89766 21.5923 4.64844 21.8415 4.64844 22.1489C4.64844 22.4563 4.89766 22.7056 5.20508 22.7056H14.2019C14.5093 22.7056 14.7585 22.4563 14.7585 22.1489C14.7585 21.8415 14.5093 21.5923 14.2019 21.5923H5.20508Z" fill="#00CEF9"/>
<path d="M33.47 3.63064C33.47 3.13374 33.0672 2.73096 32.5703 2.73096C32.0734 2.73096 31.6707 3.13374 31.6707 3.63064C31.6707 4.12753 32.0734 4.53032 32.5703 4.53032C33.0672 4.53032 33.47 4.12746 33.47 3.63064Z" fill="#00CEF9"/>
<path d="M30.3962 3.63064C30.3962 3.13374 29.9934 2.73096 29.4965 2.73096C28.9996 2.73096 28.5968 3.13374 28.5968 3.63064C28.5968 4.12753 28.9996 4.53032 29.4965 4.53032C29.9934 4.53032 30.3962 4.12746 30.3962 3.63064Z" fill="#00CEF9"/>
<path d="M25.5228 3.63064C25.5228 4.12753 25.9256 4.53032 26.4225 4.53032C26.9194 4.53032 27.3222 4.12753 27.3222 3.63064C27.3222 3.13374 26.9194 2.73096 26.4225 2.73096C25.9256 2.73096 25.5228 3.13374 25.5228 3.63064Z" fill="#00CEF9"/>
</svg>
