<svg width="38" height="38" viewBox="0 0 38 38" fill="none" xmlns="http://www.w3.org/2000/svg">
<path d="M35.9439 0H2.05608C0.922391 0 0 0.922391 0 2.05608V31.2958C0 32.2057 0.594269 32.9788 1.41491 33.2488L0.163059 34.5007C-0.0543281 34.718 -0.0543281 35.0705 0.163059 35.2878C0.380445 35.5052 0.73291 35.5052 0.950223 35.2878L2.95576 33.2823L4.71764 35.0442L2.7121 37.0497C2.49471 37.2671 2.49471 37.6196 2.7121 37.8369C2.82076 37.9455 2.96326 37.9999 3.10568 37.9999C3.24811 37.9999 3.39061 37.9456 3.49927 37.8369L5.89839 35.4377C6.10946 35.2267 6.11496 34.8887 5.9162 34.6702L6.85521 33.7312C6.9612 33.8276 7.09494 33.8764 7.22913 33.8764C7.37155 33.8764 7.51405 33.8221 7.62271 33.7133L7.98445 33.3516H23.0093C23.3167 33.3516 23.5659 33.1024 23.5659 32.795C23.5659 32.4875 23.3167 32.2383 23.0093 32.2383H17.7329C20.4289 30.7318 22.256 27.8493 22.256 24.5478C22.256 23.0025 21.8535 21.4991 21.0905 20.1709L22.2944 18.9672L25.1242 21.8634C25.2281 21.9698 25.3703 22.0301 25.5191 22.031C25.6668 22.0287 25.8108 21.9731 25.9159 21.868L28.6999 19.084C28.9173 18.8666 28.9173 18.5142 28.6999 18.2969C28.4825 18.0794 28.13 18.0795 27.9127 18.2969L25.5269 20.6826L22.6972 17.7864C22.5932 17.68 22.451 17.6197 22.3023 17.6188C22.3012 17.6188 22.3001 17.6188 22.299 17.6188C22.1515 17.6188 22.0099 17.6774 21.9054 17.7818L14.7328 24.9537L13.1837 23.3546L22.1491 14.3893L24.9788 17.2196C25.0831 17.3241 25.2247 17.3827 25.3723 17.3827C25.52 17.3827 25.6616 17.3241 25.7659 17.2196L30.3393 12.6463C30.5567 12.429 30.5567 12.0766 30.3394 11.8592L29.5178 11.0373L34.3544 10.168L33.4851 15.0041L32.7389 14.2579C32.5215 14.0406 32.169 14.0406 31.9517 14.2579L29.7489 16.4608C29.5315 16.6781 29.5315 17.0306 29.7489 17.2479C29.9662 17.4653 30.3187 17.4653 30.536 17.2479L32.3453 15.4388L33.4508 16.5443C33.5974 16.6909 33.8133 16.7439 34.0109 16.6819C34.2087 16.62 34.3556 16.4532 34.3923 16.2492L35.5917 9.57697C35.624 9.39758 35.5663 9.21374 35.4374 9.08489C35.3085 8.95605 35.1247 8.89868 34.9453 8.93059L28.273 10.13C28.0691 10.1666 27.9024 10.3136 27.8404 10.5113C27.7784 10.709 27.8314 10.9248 27.9779 11.0714L29.1586 12.2526L25.3724 16.0388L22.5428 13.2085C22.4384 13.1041 22.2968 13.0454 22.1492 13.0454C22.0016 13.0454 21.8599 13.1041 21.7556 13.2085L17.971 16.9931C16.6082 16.1754 15.0559 15.7441 13.4522 15.7441C8.5978 15.7441 4.64839 19.6935 4.64839 24.5479C4.64839 26.12 5.06305 27.597 5.78802 28.8758L4.28665 30.3773C4.07557 30.5884 4.07008 30.9264 4.26884 31.1448L3.32975 32.0839C3.11132 31.8851 2.77326 31.8906 2.56225 32.1017L2.42539 32.2385H2.05586C1.53611 32.2385 1.11328 31.8157 1.11328 31.296V7.26082H5.56641C5.87382 7.26082 6.12305 7.01159 6.12305 6.70418C6.12305 6.39677 5.87382 6.14754 5.56641 6.14754H1.11328V2.05608C1.11328 1.53625 1.53625 1.11328 2.05608 1.11328H35.9439C36.4637 1.11328 36.8867 1.53625 36.8867 2.05608V6.14754H8.16406C7.85665 6.14754 7.60742 6.39677 7.60742 6.70418C7.60742 7.01159 7.85665 7.26082 8.16406 7.26082H36.8867V31.2958C36.8867 31.8156 36.4639 32.2384 35.9441 32.2384H25.607C25.2995 32.2384 25.0503 32.4876 25.0503 32.795C25.0503 33.1025 25.2995 33.3517 25.607 33.3517H35.9441C37.0778 33.3517 38 32.4294 38 31.2958V2.05608C38 0.922391 37.0776 0 35.9439 0V0ZM6.06716 32.945L5.13 33.8822L4.11788 32.87L5.05504 31.9328L6.06716 32.945ZM9.09788 32.2384L9.12423 32.2121C9.13989 32.221 9.15563 32.2296 9.17136 32.2384H9.09788ZM12.0029 23.7358L14.3267 26.1345C14.4304 26.2417 14.5729 26.3027 14.722 26.3038H14.7265C14.874 26.3038 15.0156 26.2452 15.1201 26.1408L18.4509 22.8104C18.6449 23.3651 18.7432 23.9468 18.7432 24.5478C18.7432 27.4653 16.3697 29.8388 13.4521 29.8388C10.5346 29.8388 8.16109 27.4653 8.16109 24.5478C8.16109 21.6302 10.5346 19.2567 13.4521 19.2567C14.1035 19.2567 14.7489 19.3784 15.3527 19.6112L12.009 22.9548C11.7942 23.1698 11.7914 23.5175 12.0029 23.7358ZM13.4521 16.8573C14.7587 16.8573 16.0258 17.1851 17.1559 17.8081L16.1998 18.7642C15.3449 18.3573 14.4035 18.1436 13.4521 18.1436C9.92075 18.1436 7.04781 21.0165 7.04781 24.5479C7.04781 28.0793 9.92075 30.9523 13.4521 30.9523C16.9836 30.9523 19.8565 28.0793 19.8565 24.5479C19.8565 23.6553 19.6672 22.767 19.307 21.9544L20.2708 20.9908C20.8423 22.0836 21.1427 23.2999 21.1427 24.5479C21.1427 28.7885 17.6927 32.2385 13.4521 32.2385C9.21159 32.2385 5.7616 28.7884 5.7616 24.5479C5.7616 20.3073 9.21159 16.8573 13.4521 16.8573ZM6.41116 29.827C6.91244 30.4939 7.50611 31.0876 8.17304 31.5888L7.22928 32.5326L5.4674 30.7707L6.41116 29.827Z" fill="#00CEF9"/>
<path d="M33.47 3.63064C33.47 3.13374 33.0672 2.73096 32.5703 2.73096C32.0734 2.73096 31.6707 3.13374 31.6707 3.63064C31.6707 4.12753 32.0734 4.53032 32.5703 4.53032C33.0672 4.53032 33.47 4.12746 33.47 3.63064Z" fill="#00CEF9"/>
<path d="M30.3962 3.63064C30.3962 3.13374 29.9934 2.73096 29.4965 2.73096C28.9996 2.73096 28.5968 3.13374 28.5968 3.63064C28.5968 4.12753 28.9996 4.53032 29.4965 4.53032C29.9934 4.53032 30.3962 4.12746 30.3962 3.63064Z" fill="#00CEF9"/>
<path d="M27.3222 3.63064C27.3222 3.13374 26.9194 2.73096 26.4225 2.73096C25.9256 2.73096 25.5228 3.13374 25.5228 3.63064C25.5228 4.12753 25.9256 4.53032 26.4225 4.53032C26.9194 4.53032 27.3222 4.12746 27.3222 3.63064Z" fill="#00CEF9"/>
<path d="M2.95557 8.92188C2.64815 8.92188 2.39893 9.1711 2.39893 9.47851V12.4774C2.39893 12.7848 2.64815 13.034 2.95557 13.034H13.4518C13.7592 13.034 14.0084 12.7848 14.0084 12.4774V9.47851C14.0084 9.1711 13.7592 8.92188 13.4518 8.92188H2.95557ZM12.8952 11.9208H3.51221V10.0352H12.8952V11.9208Z" fill="#00CEF9"/>
<path d="M28.6398 27.9971C28.6398 28.3045 28.889 28.5537 29.1964 28.5537H34.4445C34.7519 28.5537 35.0011 28.3045 35.0011 27.9971C35.0011 27.6897 34.7519 27.4404 34.4445 27.4404H29.1964C28.889 27.4404 28.6398 27.6897 28.6398 27.9971Z" fill="#00CEF9"/>
<path d="M29.1964 30.9526H34.4445C34.7519 30.9526 35.0011 30.7034 35.0011 30.396C35.0011 30.0886 34.7519 29.8394 34.4445 29.8394H29.1964C28.889 29.8394 28.6398 30.0886 28.6398 30.396C28.6398 30.7034 28.889 30.9526 29.1964 30.9526Z" fill="#00CEF9"/>
<path d="M34.444 26.1548C34.7514 26.1548 35.0006 25.9056 35.0006 25.5981C35.0006 25.2907 34.7514 25.0415 34.444 25.0415H31.4451C31.1377 25.0415 30.8884 25.2907 30.8884 25.5981C30.8884 25.9056 31.1377 26.1548 31.4451 26.1548H34.444Z" fill="#00CEF9"/>
</svg>
