<svg width="24" height="24" viewBox="0 0 24 24" fill="none" xmlns="http://www.w3.org/2000/svg">
<g clip-path="url(#clip0)">
<path d="M9.51896 12.1375C9.33615 11.9542 9.03896 11.9542 8.85615 12.1375C8.67287 12.3203 8.67287 12.6175 8.85615 12.8003C9.03896 12.9836 9.33615 12.9836 9.51896 12.8003C9.70224 12.6175 9.70224 12.3203 9.51896 12.1375Z" fill="#475469"/>
<path d="M12 12.9375C11.2246 12.9375 10.5938 13.5683 10.5938 14.3438C10.5938 15.1192 11.2246 15.75 12 15.75C12.7754 15.75 13.4062 15.1192 13.4062 14.3438C13.4062 13.5683 12.7754 12.9375 12 12.9375ZM12 14.8125C11.7415 14.8125 11.5312 14.6022 11.5312 14.3438C11.5312 14.0853 11.7415 13.875 12 13.875C12.2585 13.875 12.4688 14.0853 12.4688 14.3438C12.4688 14.6022 12.2585 14.8125 12 14.8125Z" fill="#475469"/>
<path d="M12 10.5938C11.476 10.5938 10.9694 10.6996 10.4942 10.9085C10.2572 11.0127 10.1495 11.2893 10.2537 11.5263C10.3578 11.7633 10.6344 11.8709 10.8714 11.7668C11.227 11.6105 11.6067 11.5312 12 11.5312C13.5508 11.5312 14.8125 12.7929 14.8125 14.3438C14.8125 15.8946 13.5508 17.1562 12 17.1562C10.4492 17.1562 9.1875 15.8946 9.1875 14.3438C9.1875 14.3277 9.18745 14.3121 9.18783 14.296C9.19383 14.0372 8.98889 13.8225 8.73009 13.8165C8.47088 13.8101 8.25661 14.0154 8.25061 14.2743C8.25005 14.2976 8.25 14.3204 8.25 14.3438C8.25 16.4115 9.93225 18.0938 12 18.0938C14.0677 18.0938 15.75 16.4115 15.75 14.3438C15.75 12.276 14.0677 10.5938 12 10.5938Z" fill="#475469"/>
<path d="M12 3.5625C11.7411 3.5625 11.5312 3.77236 11.5312 4.03125V6.84375C11.5312 7.10264 11.7411 7.3125 12 7.3125C12.2589 7.3125 12.4688 7.10264 12.4688 6.84375V4.03125C12.4688 3.77236 12.2589 3.5625 12 3.5625Z" fill="#475469"/>
<path d="M6.76316 7.03783L4.77473 5.04939C4.59168 4.86635 4.29487 4.86635 4.11177 5.04939C3.92873 5.23244 3.92873 5.52925 4.11177 5.71235L6.10021 7.70078C6.28326 7.88383 6.58012 7.88388 6.76316 7.70078C6.94621 7.51774 6.94621 7.22092 6.76316 7.03783Z" fill="#475469"/>
<path d="M19.8883 5.04939C19.7052 4.86635 19.4084 4.86635 19.2253 5.04939L17.2369 7.03783C17.0538 7.22088 17.0538 7.51769 17.2369 7.70078C17.4199 7.88383 17.7168 7.88388 17.8998 7.70078L19.8883 5.71235C20.0713 5.5293 20.0713 5.23249 19.8883 5.04939Z" fill="#475469"/>
<path d="M23.8826 14.4239C20.9049 11.0527 16.4835 8.25 12.0001 8.25C7.51604 8.25 3.09465 11.0534 0.117479 14.4239C-0.0538962 14.618 -0.0355212 14.9142 0.158494 15.0855C0.352557 15.2569 0.648807 15.2385 0.820135 15.0445C0.920026 14.9314 1.02235 14.8187 1.12599 14.7067C3.44232 18.2066 7.64129 20.4375 12.0001 20.4375C16.3588 20.4375 20.5578 18.2066 22.8741 14.7067C22.9778 14.8188 23.0801 14.9315 23.18 15.0445C23.3508 15.2379 23.647 15.2574 23.8416 15.0855C24.0356 14.9142 24.054 14.6179 23.8826 14.4239ZM12.0001 19.5C7.87904 19.5 3.91548 17.3588 1.79589 14.0166C3.46595 12.3801 7.32479 9.1875 12.0001 9.1875C16.6754 9.1875 20.5342 12.3801 22.2042 14.0165C20.0846 17.3588 16.1211 19.5 12.0001 19.5Z" fill="#475469"/>
</g>
<defs>
<clipPath id="clip0">
<rect width="24" height="24" fill="white"/>
</clipPath>
</defs>
</svg>
