<svg width="37" height="38" viewBox="0 0 37 38" fill="none" xmlns="http://www.w3.org/2000/svg">
<path d="M18.1409 13.9553C18.4484 13.9553 18.6976 13.7061 18.6976 13.3986V12.2526C18.6976 11.9451 18.4484 11.6959 18.1409 11.6959C17.8334 11.6959 17.5843 11.9451 17.5843 12.2526V13.3986C17.5843 13.7061 17.8334 13.9553 18.1409 13.9553ZM14.8938 31.8027C14.5864 31.8027 14.3371 32.052 14.3371 32.3594C14.3371 32.6668 14.5864 32.916 14.8938 32.916C15.2012 32.916 15.4504 32.6668 15.4504 32.3594C15.4504 32.052 15.2013 31.8027 14.8938 31.8027ZM35.1767 28.9H34.908C34.8266 27.5942 34.4316 26.3278 33.752 25.2102C33.5923 24.9474 33.2498 24.864 32.9872 25.0237C32.7245 25.1834 32.641 25.5258 32.8008 25.7886C33.3742 26.7318 33.7131 27.7985 33.7928 28.9H19.8807C20.1409 25.2897 23.1614 22.4319 26.8368 22.4319C28.438 22.4319 29.9437 22.9596 31.1911 23.958C31.4313 24.1502 31.7814 24.1112 31.9735 23.8712C32.1656 23.6312 32.1267 23.2809 31.8867 23.0888C31.0468 22.4166 30.0791 21.9239 29.052 21.6311C29.0906 21.4636 29.1115 21.2916 29.1115 21.1176C29.1115 19.8629 28.091 18.8421 26.8367 18.8421C25.5824 18.8421 24.562 19.8629 24.562 21.1176C24.562 21.2904 24.5825 21.4611 24.6207 21.6274C23.8295 21.8531 23.088 22.1972 22.4154 22.6381L19.5558 21.6779C19.1542 21.5431 18.8843 21.1687 18.8843 20.7464V20.2818C21.0925 18.9353 22.5696 16.5071 22.5696 13.7412V13.1155C23.6039 13.0807 24.4347 12.2289 24.4347 11.1862C24.4347 10.1436 23.6039 9.29182 22.5696 9.25701V3.84067C22.5696 1.72291 20.8432 0 18.7213 0H11.0662C8.94432 0 7.218 1.72291 7.218 3.84067V9.25693C6.18368 9.29174 5.3528 10.1435 5.3528 11.1862C5.3528 12.2288 6.18368 13.0806 7.218 13.1154V13.741C7.218 16.5071 8.6951 18.9353 10.9034 20.2818V20.7464C10.9034 21.1686 10.6335 21.543 10.2319 21.6778L3.53244 23.9274C1.41958 24.6363 0 26.6076 0 28.8326V37.4434C0 37.7508 0.249152 38 0.556641 38C0.864129 38 1.11328 37.7508 1.11328 37.4434V28.8325C1.11328 27.0865 2.22782 25.5393 3.88669 24.9828L4.96175 24.6218C5.4504 25.3637 6.16899 26.787 6.05068 28.6141C5.95991 30.021 5.41181 31.1073 4.96872 31.7696C4.74117 32.108 4.62079 32.5021 4.62079 32.9093V37.4434C4.62079 37.7508 4.86994 38 5.17743 38C5.48491 38 5.73407 37.7508 5.73407 37.4434V32.9093C5.73407 32.7242 5.78877 32.545 5.89319 32.3898C6.41302 31.6128 7.05494 30.3395 7.16166 28.6858C7.28806 26.7335 6.6028 25.1764 6.04742 24.2574L7.19811 23.8711C8.52588 28.1467 10.9954 31.9762 14.3371 34.9509V37.4434C14.3371 37.7508 14.5863 38 14.8938 38C15.2013 38 15.4504 37.7508 15.4504 37.4434V34.9501C16.2308 34.255 16.9687 33.5082 17.6537 32.721C17.8777 32.9222 18.1728 33.0459 18.4968 33.0459H23.4896V33.3475C23.4896 33.8667 23.7063 34.3359 24.0536 34.6705V37.4434C24.0536 37.7508 24.3027 38 24.6102 38C24.9177 38 25.1668 37.7508 25.1668 37.4434V35.1784C25.4101 35.2018 28.5677 35.1752 28.6745 35.1558V37.4434C28.6745 37.7508 28.9236 38 29.2311 38C29.5386 38 29.7878 37.7508 29.7878 37.4434V34.4856C30.0355 34.1723 30.184 33.7771 30.184 33.3476V33.046H35.1768C35.8738 33.046 36.4407 32.4789 36.4407 31.782V30.1648C36.4407 29.4674 35.8736 28.9 35.1767 28.9ZM26.8368 19.9552C27.4773 19.9552 27.9983 20.4766 27.9983 21.1175C27.9983 21.2134 27.986 21.3079 27.9631 21.3996C27.591 21.3469 27.2148 21.3186 26.8367 21.3186C26.4543 21.3186 26.0782 21.3459 25.7099 21.3975C25.6874 21.3065 25.6752 21.2127 25.6752 21.1175C25.6752 20.4767 26.1963 19.9552 26.8368 19.9552ZM22.5696 10.3711C22.9898 10.4047 23.3215 10.7574 23.3215 11.1861C23.3215 11.6148 22.9898 11.9676 22.5696 12.0011V10.3711ZM7.21807 12.0012C6.79784 11.9676 6.46616 11.6149 6.46616 11.1862C6.46616 10.7575 6.79784 10.4047 7.21807 10.3712V12.0012ZM8.33135 13.741V8.78661C9.14835 8.63758 9.93574 8.3741 10.6782 8.00086C11.3267 7.67474 11.9322 7.26832 12.4808 6.79087C13.3043 7.29132 14.1769 7.71304 15.0773 8.04554C15.3659 8.15204 15.6858 8.00464 15.7923 7.71623C15.8989 7.42781 15.7514 7.10771 15.463 7.0012C14.573 6.67241 13.7123 6.24959 12.9049 5.74438C12.5819 5.54206 12.1601 5.57969 11.8795 5.83567C11.3675 6.30206 10.7951 6.69587 10.1781 7.00603C9.59151 7.30097 8.97253 7.51695 8.33128 7.65166V3.84052C8.33128 2.33663 9.55811 1.11313 11.0662 1.11313H18.7213C20.2294 1.11313 21.4563 2.33663 21.4563 3.84052V7.80662C20.2645 7.90838 19.0684 7.85754 17.8939 7.65433C17.5912 7.6023 17.303 7.80507 17.2505 8.10795C17.1982 8.41091 17.4013 8.69896 17.7041 8.75136C18.9416 8.96533 20.2009 9.02307 21.4563 8.92377V13.7409C21.4563 17.3504 18.5124 20.287 14.8938 20.287C11.2752 20.2872 8.33135 17.3506 8.33135 13.741ZM16.6423 24.336L17.6833 23.9974V25.7293L16.6423 25.3907C16.6928 25.2236 16.7202 25.0467 16.7202 24.8634C16.7202 24.6802 16.6928 24.503 16.6423 24.336ZM15.9653 23.3856C15.6641 23.1666 15.294 23.0369 14.8938 23.0369C14.4937 23.0369 14.1236 23.1666 13.8224 23.3856L12.1 22.8252C11.9603 22.7797 11.8128 22.7736 11.6719 22.8018L11.2416 22.3715C11.6984 22.0005 11.986 21.4478 12.013 20.8402C12.9031 21.2011 13.8755 21.4005 14.8938 21.4005C15.9122 21.4005 16.8847 21.2011 17.7747 20.8402C17.8017 21.4464 18.0881 21.998 18.543 22.3689L18.1112 22.8008C17.9717 22.7737 17.826 22.7803 17.6879 22.8252L15.9653 23.3856ZM15.6069 24.8633C15.6069 25.2565 15.287 25.5764 14.8938 25.5764C14.5006 25.5764 14.1807 25.2564 14.1807 24.8633C14.1807 24.4701 14.5006 24.1502 14.8938 24.1502C15.2871 24.1502 15.6069 24.4701 15.6069 24.8633ZM13.1453 25.3906L12.1043 25.7293V23.9972L13.1453 24.336C13.0948 24.503 13.0673 24.68 13.0673 24.8633C13.0673 25.0466 13.0948 25.2235 13.1453 25.3906ZM17.2329 30.1647V31.4952C16.5161 32.3669 15.7319 33.1925 14.8934 33.9549C11.7894 31.1333 9.49607 27.5303 8.25364 23.5165L10.1691 22.8733L10.9911 23.6953V26.0961C10.9911 26.3664 11.1217 26.6226 11.3404 26.7813C11.5596 26.9405 11.8441 26.9848 12.0999 26.9015L13.8223 26.3411C14.1235 26.5601 14.4937 26.6897 14.8938 26.6897C15.2938 26.6897 15.6641 26.5601 15.9653 26.3411L17.6876 26.9016C17.9433 26.9847 18.2279 26.9406 18.4471 26.7814C18.6659 26.6226 18.7965 26.3664 18.7965 26.0962V23.6899L19.6144 22.872L21.3628 23.4591C19.8736 24.8311 18.8987 26.7533 18.7654 28.9H18.4967C17.7999 28.9 17.2329 29.4674 17.2329 30.1647ZM29.0707 33.3475C29.0707 33.7473 28.7454 34.0726 28.3456 34.0726H25.3278C24.928 34.0726 24.6028 33.7473 24.6028 33.3475V31.9452H29.0706V33.3475H29.0707ZM35.3274 31.782C35.3274 31.865 35.2598 31.9326 35.1767 31.9326H30.1839C30.2034 31.3323 29.7127 30.8322 29.1136 30.832H24.5599C23.9607 30.831 23.4715 31.3326 23.4896 31.9326H18.4968C18.4137 31.9326 18.3461 31.865 18.3461 31.782V30.1647C18.3461 30.0812 18.4137 30.0133 18.4968 30.0133H35.1766C35.2597 30.0133 35.3273 30.0812 35.3273 30.1647V31.782H35.3274ZM14.8938 29.5762C14.5864 29.5762 14.3371 29.8254 14.3371 30.1328C14.3371 30.4402 14.5864 30.6895 14.8938 30.6895C15.2012 30.6895 15.4504 30.4402 15.4504 30.1328C15.4504 29.8254 15.2013 29.5762 14.8938 29.5762ZM11.6467 11.6959C11.3392 11.6959 11.0901 11.9451 11.0901 12.2526V13.3986C11.0901 13.7061 11.3392 13.9553 11.6467 13.9553C11.9542 13.9553 12.2033 13.7061 12.2033 13.3986V12.2526C12.2033 11.9451 11.9541 11.6959 11.6467 11.6959ZM14.8938 27.3496C14.5864 27.3496 14.3371 27.5988 14.3371 27.9062C14.3371 28.2137 14.5864 28.4629 14.8938 28.4629C15.2012 28.4629 15.4504 28.2137 15.4504 27.9062C15.4504 27.5988 15.2013 27.3496 14.8938 27.3496ZM16.3521 16.4536C16.1747 16.2025 15.8274 16.1428 15.5763 16.3203C15.4535 16.407 15.1934 16.5504 14.8515 16.5384C14.5469 16.5275 14.3199 16.3973 14.2117 16.3206C13.9608 16.1428 13.6134 16.2022 13.4357 16.4531C13.2581 16.704 13.3174 17.0514 13.5682 17.2291C13.8129 17.4024 14.342 17.6523 14.8933 17.6523C15.5236 17.6523 15.9913 17.3903 16.2188 17.2294C16.47 17.052 16.5296 16.7046 16.3521 16.4536Z" fill="white"/>
</svg>
