<svg width="38" height="38" viewBox="0 0 38 38" fill="none" xmlns="http://www.w3.org/2000/svg">
<path d="M18.4434 4.45312H1.11328V3.33984H0V5.56641H18.4434V4.45312Z" fill="white"/>
<path d="M0 0V2.22664H1.11328V1.11328H36.8867V4.45312H19.5566V5.56641H38V0H0Z" fill="white"/>
<path d="M2.22656 6.67969H35.7734V7.79297H2.22656V6.67969Z" fill="white"/>
<path d="M15.1035 29.0938H16.2168V33.5468H15.1035V29.0938Z" fill="white"/>
<path d="M16.2168 15.8545V15.2979V13.0713H4.45312V15.2979H3.33984V30.9949C2.72598 30.9949 2.22656 30.4955 2.22656 29.8816V19.7508C2.22656 18.523 1.22773 17.5242 0 17.5242V18.6375C0.613863 18.6375 1.11328 19.1369 1.11328 19.7508V29.8816C1.11328 31.1093 2.11212 32.1082 3.33984 32.1082V33.5465H4.45312V16.4111H9.77832V15.2979H5.56641V14.1846H15.1035V15.2979H10.8916V16.4111H15.1035V27.9802H16.2168V15.8545Z" fill="white"/>
<path d="M13.9903 17.5244H5.56641V23.5497H13.9903V17.5244ZM12.877 22.4364H6.67969V18.6377H12.877V22.4364Z" fill="white"/>
<path d="M8.1084 24.6636H9.22168V25.7769H8.1084V24.6636Z" fill="white"/>
<path d="M10.335 24.6636H11.4482V25.7769H10.335V24.6636Z" fill="white"/>
<path d="M5.56641 32.4336H6.67969V33.5469H5.56641V32.4336Z" fill="white"/>
<path d="M10.6504 19.751H11.7637V20.8643H10.6504V19.751Z" fill="white"/>
<path d="M34.6602 34.6602H21.7832V36.8867H20.6699V8.90625H19.5566V36.8867H18.4434V8.90625H17.3301V36.8867H16.2168V34.6602H3.33984V36.8867H0V38H38V36.8867H34.6602V34.6602ZM22.8965 35.7734H33.5469V36.8867H22.8965V35.7734ZM4.45312 35.7734H15.1035V36.8867H4.45312V35.7734Z" fill="white"/>
<path d="M21.7832 29.0938H22.8965V33.5468H21.7832V29.0938Z" fill="white"/>
<path d="M35.7734 19.7508V29.8816C35.7734 30.4955 35.274 30.9949 34.6602 30.9949V15.2979H33.5469V13.0713H21.7832V15.2979V15.8545V27.9802H22.8965V16.4111H27.1084V15.2979H22.8965V14.1846H32.4336V15.2979H28.2217V16.4111H33.5469V33.5465H34.6602V32.1082C35.8879 32.1082 36.8867 31.1093 36.8867 29.8816V19.7508C36.8867 19.1369 37.3861 18.6375 38 18.6375V17.5242C36.7723 17.5243 35.7734 18.5231 35.7734 19.7508Z" fill="white"/>
<path d="M32.4335 17.5244H24.0096V23.5497H32.4335V17.5244ZM31.3203 22.4364H25.1229V18.6377H31.3203V22.4364Z" fill="white"/>
<path d="M28.7783 24.6636H29.8916V25.7769H28.7783V24.6636Z" fill="white"/>
<path d="M26.5518 24.6636H27.665V25.7769H26.5518V24.6636Z" fill="white"/>
<path d="M31.3203 32.4336H32.4336V33.5469H31.3203V32.4336Z" fill="white"/>
<path d="M26.2363 19.751H27.3496V20.8643H26.2363V19.751Z" fill="white"/>
<path d="M32.4336 2.22656H35.7734V3.33984H32.4336V2.22656Z" fill="white"/>
<path d="M30.207 2.22656H31.3203V3.33984H30.207V2.22656Z" fill="white"/>
</svg>
