<svg width="38" height="30" viewBox="0 0 38 30" fill="none" xmlns="http://www.w3.org/2000/svg">
<path d="M36.6936 24.3401H33.8014V22.3477C33.8014 22.0403 33.5523 21.7911 33.2448 21.7911H30.8026V20.3552H33.2448C33.5523 20.3552 33.8014 20.106 33.8014 19.7986C33.8014 12.3347 28.2479 6.14449 21.056 5.1406V3.78619H21.4365C22.4669 3.78619 23.3052 2.94796 23.3052 1.91751C23.3052 0.887055 22.4669 0.0488281 21.4365 0.0488281H16.5633C15.5329 0.0488281 14.6946 0.887055 14.6946 1.91751C14.6946 2.94796 15.5329 3.78619 16.5633 3.78619H16.9438V5.1406C9.75205 6.14456 4.19841 12.3347 4.19841 19.7986C4.19841 20.106 4.44756 20.3552 4.75505 20.3552H7.19729V21.7911H4.75512C4.44763 21.7911 4.19848 22.0403 4.19848 22.3477V24.3401H1.3064C0.586031 24.3401 0 24.9261 0 25.6465V28.6455C0 29.3658 0.586031 29.9519 1.3064 29.9519H36.6937C37.414 29.9519 38.0001 29.3658 38.0001 28.6455V25.6465C38 24.9261 37.414 24.3401 36.6936 24.3401ZM15.808 1.91758C15.808 1.50107 16.1468 1.16218 16.5634 1.16218H21.4366C21.8531 1.16218 22.192 1.50107 22.192 1.91758C22.192 2.3341 21.8532 2.67298 21.4366 2.67298H16.5634C16.1469 2.67291 15.808 2.33402 15.808 1.91758ZM18.0572 3.78619H19.9428V5.02802C19.6309 5.00827 19.3168 4.99714 19 4.99714C18.6832 4.99714 18.3691 5.00835 18.0572 5.02802V3.78619ZM5.31176 22.9043H10.0195C10.327 22.9043 10.5762 22.6551 10.5762 22.3477C10.5762 22.0403 10.327 21.7911 10.0195 21.7911H8.31072V20.3552H26.1913C26.4988 20.3552 26.7479 20.106 26.7479 19.7986C26.7479 19.4912 26.4988 19.2419 26.1913 19.2419H5.32297C5.61621 11.9515 11.6388 6.11042 19 6.11042C26.3612 6.11042 32.3838 11.9515 32.677 19.242H28.7915C28.484 19.242 28.2349 19.4912 28.2349 19.7987C28.2349 20.1061 28.484 20.3553 28.7915 20.3553H29.6893V21.7911H12.6187C12.3113 21.7911 12.0621 22.0404 12.0621 22.3478C12.0621 22.6552 12.3113 22.9044 12.6187 22.9044H32.6882V24.3402H5.31176V22.9043ZM36.8867 28.6455C36.8867 28.752 36.8001 28.8386 36.6936 28.8386H1.3064C1.19989 28.8386 1.11328 28.752 1.11328 28.6455V25.6465C1.11328 25.54 1.19989 25.4534 1.3064 25.4534H36.6937C36.8002 25.4534 36.8868 25.54 36.8868 25.6465V28.6455H36.8867Z" fill="white"/>
</svg>
