<svg width="38" height="36" viewBox="0 0 38 36" fill="none" xmlns="http://www.w3.org/2000/svg">
<path d="M28.6027 6.63109C28.9101 6.63109 29.1593 6.38193 29.1593 6.07445V5.32617C29.1593 5.01868 28.9101 4.76953 28.6027 4.76953C28.2952 4.76953 28.046 5.01868 28.046 5.32617V6.07445C28.046 6.38186 28.2952 6.63109 28.6027 6.63109Z" fill="white"/>
<path d="M34.6582 11.5737C34.3507 11.5737 34.1016 11.8229 34.1016 12.1304C34.1016 12.4379 34.3507 12.687 34.6582 12.687H35.4064C35.7139 12.687 35.963 12.4379 35.963 12.1304C35.963 11.8229 35.7139 11.5737 35.4064 11.5737H34.6582Z" fill="white"/>
<path d="M21.798 11.5737C21.4905 11.5737 21.2413 11.8229 21.2413 12.1304C21.2413 12.4379 21.4905 12.687 21.798 12.687H22.5462C22.8537 12.687 23.1029 12.4379 23.1029 12.1304C23.1029 11.8229 22.8537 11.5737 22.5462 11.5737H21.798Z" fill="white"/>
<path d="M31.0438 29.354C30.0552 29.354 29.2509 30.1583 29.2509 31.1468C29.2509 32.1354 30.0552 32.9397 31.0438 32.9397C32.0323 32.9397 32.8366 32.1354 32.8366 31.1468C32.8366 30.1583 32.0323 29.354 31.0438 29.354ZM31.0438 31.8264C30.669 31.8264 30.3641 31.5216 30.3641 31.1468C30.3641 30.7721 30.669 30.4673 31.0438 30.4673C31.4185 30.4673 31.7233 30.7721 31.7233 31.1468C31.7233 31.5216 31.4185 31.8264 31.0438 31.8264Z" fill="white"/>
<path d="M10.7191 31.1468C10.7191 32.1354 11.5234 32.9397 12.512 32.9397C13.5006 32.9397 14.3048 32.1354 14.3048 31.1468C14.3048 30.1583 13.5006 29.354 12.512 29.354C11.5234 29.354 10.7191 30.1582 10.7191 31.1468ZM13.1916 31.1468C13.1916 31.5216 12.8867 31.8264 12.512 31.8264C12.1373 31.8264 11.8324 31.5216 11.8324 31.1468C11.8324 30.7721 12.1373 30.4673 12.512 30.4673C12.8867 30.4673 13.1916 30.7721 13.1916 31.1468Z" fill="white"/>
<path d="M16.2911 22.6037C16.9195 21.9921 16.9919 20.9281 16.2781 20.2334L13.9644 17.9813C13.1297 17.1692 11.7899 17.1871 10.9775 18.0217L10.5442 18.4668C10.3298 18.6872 10.3346 19.0396 10.5549 19.2539L12.7851 21.4248L10.5549 23.5956C10.4491 23.6986 10.3885 23.8394 10.3865 23.9869C10.3845 24.1345 10.4413 24.2769 10.5442 24.3827L10.9775 24.8279C11.7925 25.6651 13.1295 25.681 13.9644 24.8682L16.2911 22.6037ZM11.7753 24.0515L11.7303 24.0052L13.9714 21.8237C14.0791 21.719 14.1398 21.5751 14.1398 21.4249C14.1398 21.2747 14.0791 21.1307 13.9714 21.026L11.7303 18.8444L11.7753 18.7982C12.1596 18.4034 12.7932 18.3949 13.1879 18.7791L15.5016 21.0312C15.7485 21.2715 15.7155 21.6103 15.5146 21.8059L13.1879 24.0706C12.7951 24.4529 12.1627 24.4495 11.7753 24.0515Z" fill="white"/>
<path d="M28.046 12.1305C28.046 12.438 28.2952 12.6872 28.6027 12.6872H30.4957C30.8032 12.6872 31.0523 12.438 31.0523 12.1305C31.0523 11.823 30.8032 11.5739 30.4957 11.5739H29.1593V8.10742C29.1593 7.79993 28.9101 7.55078 28.6027 7.55078C28.2952 7.55078 28.046 7.79993 28.046 8.10742V12.1305Z" fill="white"/>
<path d="M9.50891 7.37354H19.0936C19.4011 7.37354 19.6502 7.12438 19.6502 6.81689C19.6502 6.50941 19.4011 6.26025 19.0936 6.26025H9.50891C9.2015 6.26025 8.95227 6.50941 8.95227 6.81689C8.95227 7.12438 9.2015 7.37354 9.50891 7.37354Z" fill="white"/>
<path d="M7.1853 10.249H17.1345C17.4419 10.249 17.6911 9.99987 17.6911 9.69238C17.6911 9.38489 17.4419 9.13574 17.1345 9.13574H7.1853C6.87789 9.13574 6.62866 9.38489 6.62866 9.69238C6.62866 9.99987 6.87789 10.249 7.1853 10.249Z" fill="white"/>
<path d="M12.8777 11.7002C12.5703 11.7002 12.321 11.9493 12.321 12.2568C12.321 12.5643 12.5703 12.8135 12.8777 12.8135H17.8284C18.1359 12.8135 18.3851 12.5643 18.3851 12.2568C18.3851 11.9493 18.1359 11.7002 17.8284 11.7002H12.8777Z" fill="white"/>
<path d="M8.18408 11.7002C7.87667 11.7002 7.62744 11.9493 7.62744 12.2568C7.62744 12.5643 7.87667 12.8135 8.18408 12.8135H10.655C10.9624 12.8135 11.2116 12.5643 11.2116 12.2568C11.2116 11.9493 10.9624 11.7002 10.655 11.7002H8.18408Z" fill="white"/>
<path d="M0.556641 20.4795H2.59246C2.89987 20.4795 3.1491 20.2303 3.1491 19.9229C3.1491 19.6154 2.89987 19.3662 2.59246 19.3662H0.556641C0.249227 19.3662 0 19.6154 0 19.9229C0 20.2303 0.249227 20.4795 0.556641 20.4795Z" fill="white"/>
<path d="M2.04102 25.3828H0.556641C0.249227 25.3828 0 25.632 0 25.9395C0 26.2469 0.249227 26.4961 0.556641 26.4961H2.04102C2.34843 26.4961 2.59766 26.2469 2.59766 25.9395C2.59766 25.632 2.34843 25.3828 2.04102 25.3828Z" fill="white"/>
<path d="M8.58921 20.6685H6.604C6.29659 20.6685 6.04736 20.9176 6.04736 21.2251C6.04736 21.5326 6.29659 21.7817 6.604 21.7817H8.58921C8.89662 21.7817 9.14585 21.5326 9.14585 21.2251C9.14585 20.9176 8.89662 20.6685 8.58921 20.6685Z" fill="white"/>
<path d="M33.8444 19.9299C36.4235 18.1923 38 15.2642 38 12.1304C38 10.641 37.6612 9.21579 36.9929 7.89462C36.8541 7.62031 36.5192 7.51039 36.2449 7.6491C35.9706 7.78782 35.8606 8.12277 35.9994 8.397C36.5881 9.56105 36.8867 10.8172 36.8867 12.1304C36.8867 14.9488 35.4399 17.5783 33.0839 19.0976L29.8431 15.5513C29.4667 15.1393 28.9306 14.903 28.3726 14.903H20.7944C20.4785 14.0148 20.3183 13.0838 20.3183 12.1304C20.3183 7.56249 24.0346 3.84628 28.6025 3.84628C30.972 3.84628 33.2331 4.86486 34.8059 6.64084C35.0096 6.87092 35.3614 6.89244 35.5917 6.68849C35.8218 6.48468 35.8432 6.13289 35.6393 5.90274C34.8216 4.97931 33.8394 4.23712 32.7568 3.70326V1.81803C32.7568 1.13299 32.1995 0.575684 31.5145 0.575684H25.6906C25.0056 0.575684 24.4482 1.13299 24.4482 1.81803V3.70274C21.3445 5.23892 19.205 8.43924 19.205 12.1304C19.205 13.0792 19.3454 14.0085 19.6219 14.903H5.42747C4.71742 14.903 4.13413 15.4519 4.07721 16.1477H2.04102C1.7336 16.1477 1.48438 16.3968 1.48438 16.7043C1.48438 17.0118 1.7336 17.261 2.04102 17.261H4.07157V22.6412H0.556641C0.249227 22.6412 0 22.8904 0 23.1979C0 23.5053 0.249227 23.7545 0.556641 23.7545H4.07157V25.3826C3.7666 25.3855 3.52012 25.6333 3.52012 25.939C3.52012 26.2446 3.76653 26.4925 4.07157 26.4953V30.4328C4.07157 31.0172 4.54701 31.4925 5.13134 31.4925H6.629V31.88H4.89228C4.58486 31.88 4.33564 32.1292 4.33564 32.4367C4.33564 32.7442 4.58486 32.9933 4.89228 32.9933H7.18564C7.49305 32.9933 7.74228 32.7442 7.74228 32.4367V31.4925H8.25016C8.4268 33.6897 10.27 35.4239 12.5119 35.4239C13.2517 35.4239 13.982 35.2309 14.6238 34.8657C14.891 34.7136 14.9842 34.3738 14.8322 34.1066C14.6802 33.8393 14.3405 33.7462 14.0731 33.8981C13.5989 34.168 13.0589 34.3106 12.5119 34.3106C10.7675 34.3106 9.3483 32.8915 9.3483 31.1471C9.3483 29.4026 10.7675 27.9835 12.5119 27.9835C14.2562 27.9835 15.6754 29.4026 15.6754 31.1471C15.6754 31.6227 15.5724 32.0801 15.369 32.5066C15.2367 32.7841 15.3544 33.1163 15.6319 33.2486C15.9095 33.3808 16.2416 33.2631 16.3739 32.9857C16.5995 32.5126 16.7322 32.0116 16.7734 31.4925H26.7821C26.9588 33.6897 28.802 35.4239 31.0438 35.4239C33.2857 35.4239 35.1288 33.6897 35.3056 31.4925H36.4514C37.3053 31.4925 38 30.7979 38 29.944V25.2482C38 24.7508 37.8153 24.2747 37.4797 23.9076L33.8444 19.9299ZM25.5615 1.81803C25.5615 1.74686 25.6194 1.68896 25.6906 1.68896H31.5145C31.5856 1.68896 31.6435 1.74686 31.6435 1.81803V3.24051C30.6742 2.90853 29.6478 2.73307 28.6025 2.73307C27.5387 2.73307 26.5158 2.91105 25.5615 3.23828V1.81803H25.5615ZM29.0214 16.3024L34.8142 22.6412H30.6618C30.3544 22.6412 30.1052 22.8904 30.1052 23.1979C30.1052 23.5053 30.3544 23.7545 30.6618 23.7545H35.8316L36.658 24.6589C36.9949 25.0276 36.8533 25.4277 36.8867 25.8523H36.4576C36.1501 25.8523 35.9009 26.1014 35.9009 26.4089C35.9009 26.7164 36.1501 26.9656 36.4576 26.9656H36.8867V27.7893H33.6878C32.9596 27.2146 32.0414 26.8704 31.0439 26.8704C30.0464 26.8704 29.1283 27.2146 28.4 27.7893H22.3351V16.0164H24.7358V22.6342C24.7358 23.252 25.2384 23.7546 25.8561 23.7546H28.4365C28.744 23.7546 28.9931 23.5054 28.9931 23.1979C28.9931 22.8904 28.744 22.6413 28.4365 22.6413H25.8561C25.8522 22.6413 25.8491 22.6381 25.8491 22.6342V16.0164H28.3727C28.6187 16.0164 28.8553 16.1207 29.0214 16.3024ZM26.8374 30.3794H22.3349V28.9025H27.4054C27.1299 29.3474 26.9344 29.8464 26.8374 30.3794ZM16.1502 28.9025H21.2217V30.3794H16.7183C16.6212 29.8464 16.4257 29.3474 16.1502 28.9025ZM5.18485 28.9025H8.87337C8.59787 29.3474 8.40238 29.8464 8.3053 30.3794H5.18485V28.9025ZM9.8679 27.7893H5.18485V26.4957H7.59696C7.90437 26.4957 8.1536 26.2465 8.1536 25.9391C8.1536 25.6316 7.90437 25.3824 7.59696 25.3824H5.18485V23.7545H7.59696C7.90437 23.7545 8.1536 23.5053 8.1536 23.1979C8.1536 22.8904 7.90437 22.6412 7.59696 22.6412H5.18485V16.259C5.18485 16.1252 5.29365 16.0163 5.42747 16.0163H21.2217V27.7892H15.1558C14.4275 27.2145 13.5094 26.8703 12.5119 26.8703C11.5144 26.8703 10.5962 27.2146 9.8679 27.7893ZM31.0438 34.3108C29.2994 34.3108 27.8803 32.8916 27.8803 31.1472C27.8803 29.4028 29.2994 27.9836 31.0438 27.9836C32.7883 27.9836 34.2074 29.4028 34.2074 31.1472C34.2074 32.8916 32.7883 34.3108 31.0438 34.3108ZM36.4514 30.3794H35.2503C35.1532 29.8464 34.9577 29.3474 34.6822 28.9025H36.8867V29.9441C36.8867 30.1841 36.6914 30.3794 36.4514 30.3794Z" fill="white"/>
</svg>
