<svg width="92" height="94" viewBox="0 0 92 94" fill="none" xmlns="http://www.w3.org/2000/svg">
<path d="M45.8036 34.521C46.5642 34.521 47.1806 33.9046 47.1806 33.144V30.3089C47.1806 29.5483 46.5642 28.932 45.8036 28.932C45.043 28.932 44.4267 29.5483 44.4267 30.3089V33.144C44.4267 33.9046 45.043 34.521 45.8036 34.521ZM37.7712 78.6699C37.0108 78.6699 36.3943 79.2864 36.3943 80.0469C36.3943 80.8073 37.0108 81.4238 37.7712 81.4238C38.5317 81.4238 39.1482 80.8073 39.1482 80.0469C39.1482 79.2864 38.5318 78.6699 37.7712 78.6699ZM87.9448 71.4896H87.28C87.0786 68.2592 86.1015 65.1268 84.4205 62.362C84.0255 61.7119 83.1782 61.5057 82.5286 61.9008C81.8789 62.2957 81.6723 63.1428 82.0674 63.7928C83.4861 66.1261 84.3243 68.7647 84.5215 71.4896H50.1072C50.7509 62.5588 58.2226 55.4896 67.3144 55.4896C71.2752 55.4896 75 56.7947 78.0856 59.2644C78.6798 59.7399 79.5459 59.6436 80.0211 59.0498C80.4962 58.4561 80.4 57.5895 79.8065 57.1144C77.7287 55.4516 75.3349 54.2329 72.7941 53.5084C72.8898 53.0942 72.9413 52.6686 72.9413 52.2383C72.9413 49.1345 70.4169 46.6093 67.3142 46.6093C64.2115 46.6093 61.6872 49.1345 61.6872 52.2383C61.6872 52.6657 61.7381 53.088 61.8325 53.4994C59.8753 54.0577 58.0411 54.9089 56.3773 55.9996L49.3036 53.6242C48.31 53.2908 47.6425 52.3648 47.6425 51.3201V50.1707C53.105 46.8399 56.7587 40.8335 56.7587 33.9913V32.4436C59.3172 32.3575 61.3725 30.2504 61.3725 27.6712C61.3725 25.0921 59.3172 22.985 56.7587 22.8989V9.50061C56.7587 4.26195 52.4883 0 47.2393 0H28.3031C23.0541 0 18.7838 4.26195 18.7838 9.50061V22.8987C16.2252 22.9848 14.1699 25.0919 14.1699 27.6711C14.1699 30.2502 16.2252 32.3573 18.7838 32.4434V33.9909C18.7838 40.8335 22.4376 46.8399 27.9003 50.1707V51.32C27.9003 52.3644 27.2327 53.2905 26.2391 53.6241L9.66686 59.1888C4.44031 60.9425 0.928711 65.8187 0.928711 71.3227V92.623C0.928711 93.3837 1.54504 94 2.30566 94C3.06629 94 3.68262 93.3837 3.68262 92.623V71.3225C3.68262 67.0035 6.43964 63.1763 10.5431 61.7995L13.2025 60.9065C14.4113 62.7419 16.1888 66.2627 15.8962 70.7822C15.6717 74.2626 14.3158 76.9496 13.2198 78.588C12.6569 79.425 12.3591 80.3999 12.3591 81.4073V92.623C12.3591 93.3837 12.9754 94 13.736 94C14.4967 94 15.113 93.3837 15.113 92.623V81.4073C15.113 80.9494 15.2483 80.506 15.5066 80.1221C16.7925 78.2001 18.3804 75.0504 18.6444 70.9597C18.9571 66.1303 17.2619 62.2785 15.8881 60.005L18.7346 59.0494C22.019 69.6261 28.1278 79.099 36.3943 86.4574V92.623C36.3943 93.3837 37.0106 94 37.7712 94C38.5318 94 39.1482 93.3837 39.1482 92.623V86.4556C41.0786 84.736 42.9039 82.8887 44.5985 80.9413C45.1524 81.4393 45.8824 81.7451 46.6839 81.7451H59.0345V82.4912C59.0345 83.7755 59.5706 84.9362 60.4296 85.764V92.623C60.4296 93.3837 61.0459 94 61.8066 94C62.5672 94 63.1835 93.3837 63.1835 92.623V87.0201C63.7853 87.0781 71.5962 87.0122 71.8603 86.9643V92.623C71.8603 93.3837 72.4767 94 73.2373 94C73.9979 94 74.6143 93.3837 74.6143 92.623V85.3065C75.2271 84.5315 75.5945 83.5539 75.5945 82.4914V81.7453H87.945C89.6691 81.7453 91.0716 80.3426 91.0716 78.6187V74.6182C91.0714 72.893 89.6688 71.4896 87.9448 71.4896ZM67.3144 49.3629C68.8988 49.3629 70.1876 50.6526 70.1876 52.2379C70.1876 52.4751 70.1571 52.709 70.1006 52.9358C69.1802 52.8056 68.2496 52.7355 67.3142 52.7355C66.3683 52.7355 65.438 52.803 64.5269 52.9306C64.4712 52.7055 64.4411 52.4735 64.4411 52.2379C64.4411 50.6528 65.7301 49.3629 67.3144 49.3629ZM56.7587 25.6548C57.7982 25.7378 58.6186 26.6104 58.6186 27.6709C58.6186 28.7313 57.7982 29.6039 56.7587 29.6869V25.6548ZM18.7839 29.6871C17.7444 29.6041 16.924 28.7315 16.924 27.6711C16.924 26.6106 17.7444 25.738 18.7839 25.655V29.6871ZM21.5378 33.9909V21.7353C23.5588 21.3666 25.5066 20.7149 27.3433 19.7916C28.9475 18.9849 30.4453 17.9795 31.8024 16.7985C33.8394 18.0364 35.9979 19.0796 38.2252 19.9021C38.939 20.1656 39.7305 19.801 39.994 19.0875C40.2576 18.3741 39.8928 17.5822 39.1794 17.3188C36.9777 16.5054 34.8486 15.4595 32.8514 14.2098C32.0524 13.7093 31.0091 13.8024 30.3147 14.4356C29.0483 15.5893 27.6324 16.5635 26.106 17.3307C24.6551 18.0603 23.1239 18.5946 21.5377 18.9278V9.50024C21.5377 5.78008 24.5725 2.75354 28.3031 2.75354H47.2393C50.9698 2.75354 54.0047 5.78008 54.0047 9.50024V19.3111C51.0566 19.5628 48.098 19.4371 45.1926 18.9344C44.4437 18.8057 43.7308 19.3073 43.601 20.0565C43.4716 20.8059 43.9739 21.5185 44.7232 21.6481C47.7842 22.1774 50.8993 22.3202 54.0047 22.0746V33.9905C54.0047 42.9194 46.7225 50.1835 37.7714 50.1835C28.8201 50.1841 21.5378 42.9198 21.5378 33.9909ZM42.0965 60.1997L44.6716 59.3619V63.6463L42.0965 62.8085C42.2213 62.3953 42.2893 61.9576 42.2893 61.5043C42.2893 61.051 42.2213 60.6127 42.0965 60.1997ZM40.4219 57.8486C39.6767 57.3068 38.7611 56.986 37.7714 56.986C36.7816 56.986 35.8661 57.3068 35.1208 57.8486L30.8604 56.4622C30.5147 56.3499 30.1499 56.3346 29.8014 56.4044L28.7369 55.3399C29.8668 54.4223 30.5782 53.0551 30.6452 51.552C32.8469 52.4448 35.2523 52.9382 37.7714 52.9382C40.2905 52.9382 42.6961 52.4448 44.8978 51.552C44.9646 53.0516 45.6729 54.4161 46.7983 55.3337L45.73 56.402C45.385 56.335 45.0246 56.3512 44.683 56.4622L40.4219 57.8486ZM39.5354 61.5039C39.5354 62.4766 38.7439 63.2679 37.7714 63.2679C36.7985 63.2679 36.0072 62.4764 36.0072 61.5039C36.0072 60.5314 36.7987 59.7399 37.7714 59.7399C38.7441 59.7399 39.5354 60.5312 39.5354 61.5039ZM33.4459 62.8083L30.8708 63.6463V59.3615L33.4459 60.1995C33.3211 60.6127 33.2531 61.0504 33.2531 61.5039C33.2531 61.9574 33.3211 62.3951 33.4459 62.8083ZM43.5573 74.618V77.9093C41.7844 80.0656 39.8443 82.1077 37.7703 83.9938C30.092 77.0139 24.419 68.1012 21.3456 58.1724L26.0838 56.5814L28.1171 58.6147V64.5536C28.1171 65.222 28.4402 65.8558 28.9813 66.2485C29.5236 66.6423 30.2273 66.7518 30.86 66.5458L35.1207 65.1594C35.8659 65.7012 36.7816 66.022 37.7712 66.022C38.7608 66.022 39.6767 65.7012 40.4217 65.1594L44.6822 66.5459C45.3149 66.7516 46.0188 66.6425 46.5611 66.2487C47.1022 65.8558 47.4253 65.2222 47.4253 64.5538V58.6013L49.4485 56.5781L53.7736 58.0305C50.0898 61.4244 47.6781 66.1791 47.3484 71.4896H46.6838C44.96 71.4896 43.5573 72.893 43.5573 74.618ZM72.8404 82.4912C72.8404 83.4803 72.0359 84.2848 71.0468 84.2848H63.5817C62.5927 84.2848 61.7882 83.4803 61.7882 82.4912V79.0224H72.8402V82.4912H72.8404ZM88.3175 78.6185C88.3175 78.824 88.1503 78.9912 87.9448 78.9912H75.5943C75.6424 77.5063 74.4286 76.2691 72.9467 76.2685H61.6821C60.1999 76.2661 58.9897 77.507 59.0345 78.9912H46.6839C46.4785 78.9912 46.3113 78.824 46.3113 78.6185V74.618C46.3113 74.4115 46.4785 74.2435 46.6839 74.2435H87.9446C88.1501 74.2435 88.3173 74.4115 88.3173 74.618V78.6185H88.3175ZM37.7712 73.1621C37.0108 73.1621 36.3943 73.7786 36.3943 74.5391C36.3943 75.2995 37.0108 75.916 37.7712 75.916C38.5317 75.916 39.1482 75.2995 39.1482 74.5391C39.1482 73.7786 38.5318 73.1621 37.7712 73.1621ZM29.739 28.932C28.9783 28.932 28.362 29.5483 28.362 30.3089V33.144C28.362 33.9046 28.9783 34.521 29.739 34.521C30.4996 34.521 31.1159 33.9046 31.1159 33.144V30.3089C31.1159 29.5483 30.4994 28.932 29.739 28.932ZM37.7712 67.6543C37.0108 67.6543 36.3943 68.2708 36.3943 69.0312C36.3943 69.7917 37.0108 70.4082 37.7712 70.4082C38.5317 70.4082 39.1482 69.7917 39.1482 69.0312C39.1482 68.2708 38.5318 67.6543 37.7712 67.6543ZM41.3786 40.7009C40.9398 40.08 40.0806 39.9322 39.4595 40.3713C39.1559 40.5858 38.5124 40.9405 37.6667 40.9107C36.9133 40.8838 36.3517 40.5617 36.084 40.3721C35.4632 39.9322 34.604 40.0793 34.1645 40.6998C33.725 41.3203 33.8717 42.1797 34.4922 42.6193C35.0975 43.0481 36.4064 43.6663 37.7701 43.6663C39.3292 43.6663 40.4862 43.018 41.0489 42.62C41.6702 42.1812 41.8178 41.3218 41.3786 40.7009Z" fill="white"/>
</svg>
