<svg width="69" height="94" viewBox="0 0 69 94" fill="none" xmlns="http://www.w3.org/2000/svg">
<path d="M38.1593 43.7322C38.8262 43.3665 39.0702 42.5295 38.7046 41.8626C38.3391 41.196 37.5023 40.9518 36.8351 41.3173C36.3258 41.5966 35.4968 41.926 34.4492 41.9164C33.4446 41.9058 32.6525 41.5849 32.1651 41.3173C31.4981 40.9514 30.6612 41.1956 30.2955 41.8624C29.9298 42.5293 30.1738 43.3661 30.8406 43.732C31.6044 44.151 32.8453 44.6539 34.4204 44.6702C36.0057 44.6869 37.3763 44.1616 38.1593 43.7322ZM65.8227 61.7689C64.0593 59.5754 61.5739 58.0345 58.8247 57.4301L45.2982 54.4574C44.2541 54.2287 43.4963 53.2865 43.4963 52.2168V50.444C48.2457 47.4473 51.4074 42.154 51.4074 36.1353V34.6531H51.938C54.7186 34.6531 56.9807 32.391 56.9807 29.6106C56.9807 27.0937 55.1269 25.0018 52.7131 24.6278C53.3566 23.7959 54.1439 22.5013 55.0518 20.9066C56.2531 18.7967 57.0055 16.7567 57.3517 14.6705C58.1359 9.94821 57.1993 4.92332 54.8465 1.22915C54.1 0.0565163 52.5582 -0.343176 51.3367 0.319612C45.99 3.22027 40.8087 4.48765 35.9343 4.08704C34.2845 3.95136 32.7232 3.633 31.2135 3.32529C27.6322 2.59549 24.2496 1.9059 20.9827 4.00607C18.3398 5.70508 17.2239 8.27839 16.6244 9.6607C14.0792 15.5299 15.8047 21.4144 17.1626 24.5679H17.0621C14.2815 24.5679 12.0196 26.83 12.0196 29.6104C12.0196 32.3908 14.2817 34.6529 17.0621 34.6529H17.5927V36.1351C17.5927 42.1538 20.7545 47.4471 25.5038 50.4438V52.2168C25.5038 53.2865 24.7461 54.2287 23.7008 54.4576L10.1752 57.4301C7.42601 58.0345 4.94083 59.5754 3.17738 61.7689C1.41392 63.9623 0.442688 66.7207 0.442688 69.5356V92.623C0.442688 93.3835 1.05921 94 1.81967 94C2.58013 94 3.19665 93.3835 3.19665 92.623V85.8143H14.2125V92.623C14.2125 93.3835 14.829 94 15.5895 94C16.35 94 16.9665 93.3835 16.9665 92.623V81.016C16.9665 80.2555 16.35 79.639 15.5895 79.639C14.829 79.639 14.2125 80.2555 14.2125 81.016V83.0603H3.19665V69.5356C3.19665 65.0441 6.38024 61.084 10.7664 60.1198L14.2243 59.3599L20.4021 74.5476C20.2031 74.9653 20.0886 75.4304 20.0886 75.923V90.7868C20.0886 92.5584 21.53 93.9998 23.3015 93.9998H45.6984C47.47 93.9998 48.9114 92.5584 48.9114 90.7868V75.9231C48.9114 75.4305 48.7966 74.9655 48.5978 74.5478L54.7759 59.3599L58.2337 60.1198C62.6201 61.0839 65.8035 65.0439 65.8035 69.5356V73.7192C65.8035 74.4797 66.4198 75.0962 67.1805 75.0962C67.9411 75.0962 68.5574 74.4797 68.5574 73.7192V69.5356C68.5574 66.7205 67.586 63.9623 65.8227 61.7689ZM54.2265 29.6104C54.2265 30.8725 53.1999 31.899 51.9378 31.899H51.4072V27.3217H51.9378C53.1999 27.3219 54.2265 28.3486 54.2265 29.6104ZM17.5927 31.899H17.0621C15.8001 31.899 14.7736 30.8723 14.7736 29.6104C14.7736 28.3486 15.8003 27.3219 17.0621 27.3219H17.5927V31.899ZM19.1509 10.7564C19.6679 9.56431 20.5332 7.56897 22.4718 6.32252C24.7969 4.82804 27.3855 5.3557 30.6634 6.02381C32.2523 6.34768 33.8953 6.68256 35.7087 6.83164C41.1 7.27484 46.773 5.91292 52.5707 2.78313C54.5337 5.91383 55.3055 10.181 54.6349 14.2194C54.3426 15.9796 53.6961 17.7214 52.6581 19.5443C51.6659 21.2867 50.8384 22.5821 50.3926 23.1333C49.1581 21.3445 47.675 20.1834 45.9679 19.6763C44.1055 19.1231 42.7078 19.5669 41.3563 19.9965C40.3392 20.3196 39.2883 20.6507 37.8469 20.6459C35.9308 20.6395 34.8693 20.0661 33.6401 19.402C32.5385 18.807 31.29 18.1324 29.4803 17.9907C26.2393 17.7359 22.8512 19.3346 19.3903 22.7444C18.2866 19.8998 17.1912 15.2755 19.1509 10.7564ZM20.3467 36.1351V25.7182C23.5749 22.201 26.574 20.5255 29.2655 20.736C30.4941 20.8323 31.3457 21.2923 32.3316 21.8248C33.7097 22.5693 35.262 23.3999 37.8783 23.3997C39.7399 23.3997 41.098 22.9682 42.1906 22.621C43.3605 22.2494 44.1331 22.0042 45.1842 22.3161C46.4985 22.7066 47.6648 23.7907 48.6534 25.5408V36.1351C48.6534 43.9393 42.3042 50.2885 34.5001 50.2885C26.6959 50.2885 20.3467 43.9393 20.3467 36.1351ZM46.1574 90.787C46.1574 91.04 45.9516 91.246 45.6984 91.246H23.3015C23.0485 91.246 22.8425 91.04 22.8425 90.787V75.9231C22.8425 75.6701 23.0485 75.4641 23.3015 75.4641H42.0235L42.0274 75.4643C42.029 75.4643 42.0305 75.4641 42.0322 75.4641H45.6982C45.9514 75.4641 46.1572 75.6701 46.1572 75.9231L46.1574 90.787ZM29.2014 72.7102L30.4517 70.2098C30.5299 70.0533 30.6873 69.9562 30.8623 69.9562H38.1379C38.3128 69.9562 38.4702 70.0535 38.5484 70.2099L39.7985 72.7102H29.2014ZM46.3454 72.7757C46.1363 72.7328 45.92 72.7102 45.6984 72.7102H42.8774L41.0115 68.9782C40.4639 67.8827 39.3626 67.2022 38.1379 67.2022H30.8623C29.6373 67.2022 28.5363 67.8828 27.9886 68.9784L26.1227 72.7102H23.3015C23.0799 72.7102 22.8636 72.7328 22.6545 72.7755L16.9534 58.7601L20.2446 58.0367C22.2198 60.3542 24.7288 62.1636 27.5524 63.2924C28.2423 63.5681 29.0562 63.2397 29.3421 62.5249C29.6244 61.8188 29.2809 61.0176 28.5746 60.7352C26.6329 59.9588 24.8652 58.8045 23.3691 57.35L24.2907 57.1475C26.6898 56.6158 28.4362 54.3229 28.2574 51.8478C30.1896 52.6182 32.296 53.0425 34.4997 53.0425C36.7034 53.0425 38.8098 52.6182 40.742 51.8478C40.5149 54.2984 42.3279 56.6327 44.7079 57.1473L45.6347 57.3509C42.6694 60.2459 38.7184 61.8702 34.4997 61.8702C33.7392 61.8702 33.1227 62.4867 33.1227 63.2472C33.1227 64.0076 33.7392 64.6242 34.4997 64.6242C40.041 64.6242 45.1875 62.2335 48.7562 58.0369L52.0463 58.7599L46.3454 72.7757ZM67.1805 78.7682C66.4198 78.7682 65.8035 79.3847 65.8035 80.1451V83.0603H54.7876V81.016C54.7876 80.2555 54.1713 79.639 53.4106 79.639C52.65 79.639 52.0336 80.2555 52.0336 81.016V92.623C52.0336 93.3835 52.65 94 53.4106 94C54.1713 94 54.7876 93.3835 54.7876 92.623V85.8143H65.8035V92.623C65.8035 93.3835 66.4198 94 67.1805 94C67.9411 94 68.5574 93.3835 68.5574 92.623V80.1451C68.5574 79.3847 67.9409 78.7682 67.1805 78.7682ZM41.9931 35.1218C42.7537 35.1218 43.37 34.5053 43.37 33.7449V30.7476C43.37 29.9872 42.7537 29.3706 41.9931 29.3706C41.2324 29.3706 40.6161 29.9872 40.6161 30.7476V33.7449C40.6161 34.5053 41.2324 35.1218 41.9931 35.1218ZM27.0069 29.3706C26.2464 29.3706 25.6299 29.9872 25.6299 30.7476V33.7449C25.6299 34.5053 26.2464 35.1218 27.0069 35.1218C27.7674 35.1218 28.3839 34.5053 28.3839 33.7449V30.7476C28.3839 29.9872 27.7675 29.3706 27.0069 29.3706Z" fill="white"/>
</svg>
