<svg width="92" height="95" viewBox="0 0 92 95" fill="none" xmlns="http://www.w3.org/2000/svg">
<path d="M15.7003 81.1106C14.9397 81.1106 14.3234 81.7271 14.3234 82.4876V93.123C14.3234 93.8835 14.9397 94.5 15.7003 94.5C16.461 94.5 17.0773 93.8835 17.0773 93.123V82.4876C17.0773 81.7271 16.4608 81.1106 15.7003 81.1106ZM74.5157 81.106C73.9432 80.6053 73.0733 80.6637 72.5727 81.2362L65.267 89.5915C64.6657 90.2798 63.831 90.6758 62.9171 90.7067C62.0006 90.7386 61.1435 90.399 60.4971 89.7533L56.122 85.3798V82.4876C56.122 81.7271 55.5056 81.1106 54.745 81.1106C53.9843 81.1106 53.368 81.7271 53.368 82.4876V85.9398V85.9605V93.123C53.368 93.8835 53.9843 94.5 54.745 94.5C55.5056 94.5 56.122 93.8835 56.122 93.123V89.2737L58.5504 91.7012C59.6773 92.8271 61.2194 93.4625 62.8086 93.4625C64.5355 93.4625 66.2046 92.7048 67.3405 91.404L74.646 83.049C75.1467 82.4766 75.0881 81.6067 74.5157 81.106ZM24.4991 30.2291C23.7384 30.2291 23.1221 30.8456 23.1221 31.6061V34.6398C23.1221 35.4003 23.7384 36.0168 24.4991 36.0168C25.2597 36.0168 25.8761 35.4003 25.8761 34.6398V31.6061C25.8761 30.8456 25.2597 30.2291 24.4991 30.2291ZM39.6626 36.0168C40.4232 36.0168 41.0396 35.4003 41.0396 34.6398V31.6061C41.0396 30.8456 40.4232 30.2291 39.6626 30.2291C38.902 30.2291 38.2856 30.8456 38.2856 31.6061V34.6398C38.2856 35.4003 38.9021 36.0168 39.6626 36.0168ZM89.9329 56.4154V41.6037C89.9329 40.2482 88.8301 39.1453 87.4746 39.1453H86.0095C84.9036 39.1453 83.9298 39.8861 83.641 40.949C83.4505 41.6544 82.8057 42.1471 82.0733 42.1471C81.3419 42.1471 80.6978 41.6544 80.5068 40.9473C80.2188 39.8863 79.245 39.1453 78.1388 39.1453H76.6739C75.3182 39.1453 74.2153 40.2482 74.2153 41.6037C74.2153 41.8973 74.1955 61.999 74.2366 62.2681L65.4237 72.3205L61.0315 64.1201C58.9352 60.2034 55.0659 57.4353 50.6805 56.7152C48.8451 56.4138 44.6699 55.7311 43.1298 55.478C41.993 55.2909 41.1675 54.3197 41.1675 53.1683V51.5328C45.9727 48.5035 49.1722 43.1485 49.1722 37.0591V35.601H49.7028C52.4834 35.601 54.7453 33.3388 54.7453 30.5584C54.7453 28.0048 52.837 25.8899 50.3719 25.5617C51.0838 24.658 51.8808 23.3221 52.7458 21.8383C54.0161 19.6588 54.8125 17.5522 55.1805 15.3981C55.9984 10.6122 55.0541 5.50489 52.6549 1.73618C51.9038 0.556385 50.3533 0.15449 49.1249 0.8215C43.7122 3.75906 38.4652 5.04223 33.5314 4.63684C31.8608 4.49933 30.2808 4.1773 28.7527 3.86555C25.1319 3.1273 21.7124 2.43 18.4123 4.55239C17.5666 5.09639 16.8019 5.77882 16.1393 6.58059C15.655 7.16682 15.7376 8.03468 16.3238 8.5192C16.9099 9.00335 17.7779 8.92091 18.2626 8.33468C18.7438 7.75213 19.2956 7.2588 19.9022 6.86866C22.2603 5.35214 24.8823 5.88696 28.2026 6.56388C29.8098 6.89161 31.4718 7.23053 33.3057 7.38144C38.7626 7.82997 44.5033 6.44987 50.3717 3.27822C52.3845 6.48016 53.1673 10.8309 52.466 14.9343C52.1546 16.7574 51.4678 18.562 50.3665 20.4514C49.4216 22.0727 48.5853 23.3858 48.1564 23.9188C46.9077 22.1052 45.4074 20.9289 43.6806 20.4156C41.8013 19.8569 40.3893 20.3054 39.024 20.7396C38.006 21.0631 36.9538 21.3977 35.4997 21.3977C35.4892 21.3977 35.4786 21.3977 35.4679 21.3977C33.5253 21.391 32.4496 20.8098 31.2037 20.1367C30.0906 19.5352 28.8289 18.8534 27.001 18.71C23.7204 18.4524 20.2919 20.0743 16.7885 23.5327C15.8678 21.1557 14.9107 17.4408 15.8024 13.5916C15.9741 12.8508 15.5125 12.1111 14.7717 11.9393C14.0313 11.7676 13.2912 12.2292 13.1195 12.97C11.9331 18.0909 13.492 22.9199 14.6296 25.5159C11.7873 25.4295 9.4169 27.7116 9.4169 30.5584C9.4169 33.4988 12.0198 35.8912 14.99 35.601V37.0591C14.99 43.1487 18.1899 48.504 22.9954 51.5334V53.4494C22.9954 54.5073 22.2774 55.4236 21.2501 55.6779C19.9097 56.0097 11.2393 58.1467 9.81567 58.498C4.26607 59.8667 0.390503 64.8143 0.390503 70.5295V93.123C0.390503 93.8835 1.00684 94.5 1.76749 94.5C2.52813 94.5 3.14447 93.8835 3.14447 93.123V70.5295C3.14447 66.0844 6.15878 62.2364 10.4748 61.1719L19.3319 58.9874C22.0703 63.3789 26.8609 66.0651 32.0807 66.0651C37.4967 66.0651 42.3861 63.2251 45.0749 58.5876L50.2345 59.433C53.78 60.0152 56.9085 62.2533 58.6035 65.4202L63.0478 73.7177C63.4615 74.4917 64.2294 75.0137 65.1019 75.1139C65.9758 75.2142 66.8428 74.8793 67.4218 74.2187L76.7987 63.523C76.8143 63.5146 82.8631 69.4756 82.86 69.4709L76.8136 76.3859C76.3131 76.9583 76.3715 77.8282 76.9439 78.3289C77.5142 78.8276 78.3845 78.773 78.887 78.1987L89.9104 65.5916C92.1778 63.0194 92.1664 58.9652 89.9329 56.4154ZM49.172 28.2699H49.7026C50.9645 28.2699 51.9912 29.2966 51.9912 30.5584C51.9912 31.8203 50.9645 32.847 49.7026 32.847H49.172V28.2699ZM14.9898 32.8472H14.459C13.1972 32.8472 12.1705 31.8205 12.1705 30.5586C12.1705 29.2968 13.1972 28.2701 14.459 28.2701H14.9898V32.8472ZM17.7438 37.0593V26.5085C21.0155 22.941 24.0526 21.2412 26.7856 21.4555C28.0322 21.5532 28.8951 22.0195 29.8943 22.5595C31.2676 23.3016 32.8243 24.1428 35.4584 24.1516H35.4993C37.3807 24.1516 38.7536 23.7152 39.8581 23.3642C41.0444 22.9872 41.8279 22.7383 42.8959 23.0554C44.2311 23.4523 45.4151 24.5535 46.4184 26.3311V37.0593C46.4184 44.9679 39.9868 51.4021 32.0811 51.4021C24.1754 51.4021 17.7438 44.9679 17.7438 37.0593ZM32.0807 63.3112C28.122 63.3112 24.4659 61.4181 22.1723 58.2749C24.4163 57.5792 25.9754 55.332 25.749 52.9392C27.7082 53.7237 29.8449 54.1561 32.0807 54.1561C34.317 54.1561 36.454 53.7235 38.4134 52.9388C38.2691 55.3144 39.9051 57.4594 42.1382 58.0746C39.8613 61.3434 36.1537 63.3112 32.0807 63.3112ZM76.9691 41.8993H77.9181C78.5062 43.6785 80.1811 44.9011 82.0733 44.9011C83.9667 44.9011 85.643 43.6774 86.2301 41.8993H87.1792V54.4719C84.5107 53.4323 81.3859 54.1148 79.3983 56.3805L76.9693 59.1512V41.8993H76.9691ZM87.837 63.7792L84.6762 67.394L78.6714 61.3871L81.4687 58.1963C82.9643 56.4912 85.5229 56.2652 87.2934 57.6804C89.1391 59.1558 89.4108 61.9977 87.837 63.7792ZM35.7758 44.7342C36.4427 44.3685 36.6865 43.5315 36.3208 42.8646C35.9552 42.1982 35.1182 41.954 34.4512 42.3197C33.9342 42.6034 33.0854 42.9362 32.0292 42.928C31.0095 42.9173 30.2055 42.5914 29.7107 42.3197C29.0431 41.954 28.2067 42.1976 27.8409 42.8644C27.4752 43.5311 27.719 44.3681 28.3857 44.7342C29.1568 45.1574 30.4098 45.6652 32.0003 45.6819C33.6079 45.6985 34.9814 45.1699 35.7758 44.7342Z" fill="white"/>
</svg>
