<svg width="72" height="16" viewBox="0 0 72 16" fill="none" xmlns="http://www.w3.org/2000/svg">
<path d="M0 8C0 6.78095 0.213018 5.68381 0.639054 4.70857C1.06509 3.71809 1.64328 2.87238 2.37363 2.17143C3.10398 1.47048 3.95605 0.937143 4.92984 0.571428C5.90364 0.190476 6.9383 0 8.03382 0C8.90111 0 9.66949 0.0838093 10.339 0.251428C11.0237 0.419048 11.6095 0.609524 12.0964 0.822857C12.6594 1.06667 13.1462 1.33333 13.5571 1.62286L11.1606 5.85143C10.9172 5.66857 10.6509 5.49333 10.3618 5.32571C10.1031 5.20381 9.79122 5.08952 9.42604 4.98286C9.07609 4.86095 8.67287 4.8 8.21641 4.8C7.74472 4.8 7.31108 4.88381 6.91547 5.05143C6.51987 5.21905 6.16991 5.44762 5.8656 5.73714C5.5765 6.02667 5.34827 6.36952 5.1809 6.76571C5.01353 7.14667 4.92984 7.55809 4.92984 8C4.92984 8.4419 5.01353 8.86095 5.1809 9.25714C5.36349 9.63809 5.60694 9.97333 5.91125 10.2629C6.21556 10.5524 6.57312 10.781 6.98394 10.9486C7.39476 11.1162 7.84362 11.2 8.33052 11.2C8.81742 11.2 9.25106 11.139 9.63145 11.0171C10.0118 10.8952 10.3314 10.7581 10.59 10.6057C10.8943 10.4381 11.1606 10.24 11.3889 10.0114L13.7853 14.24C13.3745 14.5752 12.8876 14.8724 12.3246 15.1314C11.8377 15.3448 11.2519 15.5429 10.5672 15.7257C9.88251 15.9086 9.09891 16 8.21641 16C7.02959 16 5.93407 15.8095 4.92984 15.4286C3.92562 15.0324 3.05833 14.4838 2.32798 13.7829C1.59763 13.0819 1.02705 12.2438 0.61623 11.2686C0.20541 10.2781 0 9.18857 0 8Z" fill="white"/>
<path d="M14.3618 0.365714H19.2231V5.55429H21.9391V0.365714H26.8233V15.6114H21.9391V9.96571H19.2231V15.6114H14.3618V0.365714Z" fill="white"/>
<path d="M28.4258 0.365714H37.3953V4.36571H33.2871V6.05714H37.3269V9.85143H33.2871V11.6114H37.5551V15.6114H28.4258V0.365714Z" fill="white"/>
<path d="M43.3742 8C43.3742 8.4419 43.4579 8.86095 43.6252 9.25714C43.7926 9.63809 44.0208 9.97333 44.3099 10.2629C44.599 10.5524 44.9338 10.781 45.3142 10.9486C45.7098 11.1162 46.1282 11.2 46.5694 11.2C47.0107 11.2 47.4215 11.1162 47.8019 10.9486C48.1975 10.781 48.5399 10.5524 48.8289 10.2629C49.118 9.97333 49.3463 9.63809 49.5136 9.25714C49.681 8.86095 49.7647 8.4419 49.7647 8C49.7647 7.55809 49.681 7.14667 49.5136 6.76571C49.3463 6.36952 49.118 6.02667 48.8289 5.73714C48.5399 5.44762 48.1975 5.21905 47.8019 5.05143C47.4215 4.88381 47.0107 4.8 46.5694 4.8C46.1282 4.8 45.7098 4.88381 45.3142 5.05143C44.9338 5.21905 44.599 5.44762 44.3099 5.73714C44.0208 6.02667 43.7926 6.36952 43.6252 6.76571C43.4579 7.14667 43.3742 7.55809 43.3742 8ZM38.5813 8C38.5813 6.90286 38.7867 5.86667 39.1975 4.89143C39.6235 3.91619 40.1941 3.07048 40.9092 2.35429C41.6396 1.62286 42.4917 1.05143 43.4655 0.64C44.4393 0.213333 45.4739 0 46.5694 0C47.665 0 48.6996 0.213333 49.6734 0.64C50.6472 1.05143 51.4917 1.62286 52.2068 2.35429C52.9372 3.07048 53.5077 3.91619 53.9186 4.89143C54.3446 5.86667 54.5576 6.90286 54.5576 8C54.5576 8.65524 54.4815 9.28762 54.3294 9.89714C54.1772 10.5067 53.9642 11.0781 53.6903 11.6114H55.1054L53.0513 15.6114H49.0115C48.2051 15.8705 47.3911 16 46.5694 16C45.4739 16 44.4393 15.7943 43.4655 15.3829C42.4917 14.9562 41.6396 14.3848 40.9092 13.6686C40.1941 12.9371 39.6235 12.0838 39.1975 11.1086C38.7867 10.1333 38.5813 9.09714 38.5813 8Z" fill="white"/>
<path d="M60.2687 8C60.2687 8.4419 60.3524 8.86095 60.5198 9.25714C60.6872 9.63809 60.9154 9.97333 61.2045 10.2629C61.4936 10.5524 61.8283 10.781 62.2087 10.9486C62.6043 11.1162 63.0228 11.2 63.464 11.2C63.9053 11.2 64.3161 11.1162 64.6965 10.9486C65.0921 10.781 65.4344 10.5524 65.7235 10.2629C66.0126 9.97333 66.2408 9.63809 66.4082 9.25714C66.5756 8.86095 66.6593 8.4419 66.6593 8C66.6593 7.55809 66.5756 7.14667 66.4082 6.76571C66.2408 6.36952 66.0126 6.02667 65.7235 5.73714C65.4344 5.44762 65.0921 5.21905 64.6965 5.05143C64.3161 4.88381 63.9053 4.8 63.464 4.8C63.0228 4.8 62.6043 4.88381 62.2087 5.05143C61.8283 5.21905 61.4936 5.44762 61.2045 5.73714C60.9154 6.02667 60.6872 6.36952 60.5198 6.76571C60.3524 7.14667 60.2687 7.55809 60.2687 8ZM55.4758 8C55.4758 6.90286 55.6812 5.86667 56.0921 4.89143C56.5181 3.91619 57.0887 3.07048 57.8038 2.35429C58.5342 1.62286 59.3862 1.05143 60.36 0.64C61.3338 0.213333 62.3685 0 63.464 0C64.5595 0 65.5942 0.213333 66.568 0.64C67.5418 1.05143 68.3862 1.62286 69.1014 2.35429C69.8317 3.07048 70.4023 3.91619 70.8131 4.89143C71.2392 5.86667 71.4522 6.90286 71.4522 8C71.4522 8.65524 71.3761 9.28762 71.2239 9.89714C71.0718 10.5067 70.8588 11.0781 70.5849 11.6114H71.9999L69.9458 15.6114H65.9061C65.0997 15.8705 64.2856 16 63.464 16C62.3685 16 61.3338 15.7943 60.36 15.3829C59.3862 14.9562 58.5342 14.3848 57.8038 13.6686C57.0887 12.9371 56.5181 12.0838 56.0921 11.1086C55.6812 10.1333 55.4758 9.09714 55.4758 8Z" fill="#00CEF9"/>
</svg>
