<svg width="257" height="154" viewBox="0 0 257 154" fill="none" xmlns="http://www.w3.org/2000/svg">
<path d="M62.4281 118.909V132H63.5914L71.3258 121.038H71.4281V132H72.6234V118.909H71.4664L63.7065 129.884H63.6042V118.909H62.4281ZM77.0051 122.182H75.8674V132H77.0051V127.634H82.1955V132H83.3333V122.182H82.1955V126.56H77.0051V122.182ZM87.4993 122.182H86.3615V132H87.4993V127.634H92.6896V132H93.8274V122.182H92.6896V126.56H87.4993V122.182ZM100.672 132.205C103.216 132.205 104.993 130.127 104.993 127.136C104.993 124.125 103.216 122.048 100.672 122.048C98.1277 122.048 96.3507 124.125 96.3507 127.136C96.3507 130.127 98.1277 132.205 100.672 132.205ZM100.672 131.163C98.6326 131.163 97.4949 129.335 97.4949 127.136C97.4949 124.937 98.6326 123.083 100.672 123.083C102.711 123.083 103.849 124.937 103.849 127.136C103.849 129.335 102.711 131.163 100.672 131.163ZM107.49 132H111.92C113.825 132 115.033 130.875 115.033 129.341C115.033 127.89 114.004 127.027 112.873 126.829C113.998 126.541 114.733 125.857 114.733 124.688C114.733 123.16 113.448 122.182 111.358 122.182H107.49V132ZM108.577 130.945V127.43H112.048C113.154 127.43 113.87 128.146 113.87 129.245C113.87 130.281 113.115 130.945 111.92 130.945H108.577ZM108.577 126.42V123.237H111.358C112.764 123.237 113.588 123.799 113.588 124.758C113.595 125.774 112.751 126.42 111.428 126.42H108.577ZM120.27 132.224C121.906 132.224 122.903 131.316 123.312 130.447H123.383V132H124.52V125.333C124.52 122.7 122.539 122.048 121.037 122.048C119.535 122.048 117.988 122.642 117.323 124.246L118.403 124.636C118.761 123.793 119.65 123.07 121.069 123.07C122.558 123.07 123.383 123.888 123.383 125.231V125.461C123.383 126.202 122.462 126.215 120.813 126.42C118.595 126.695 117.042 127.315 117.042 129.258C117.042 131.15 118.486 132.224 120.27 132.224ZM120.423 131.182C119.138 131.182 118.18 130.498 118.18 129.309C118.18 128.12 119.151 127.621 120.813 127.417C121.618 127.321 123.05 127.142 123.383 126.816V128.235C123.383 129.846 122.238 131.182 120.423 131.182ZM134.994 122.182H133.85V130.926H128.704V122.182H127.56V132H134.898V135.177H136.036V130.92H134.994V122.182ZM139.601 130.383V122.182H138.463V132H139.844L145.009 123.799V132H146.146V122.182H144.785L139.601 130.383ZM152.967 132.205C155.511 132.205 157.288 130.127 157.288 127.136C157.288 124.125 155.511 122.048 152.967 122.048C150.423 122.048 148.646 124.125 148.646 127.136C148.646 130.127 150.423 132.205 152.967 132.205ZM152.967 131.163C150.928 131.163 149.79 129.335 149.79 127.136C149.79 124.937 150.928 123.083 152.967 123.083C155.006 123.083 156.143 124.937 156.143 127.136C156.143 129.335 155.006 131.163 152.967 131.163ZM160.923 122.182H159.785V132H160.923V127.634H166.113V132H167.251V122.182H166.113V126.56H160.923V122.182ZM171.417 122.182H170.279V132H171.417V127.634H176.608V132H177.745V122.182H176.608V126.56H171.417V122.182ZM183.516 132.224C185.152 132.224 186.149 131.316 186.558 130.447H186.629V132H187.767V125.333C187.767 122.7 185.785 122.048 184.283 122.048C182.781 122.048 181.234 122.642 180.569 124.246L181.649 124.636C182.007 123.793 182.896 123.07 184.315 123.07C185.804 123.07 186.629 123.888 186.629 125.231V125.461C186.629 126.202 185.708 126.215 184.059 126.42C181.841 126.695 180.288 127.315 180.288 129.258C180.288 131.15 181.732 132.224 183.516 132.224ZM183.669 131.182C182.384 131.182 181.426 130.498 181.426 129.309C181.426 128.12 182.397 127.621 184.059 127.417C184.865 127.321 186.296 127.142 186.629 126.816V128.235C186.629 129.846 185.485 131.182 183.669 131.182ZM196.699 132H197.786V122.182H193.996C191.873 122.182 190.704 123.179 190.704 124.975C190.704 126.362 191.375 127.276 192.615 127.621L190.084 132H191.33L193.772 127.775C193.81 127.775 193.842 127.775 193.874 127.775H196.699V132ZM196.699 126.701H193.874C192.545 126.701 191.848 126.126 191.848 124.975C191.848 123.825 192.583 123.243 193.996 123.237H196.699V126.701ZM83.3157 150H84.4599V141.256H89.6055V150H90.7496V140.182H83.3157V150ZM92.7967 150H93.2058C95.411 150 95.8137 148.357 95.9672 145.161L96.1525 141.256H100.167V150H101.311V140.182H95.0723L94.8613 144.778C94.7143 148.031 94.5034 148.926 93.1035 148.926H92.7967V150ZM107.069 150.224C108.705 150.224 109.702 149.316 110.111 148.447H110.181V150H111.319V143.333C111.319 140.7 109.338 140.048 107.836 140.048C106.333 140.048 104.787 140.642 104.122 142.246L105.202 142.636C105.56 141.793 106.449 141.07 107.868 141.07C109.357 141.07 110.181 141.888 110.181 143.231V143.461C110.181 144.202 109.261 144.215 107.612 144.42C105.394 144.695 103.841 145.315 103.841 147.258C103.841 149.15 105.285 150.224 107.069 150.224ZM107.222 149.182C105.937 149.182 104.978 148.498 104.978 147.309C104.978 146.12 105.95 145.621 107.612 145.417C108.417 145.321 109.849 145.142 110.181 144.816V146.235C110.181 147.846 109.037 149.182 107.222 149.182ZM112.972 141.256H116.257V150H117.395V141.256H120.642V140.182H112.972V141.256ZM126.686 153.349H127.83V150.205C130.534 150.205 132.483 148.102 132.483 145.142C132.483 142.157 130.534 140.054 127.83 140.054V136.909H126.686V140.054C123.982 140.054 122.032 142.157 122.032 145.142C122.032 148.102 123.982 150.205 126.686 150.205V153.349ZM126.686 149.163C124.487 149.169 123.176 147.309 123.176 145.142C123.176 142.969 124.48 141.096 126.686 141.096V149.163ZM127.83 149.163V141.096C130.029 141.096 131.339 142.969 131.339 145.142C131.339 147.309 130.029 149.163 127.83 149.163ZM138.799 150.205C141.343 150.205 143.12 148.127 143.12 145.136C143.12 142.125 141.343 140.048 138.799 140.048C136.255 140.048 134.478 142.125 134.478 145.136C134.478 148.127 136.255 150.205 138.799 150.205ZM138.799 149.163C136.76 149.163 135.622 147.335 135.622 145.136C135.622 142.937 136.76 141.083 138.799 141.083C140.838 141.083 141.975 142.937 141.975 145.136C141.975 147.335 140.838 149.163 138.799 149.163ZM145.598 153.682H146.742V148.178H146.845C147.235 149.08 148.078 150.205 149.862 150.205C152.265 150.205 153.901 148.159 153.901 145.116C153.901 142.087 152.271 140.048 149.843 140.048C148.04 140.048 147.241 141.173 146.845 142.055H146.704V140.182H145.598V153.682ZM146.723 145.097C146.723 142.745 147.803 141.083 149.721 141.083C151.696 141.083 152.757 142.835 152.757 145.097C152.757 147.386 151.677 149.163 149.721 149.163C147.823 149.163 146.723 147.469 146.723 145.097ZM161.526 148.408L157.869 140.182H156.393V150H157.531V141.895L161.072 150H161.979L165.521 141.991V150H166.658V140.182H165.214L161.526 148.408ZM172.424 150.224C174.06 150.224 175.058 149.316 175.467 148.447H175.537V150H176.675V143.333C176.675 140.7 174.693 140.048 173.191 140.048C171.689 140.048 170.142 140.642 169.477 142.246L170.558 142.636C170.915 141.793 171.804 141.07 173.223 141.07C174.712 141.07 175.537 141.888 175.537 143.231V143.461C175.537 144.202 174.616 144.215 172.967 144.42C170.749 144.695 169.196 145.315 169.196 147.258C169.196 149.15 170.641 150.224 172.424 150.224ZM172.577 149.182C171.293 149.182 170.334 148.498 170.334 147.309C170.334 146.12 171.305 145.621 172.967 145.417C173.773 145.321 175.205 145.142 175.537 144.816V146.235C175.537 147.846 174.393 149.182 172.577 149.182Z" fill="white"/>
<path d="M22.0607 65.5455H8.15163V83H11.288V68.1705H18.9244V83H22.0607V65.5455ZM25.7063 87.9091H28.7915V80.9375H28.9194C29.4052 81.892 30.4194 83.2301 32.6694 83.2301C35.7546 83.2301 38.0643 80.7841 38.0643 76.4716C38.0643 72.108 35.6864 69.7386 32.6609 69.7386C30.3512 69.7386 29.3881 71.1278 28.9194 72.0739H28.7404V69.9091H25.7063V87.9091ZM28.7319 76.4545C28.7319 73.9148 29.8228 72.2699 31.8086 72.2699C33.8626 72.2699 34.9194 74.017 34.9194 76.4545C34.9194 78.9091 33.8455 80.6989 31.8086 80.6989C29.8398 80.6989 28.7319 78.9943 28.7319 76.4545ZM43.6808 78.8239V69.9091H40.7063V83H43.8853L49.1097 74.0767V83H52.0927V69.9091H48.9222L43.6808 78.8239ZM61.0565 83.2557C64.1076 83.2557 66.2042 81.7642 66.7496 79.4886L63.869 79.1648C63.4513 80.2727 62.4286 80.8523 61.0991 80.8523C59.1048 80.8523 57.7837 79.5398 57.7582 77.2983H66.8775V76.3523C66.8775 71.7585 64.1161 69.7386 60.8945 69.7386C57.1445 69.7386 54.6985 72.4915 54.6985 76.5312C54.6985 80.6392 57.1104 83.2557 61.0565 83.2557ZM57.7667 75.2188C57.8604 73.5483 59.0962 72.142 60.9371 72.142C62.7099 72.142 63.9031 73.4375 63.9201 75.2188H57.7667ZM77.0217 79.4119L73.2376 69.9091H69.4876V83H72.462V74.179L75.9478 83H78.104L81.7092 74.0852V83H84.658V69.9091H80.908L77.0217 79.4119ZM104.213 65.0682C103.583 65.5455 102.586 65.5369 101.23 65.5369C100.847 65.5369 100.446 65.5369 100.012 65.5455C95.5032 65.6051 93.185 68.6051 93.185 74.7585V75.9347C93.185 80.7244 95.6055 83.2557 99.4151 83.2557C103.225 83.2557 105.628 80.7159 105.628 76.6761C105.628 72.7557 103.344 70.4972 100.097 70.4972C98.1026 70.4972 96.5941 71.358 95.7759 72.9602H95.631C95.9379 69.696 97.1651 68.2216 100.097 68.1534C102.696 68.0938 104.154 68.0511 105.287 67.0625L104.213 65.0682ZM99.4322 80.7841C97.4975 80.7841 96.3129 79.233 96.3129 76.7614C96.3384 74.3239 97.506 72.9261 99.4151 72.9261C101.324 72.9261 102.5 74.3239 102.5 76.7614C102.5 79.2415 101.333 80.7841 99.4322 80.7841ZM114.049 83.2557C117.1 83.2557 119.196 81.7642 119.742 79.4886L116.861 79.1648C116.444 80.2727 115.421 80.8523 114.091 80.8523C112.097 80.8523 110.776 79.5398 110.75 77.2983H119.87V76.3523C119.87 71.7585 117.108 69.7386 113.887 69.7386C110.137 69.7386 107.691 72.4915 107.691 76.5312C107.691 80.6392 110.103 83.2557 114.049 83.2557ZM110.759 75.2188C110.853 73.5483 112.088 72.142 113.929 72.142C115.702 72.142 116.895 73.4375 116.912 75.2188H110.759ZM121.755 79.4119C121.832 81.8409 124.056 83.2557 127.082 83.2557C130.184 83.2557 132.426 81.7812 132.426 79.3693C132.426 77.6051 131.224 76.3949 129.673 76.3011V76.1648C131.173 75.7642 132.127 74.8267 132.127 73.4119C132.127 71.2045 130.218 69.7386 127.15 69.7386C124.287 69.7386 122.13 71.2216 122.088 73.5057H125.13C125.164 72.6278 126.068 72.0142 127.295 72.0142C128.522 72.0142 129.264 72.6705 129.264 73.642C129.264 74.5369 128.582 75.2017 127.304 75.2017H125.301V77.392H127.304C128.591 77.392 129.434 78.1165 129.434 79.1733C129.434 80.3665 128.386 80.946 127.065 80.946C125.761 80.946 124.875 80.3835 124.815 79.4119H121.755ZM137.829 69.9091H134.855V83H137.829V77.7074H142.9V83H145.866V69.9091H142.9V75.1761H137.829V69.9091ZM152.755 83.2642C154.809 83.2642 156.036 82.3011 156.598 81.2017H156.701V83H159.667V74.2386C159.667 70.7784 156.846 69.7386 154.348 69.7386C151.596 69.7386 149.482 70.9659 148.8 73.3523L151.681 73.7614C151.988 72.8665 152.857 72.0994 154.365 72.0994C155.797 72.0994 156.581 72.8324 156.581 74.1193V74.1705C156.581 75.0568 155.652 75.0994 153.343 75.3466C150.803 75.6193 148.374 76.3778 148.374 79.3267C148.374 81.9006 150.257 83.2642 152.755 83.2642ZM153.556 80.9972C152.269 80.9972 151.348 80.4091 151.348 79.2756C151.348 78.0909 152.38 77.5966 153.76 77.4006C154.57 77.2898 156.189 77.0852 156.59 76.7614V78.304C156.59 79.7614 155.414 80.9972 153.556 80.9972ZM161.865 83H162.82C165.632 83 166.902 81.0227 167.107 76.6591L167.311 72.4403H171.07V83H174.053V69.9091H164.507L164.277 75.7045C164.132 79.3778 163.655 80.4602 162.3 80.4602H161.848L161.865 83ZM180.134 78.8239V69.9091H177.159V83H180.338L185.563 74.0767V83H188.546V69.9091H185.375L180.134 78.8239ZM202.649 69.9091H199.683V76.3011C198.933 76.4886 198.191 76.5909 197.382 76.5909C195.558 76.5909 194.663 75.9432 194.663 74.2557V69.892H191.714V74.2557C191.714 77.5966 193.887 79.1222 197.382 79.1222C198.149 79.1222 198.95 79.0199 199.683 78.8494V83H202.649V69.9091ZM208.728 69.9091H205.753V83H208.728V77.7074H213.799V83H216.765V69.9091H213.799V75.1761H208.728V69.9091ZM222.86 74.1705V69.9091H219.886V83H225.835C229.167 83 231.085 81.1591 231.093 78.5852C231.085 75.9432 229.167 74.1705 225.835 74.1705H222.86ZM232.721 83H235.806V69.9091H232.721V83ZM222.86 76.7017H225.835C227.173 76.7017 228.136 77.4943 228.136 78.6278C228.136 79.7102 227.173 80.4688 225.835 80.4688H222.86V76.7017ZM241.51 69.9091H238.238L242.124 76.4545L238.135 83H241.408L244.152 78.2869L246.922 83H250.169L246.155 76.4545L250.101 69.9091H246.837L244.152 74.7415L241.51 69.9091ZM33.3129 93.9091H30.3469V100.301C29.5969 100.489 28.8555 100.591 28.0458 100.591C26.2219 100.591 25.3271 99.9432 25.3271 98.2557V93.892H22.3782V98.2557C22.3782 101.597 24.5515 103.122 28.0458 103.122C28.8129 103.122 29.614 103.02 30.3469 102.849V107H33.3129V93.9091ZM40.1843 107.264C42.2383 107.264 43.4656 106.301 44.0281 105.202H44.1303V107H47.0962V98.2386C47.0962 94.7784 44.2752 93.7386 41.7781 93.7386C39.0252 93.7386 36.9116 94.9659 36.2298 97.3523L39.1104 97.7614C39.4173 96.8665 40.2866 96.0994 41.7951 96.0994C43.2269 96.0994 44.011 96.8324 44.011 98.1193V98.1705C44.011 99.0568 43.082 99.0994 40.7724 99.3466C38.2326 99.6193 35.8036 100.378 35.8036 103.327C35.8036 105.901 37.6871 107.264 40.1843 107.264ZM40.9854 104.997C39.6985 104.997 38.7781 104.409 38.7781 103.276C38.7781 102.091 39.8093 101.597 41.19 101.401C41.9996 101.29 43.619 101.085 44.0195 100.761V102.304C44.0195 103.761 42.8434 104.997 40.9854 104.997ZM55.994 107.256C59.0451 107.256 61.1417 105.764 61.6871 103.489L58.8065 103.165C58.3888 104.273 57.3661 104.852 56.0366 104.852C54.0423 104.852 52.7212 103.54 52.6957 101.298H61.815V100.352C61.815 95.7585 59.0536 93.7386 55.832 93.7386C52.082 93.7386 49.636 96.4915 49.636 100.531C49.636 104.639 52.0479 107.256 55.994 107.256ZM52.7042 99.2188C52.7979 97.5483 54.0337 96.142 55.8746 96.142C57.6474 96.142 58.8406 97.4375 58.8576 99.2188H52.7042ZM64.4251 107H70.766C73.8342 107 75.5898 105.611 75.5898 103.446C75.5898 101.614 74.1665 100.335 72.1126 100.156C73.8597 99.8324 74.9506 98.9034 74.9506 97.429C74.9506 95.2216 73.016 93.9091 69.9222 93.9091H64.4251V107ZM67.3143 104.571V101.324H70.766C71.8995 101.324 72.5898 101.98 72.5898 103.062C72.5898 104 71.8995 104.571 70.766 104.571H67.3143ZM67.3143 99.3295V96.3807H69.9222C71.2092 96.3807 71.9933 96.9261 71.9933 97.821C71.9933 98.7585 71.2347 99.3295 69.9819 99.3295H67.3143ZM81.1104 98.1705V93.9091H78.136V107H84.0849C87.4173 107 89.3349 105.159 89.3434 102.585C89.3349 99.9432 87.4173 98.1705 84.0849 98.1705H81.1104ZM90.9712 107H94.0565V93.9091H90.9712V107ZM81.1104 100.702H84.0849C85.4229 100.702 86.386 101.494 86.386 102.628C86.386 103.71 85.4229 104.469 84.0849 104.469H81.1104V100.702ZM99.7603 93.9091H96.4876L100.374 100.455L96.3853 107H99.658L102.402 102.287L105.172 107H108.419L104.405 100.455L108.351 93.9091H105.087L102.402 98.7415L99.7603 93.9091ZM119.665 102.824V93.9091H116.691V107H119.87L125.094 98.0767V107H128.077V93.9091H124.907L119.665 102.824ZM142.909 107.256C146.744 107.256 149.181 104.554 149.181 100.506C149.181 96.4489 146.744 93.7386 142.909 93.7386C139.074 93.7386 136.636 96.4489 136.636 100.506C136.636 104.554 139.074 107.256 142.909 107.256ZM142.926 104.784C140.804 104.784 139.764 102.892 139.764 100.497C139.764 98.1023 140.804 96.1847 142.926 96.1847C145.014 96.1847 146.054 98.1023 146.054 100.497C146.054 102.892 145.014 104.784 142.926 104.784ZM150.381 96.4403H154.617V107H157.6V96.4403H161.836V93.9091H150.381V96.4403ZM163.568 103.412C163.645 105.841 165.869 107.256 168.895 107.256C171.997 107.256 174.238 105.781 174.238 103.369C174.238 101.605 173.037 100.395 171.485 100.301V100.165C172.985 99.7642 173.94 98.8267 173.94 97.4119C173.94 95.2045 172.031 93.7386 168.963 93.7386C166.099 93.7386 163.943 95.2216 163.9 97.5057H166.943C166.977 96.6278 167.88 96.0142 169.108 96.0142C170.335 96.0142 171.076 96.6705 171.076 97.642C171.076 98.5369 170.395 99.2017 169.116 99.2017H167.113V101.392H169.116C170.403 101.392 171.247 102.116 171.247 103.173C171.247 104.366 170.199 104.946 168.877 104.946C167.574 104.946 166.687 104.384 166.627 103.412H163.568ZM179.642 98.1705V93.9091H176.667V107H182.616C185.949 107 187.866 105.159 187.875 102.585C187.866 99.9432 185.949 98.1705 182.616 98.1705H179.642ZM189.502 107H192.588V93.9091H189.502V107ZM179.642 100.702H182.616C183.954 100.702 184.917 101.494 184.917 102.628C184.917 103.71 183.954 104.469 182.616 104.469H179.642V100.702ZM195.769 107H202.11C205.178 107 206.934 105.611 206.934 103.446C206.934 101.614 205.51 100.335 203.456 100.156C205.203 99.8324 206.294 98.9034 206.294 97.429C206.294 95.2216 204.36 93.9091 201.266 93.9091H195.769V107ZM198.658 104.571V101.324H202.11C203.243 101.324 203.934 101.98 203.934 103.062C203.934 104 203.243 104.571 202.11 104.571H198.658ZM198.658 99.3295V96.3807H201.266C202.553 96.3807 203.337 96.9261 203.337 97.821C203.337 98.7585 202.578 99.3295 201.326 99.3295H198.658ZM215.19 107.256C219.025 107.256 221.463 104.554 221.463 100.506C221.463 96.4489 219.025 93.7386 215.19 93.7386C211.355 93.7386 208.917 96.4489 208.917 100.506C208.917 104.554 211.355 107.256 215.19 107.256ZM215.207 104.784C213.085 104.784 212.045 102.892 212.045 100.497C212.045 98.1023 213.085 96.1847 215.207 96.1847C217.295 96.1847 218.335 98.1023 218.335 100.497C218.335 102.892 217.295 104.784 215.207 104.784ZM224.081 107H230.422C233.49 107 235.246 105.611 235.246 103.446C235.246 101.614 233.823 100.335 231.769 100.156C233.516 99.8324 234.607 98.9034 234.607 97.429C234.607 95.2216 232.672 93.9091 229.578 93.9091H224.081V107ZM226.971 104.571V101.324H230.422C231.556 101.324 232.246 101.98 232.246 103.062C232.246 104 231.556 104.571 230.422 104.571H226.971ZM226.971 99.3295V96.3807H229.578C230.865 96.3807 231.65 96.9261 231.65 97.821C231.65 98.7585 230.891 99.3295 229.638 99.3295H226.971Z" fill="white"/>
<path d="M43.3023 43.0367C38.2618 46.3456 32.6131 48 26.356 48C19.3168 48 13.8201 45.8884 9.86601 41.6653C5.95534 37.3986 4 31.7388 4 24.6857C4 17.6327 6.06397 11.9728 10.1919 7.70612C14.3633 3.39592 19.9469 1.24082 26.9426 1.24082C32.0699 1.24082 36.6541 2.28572 40.6952 4.37551L39.0005 15.6082C34.8291 13.1701 30.9402 11.951 27.3337 11.951C23.9879 11.951 21.4677 13.1048 19.7731 15.4122C18.1219 17.6762 17.2963 20.7456 17.2963 24.6204C17.2963 28.5388 18.1436 31.6952 19.8382 34.0898C21.5329 36.4844 24.0096 37.6816 27.2685 37.6816C28.9197 37.6816 30.484 37.3116 31.9613 36.5714V30.1714H25.248L23.7489 20.7673H43.3023V43.0367Z" fill="url(#paint0_radial)"/>
<path d="M74.5098 18.8082C77.4645 21.8558 78.9418 25.9048 78.9418 30.9551C78.9418 36.0054 77.4428 40.0762 74.4446 43.1673C71.4898 46.2585 67.7095 47.8041 63.1036 47.8041C58.4977 47.8041 54.7391 46.2803 51.8278 43.2327C48.9166 40.1415 47.4609 36.0707 47.4609 31.0204C47.4609 25.9701 48.9383 21.8993 51.893 18.8082C54.8478 15.717 58.6281 14.1714 63.234 14.1714C67.8399 14.1714 71.5985 15.717 74.5098 18.8082ZM66.6232 36.5061C67.4923 35.1565 67.9268 33.3279 67.9268 31.0204C67.9268 28.7129 67.4923 26.9061 66.6232 25.6C65.7976 24.2503 64.6462 23.5755 63.1688 23.5755C61.6914 23.5755 60.54 24.2286 59.7144 25.5347C58.8888 26.8408 58.476 28.6476 58.476 30.9551C58.476 33.2626 58.8888 35.0912 59.7144 36.4408C60.54 37.7905 61.6914 38.4653 63.1688 38.4653C64.6462 38.4653 65.7976 37.8122 66.6232 36.5061Z" fill="url(#paint1_radial)"/>
<path d="M120.945 45.0612C117.773 46.8027 114.449 47.6735 110.973 47.6735C106.15 47.6735 102.305 46.2367 99.4367 43.3633C96.5689 40.4463 95.135 36.4408 95.135 31.3469C95.135 25.8177 96.6775 21.5946 99.7626 18.6776C102.848 15.7605 106.758 14.302 111.495 14.302C114.71 14.302 117.795 15.0422 120.75 16.5224L119.186 26.1878C116.97 24.8816 114.862 24.2286 112.863 24.2286C111.082 24.2286 109.626 24.8163 108.496 25.9918C107.367 27.1238 106.802 28.7782 106.802 30.9551C106.802 33.1755 107.388 34.8735 108.562 36.049C109.778 37.2245 111.299 37.8122 113.124 37.8122C114.949 37.8122 117.122 37.1374 119.642 35.7878L120.945 45.0612Z" fill="url(#paint2_radial)"/>
<path d="M155.378 47.151H143.777V27.6245C143.777 25.4476 142.886 24.3592 141.104 24.3592C139.931 24.3592 138.649 25.0122 137.259 26.3184V47.151H125.657V1.82857L137.259 0V18.6776C140.344 15.6735 143.364 14.1714 146.318 14.1714C149.273 14.1714 151.511 15.0639 153.032 16.849C154.596 18.5905 155.378 21.0939 155.378 24.3592V47.151Z" fill="url(#paint3_radial)"/>
<path d="M189.598 44.4735C185.73 46.6939 181.45 47.8041 176.758 47.8041C171.456 47.8041 167.242 46.4109 164.113 43.6245C161.028 40.8381 159.485 36.702 159.485 31.2163C159.485 25.9918 160.919 21.8558 163.787 18.8082C166.698 15.717 170.457 14.1714 175.063 14.1714C179.93 14.1714 183.558 15.7388 185.948 18.8735C188.381 22.0082 189.598 26.1007 189.598 31.151C189.598 32.5878 189.532 33.6327 189.402 34.2857H170.957C171.609 37.8993 174.064 39.7061 178.322 39.7061C181.32 39.7061 184.731 38.7265 188.555 36.7673L189.598 44.4735ZM178.713 28.3429C178.583 23.6408 177.257 21.2898 174.737 21.2898C172.217 21.2898 170.913 23.6408 170.826 28.3429H178.713Z" fill="url(#paint4_radial)"/>
<path d="M218.394 45.0612C215.222 46.8027 211.898 47.6735 208.422 47.6735C203.599 47.6735 199.753 46.2367 196.885 43.3633C194.018 40.4463 192.584 36.4408 192.584 31.3469C192.584 25.8177 194.126 21.5946 197.211 18.6776C200.296 15.7605 204.207 14.302 208.943 14.302C212.159 14.302 215.244 15.0422 218.198 16.5224L216.634 26.1878C214.418 24.8816 212.311 24.2286 210.312 24.2286C208.53 24.2286 207.075 24.8163 205.945 25.9918C204.815 27.1238 204.25 28.7782 204.25 30.9551C204.25 33.1755 204.837 34.8735 206.01 36.049C207.227 37.2245 208.748 37.8122 210.573 37.8122C212.398 37.8122 214.57 37.1374 217.09 35.7878L218.394 45.0612Z" fill="url(#paint5_radial)"/>
<path d="M253.935 45.9755L241.877 47.6082L234.707 32.7837V47.151H223.106V1.82857L234.707 0V27.8857L241.551 14.8245H254L245.136 29.9102L253.935 45.9755Z" fill="url(#paint6_radial)"/>
<defs>
<radialGradient id="paint0_radial" cx="0" cy="0" r="1" gradientUnits="userSpaceOnUse" gradientTransform="translate(234.769 45.0612) rotate(-168.91) scale(193.518 156.905)">
<stop stop-color="#F0AB48"/>
<stop offset="0.550547" stop-color="#B04DB7"/>
<stop offset="0.984375" stop-color="#515CD5"/>
</radialGradient>
<radialGradient id="paint1_radial" cx="0" cy="0" r="1" gradientUnits="userSpaceOnUse" gradientTransform="translate(234.769 45.0612) rotate(-168.91) scale(193.518 156.905)">
<stop stop-color="#F0AB48"/>
<stop offset="0.550547" stop-color="#B04DB7"/>
<stop offset="0.984375" stop-color="#515CD5"/>
</radialGradient>
<radialGradient id="paint2_radial" cx="0" cy="0" r="1" gradientUnits="userSpaceOnUse" gradientTransform="translate(234.769 45.0612) rotate(-168.91) scale(193.518 156.905)">
<stop stop-color="#F0AB48"/>
<stop offset="0.550547" stop-color="#B04DB7"/>
<stop offset="0.984375" stop-color="#515CD5"/>
</radialGradient>
<radialGradient id="paint3_radial" cx="0" cy="0" r="1" gradientUnits="userSpaceOnUse" gradientTransform="translate(234.769 45.0612) rotate(-168.91) scale(193.518 156.905)">
<stop stop-color="#F0AB48"/>
<stop offset="0.550547" stop-color="#B04DB7"/>
<stop offset="0.984375" stop-color="#515CD5"/>
</radialGradient>
<radialGradient id="paint4_radial" cx="0" cy="0" r="1" gradientUnits="userSpaceOnUse" gradientTransform="translate(234.769 45.0612) rotate(-168.91) scale(193.518 156.905)">
<stop stop-color="#F0AB48"/>
<stop offset="0.550547" stop-color="#B04DB7"/>
<stop offset="0.984375" stop-color="#515CD5"/>
</radialGradient>
<radialGradient id="paint5_radial" cx="0" cy="0" r="1" gradientUnits="userSpaceOnUse" gradientTransform="translate(234.769 45.0612) rotate(-168.91) scale(193.518 156.905)">
<stop stop-color="#F0AB48"/>
<stop offset="0.550547" stop-color="#B04DB7"/>
<stop offset="0.984375" stop-color="#515CD5"/>
</radialGradient>
<radialGradient id="paint6_radial" cx="0" cy="0" r="1" gradientUnits="userSpaceOnUse" gradientTransform="translate(234.769 45.0612) rotate(-168.91) scale(193.518 156.905)">
<stop stop-color="#F0AB48"/>
<stop offset="0.550547" stop-color="#B04DB7"/>
<stop offset="0.984375" stop-color="#515CD5"/>
</radialGradient>
</defs>
</svg>
