<svg width="98" height="120" viewBox="0 0 98 120" fill="none" xmlns="http://www.w3.org/2000/svg">
<path d="M24.3483 77.2042C24.3483 75.2113 22.9654 74.0229 20.5255 74.0229C19.5292 74.0229 18.8545 74.1212 18.5016 74.2153V80.6093C18.9195 80.7034 19.4332 80.7347 20.1413 80.7347C22.7419 80.7347 24.3483 79.4208 24.3483 77.2042Z" fill="white"/>
<path d="M39.4522 74.0898C38.3595 74.0898 37.6534 74.1841 37.2358 74.282V88.4428C37.6537 88.5409 38.3284 88.5409 38.9385 88.5409C43.371 88.5722 46.2618 86.1324 46.2618 80.9624C46.2932 76.4667 43.6589 74.0898 39.4522 74.0898Z" fill="white"/>
<path d="M67.5143 0H19.3175C12.2764 0 6.54567 5.73468 6.54567 12.7718V59.9997H5.29823C2.4564 59.9997 0.151672 62.3022 0.151672 65.1465V96.3584C0.151672 99.2025 2.45615 101.505 5.29823 101.505H6.54567V107.228C6.54567 114.273 12.2764 120 19.3175 120H85.08C92.1167 120 97.8481 114.273 97.8481 107.228V30.2275L67.5143 0ZM13.6532 70.7792C15.1615 70.5243 17.2816 70.3322 20.2685 70.3322C23.287 70.3322 25.4384 70.9084 26.884 72.0657C28.2648 73.1563 29.1967 74.9566 29.1967 77.0751C29.1967 79.1932 28.4906 80.9939 27.2058 82.2137C25.5348 83.7867 23.0635 84.4928 20.1727 84.4928C19.5293 84.4928 18.9526 84.4609 18.5016 84.3985V92.138H13.6532V70.7792ZM85.08 112.178H19.3175C16.5911 112.178 14.371 109.958 14.371 107.228V101.505H75.6752C78.5175 101.505 80.822 99.2025 80.822 96.3584V65.1465C80.822 62.3022 78.5175 59.9997 75.6752 59.9997H14.371V12.7718C14.371 10.0494 16.5914 7.82934 19.3175 7.82934L64.5881 7.78205V24.5157C64.5881 29.4034 68.554 33.373 73.4454 33.373L89.8378 33.3259L90.0222 107.228C90.0222 109.958 87.8061 112.178 85.08 112.178ZM32.323 92.0399V70.7792C34.1212 70.493 36.465 70.3322 38.9385 70.3322C43.0492 70.3322 45.7148 71.0696 47.8035 72.6424C50.0512 74.3134 51.4632 76.9771 51.4632 80.8013C51.4632 84.9435 49.9549 87.8033 47.8659 89.5682C45.5869 91.4627 42.1176 92.3612 37.8792 92.3612C35.341 92.3612 33.5428 92.2004 32.323 92.0399ZM67.3735 79.4523V83.4335H59.6006V92.138H54.6875V70.493H67.9185V74.5056H59.6006V79.4523H67.3735Z" fill="white"/>
</svg>
