<svg width="19" height="19" viewBox="0 0 19 19" fill="none" xmlns="http://www.w3.org/2000/svg">
<path d="M15.6299 14.2856L12.597 13.5272L12.422 12.8266C14.5144 12.4743 15.5911 11.8473 15.6386 11.8196C15.751 11.7539 15.8207 11.6343 15.8302 11.5045C15.8389 11.3747 15.7811 11.2472 15.6789 11.1657C15.6647 11.1546 14.25 9.9861 14.25 5.9375C14.25 2.52303 13.4512 0.791654 11.875 0.791654H11.6415C11.073 0.24225 10.6463 0 9.5 0C8.01247 0 4.75 1.49547 4.75 5.9375C4.75 9.9861 3.33528 11.1546 3.325 11.1625C3.21972 11.2417 3.16035 11.3675 3.16665 11.499C3.17378 11.6312 3.24503 11.7499 3.35825 11.818C3.40575 11.8465 4.47213 12.4767 6.57715 12.8282L6.40218 13.5272L3.36935 14.2856C1.3854 14.782 0 16.5569 0 18.6042C0 18.8227 0.177346 19 0.395846 19H18.6042C18.8227 19 19 18.8211 19 18.6026C19 16.5569 17.6146 14.782 15.6299 14.2856Z" fill="white"/>
</svg>
