<svg width="24" height="24" viewBox="0 0 24 24" fill="none" xmlns="http://www.w3.org/2000/svg">
<path d="M3.45569 3.86501V9.96683C3.45569 10.2106 3.65331 10.4081 3.89693 10.4081H9.99887C10.2425 10.4081 10.4401 10.2106 10.4401 9.96683V8.80983C10.4401 8.56607 10.2425 8.36859 9.99887 8.36859C9.75525 8.36859 9.55777 8.56607 9.55777 8.80983V9.52572H4.33817V4.30611H9.55777V5.36835C9.55777 5.61211 9.75525 5.80973 9.99887 5.80973C10.2425 5.80973 10.4401 5.61211 10.4401 5.36835V3.86501C10.4401 3.62125 10.2425 3.42377 9.99887 3.42377H3.89693C3.65331 3.42377 3.45569 3.62125 3.45569 3.86501Z" fill="#BB41C1"/>
<path d="M6.03241 5.55949C5.78865 5.55949 5.59131 5.75697 5.59131 6.0006V7.8312C5.59131 8.07483 5.78865 8.27245 6.03241 8.27245H7.86301C8.10663 8.27245 8.30425 8.07483 8.30425 7.8312V6.0006C8.30425 5.75697 8.10663 5.55949 7.86301 5.55949H6.03241ZM7.42191 7.3901H6.47365V6.44184H7.42191V7.3901Z" fill="#BB41C1"/>
<path d="M9.99887 13.5589H3.89693C3.65331 13.5589 3.45569 13.7563 3.45569 14V20.1021C3.45569 20.3457 3.65331 20.5432 3.89693 20.5432H9.99887C10.2425 20.5432 10.4401 20.3457 10.4401 20.1021V14C10.4401 13.7563 10.2425 13.5589 9.99887 13.5589ZM9.55777 19.6608H4.33817V14.4412H9.55777V19.6608Z" fill="#BB41C1"/>
<path d="M14.0625 10.4081H20.1646C20.4081 10.4081 20.6057 10.2106 20.6057 9.96683V3.86501C20.6057 3.62125 20.4081 3.42377 20.1646 3.42377H14.0625C13.8189 3.42377 13.6213 3.62125 13.6213 3.86501V9.96683C13.6213 10.2106 13.8189 10.4081 14.0625 10.4081ZM14.5036 4.30611H19.7232V9.52572H14.5036V4.30611Z" fill="#BB41C1"/>
<path d="M20.6057 20.1021V14C20.6057 13.7563 20.4081 13.5589 20.1646 13.5589H14.0625C13.8189 13.5589 13.6213 13.7563 13.6213 14V20.1021C13.6213 20.3457 13.8189 20.5432 14.0625 20.5432H20.1646C20.4081 20.5432 20.6057 20.3457 20.6057 20.1021ZM19.7232 19.6608H14.5036V14.4412H19.7232V19.6608Z" fill="#BB41C1"/>
<path d="M20.1647 12.4515C20.4082 12.4515 20.6058 12.2539 20.6058 12.0103C20.6058 11.7665 20.4082 11.5692 20.1647 11.5692H12.4293V3.81624C12.4293 3.57262 12.2316 3.375 11.9882 3.375C11.7443 3.375 11.5468 3.57262 11.5468 3.81624V11.5692H5.6908C5.44731 11.5692 5.24969 11.7666 5.24969 12.0103C5.24969 12.254 5.44731 12.4515 5.6908 12.4515H11.5468V20.1022C11.5468 20.3459 11.7443 20.5433 11.9882 20.5433C12.2316 20.5433 12.4293 20.3459 12.4293 20.1022V12.4515H20.1647Z" fill="#BB41C1"/>
<path d="M6.03241 18.4404H7.86301C8.10663 18.4404 8.30425 18.2428 8.30425 17.9992V16.1686C8.30425 15.9248 8.10663 15.7275 7.86301 15.7275H6.03241C5.78865 15.7275 5.59131 15.9248 5.59131 16.1686V17.9992C5.59131 18.2428 5.78865 18.4404 6.03241 18.4404ZM6.47365 16.6098H7.42191V17.5581H6.47365V16.6098Z" fill="#BB41C1"/>
<path d="M18.0285 5.55949H16.1979C15.9543 5.55949 15.7567 5.75697 15.7567 6.0006V7.8312C15.7567 8.07483 15.9543 8.27245 16.1979 8.27245H18.0285C18.2723 8.27245 18.4697 8.07483 18.4697 7.8312V6.0006C18.4697 5.75697 18.2723 5.55949 18.0285 5.55949ZM17.5873 7.3901H16.6393V6.44184H17.5873V7.3901Z" fill="#BB41C1"/>
<path d="M16.1979 18.4404H18.0285C18.2723 18.4404 18.4697 18.2428 18.4697 17.9992V16.1686C18.4697 15.9248 18.2723 15.7275 18.0285 15.7275H16.1979C15.9543 15.7275 15.7567 15.9248 15.7567 16.1686V17.9992C15.7567 18.2428 15.9543 18.4404 16.1979 18.4404ZM16.6393 16.6098H17.5873V17.5581H16.6393V16.6098Z" fill="#BB41C1"/>
<path d="M3.80744 11.5708L3.78368 11.5763C3.54652 11.6323 3.39957 11.8699 3.45547 12.1071C3.5034 12.3102 3.68453 12.4472 3.88448 12.4472C3.91813 12.4472 3.95205 12.4433 3.98611 12.4352L4.00973 12.4297C4.24703 12.3738 4.39397 12.1362 4.33794 11.899C4.28219 11.662 4.04461 11.515 3.80744 11.5708Z" fill="#BB41C1"/>
<path d="M9.90992 6.64893L9.88616 6.65456C9.64899 6.71018 9.50191 6.94762 9.55753 7.18492C9.60505 7.38831 9.78632 7.5255 9.98669 7.5255C10.0199 7.5255 10.0537 7.52165 10.0878 7.51355L10.1114 7.50806C10.3487 7.45244 10.4958 7.21486 10.4401 6.97783C10.3845 6.74067 10.1469 6.59331 9.90992 6.64893Z" fill="#BB41C1"/>
<path d="M1.17938 4.37542C1.42328 4.37542 1.62062 4.17794 1.62062 3.93432V1.64395H3.82764C4.0714 1.64395 4.26901 1.44661 4.26901 1.20285C4.26901 0.959228 4.0714 0.761612 3.82764 0.761612H1.17938C0.935898 0.761612 0.738281 0.959228 0.738281 1.20285V3.93432C0.738281 4.17794 0.935898 4.37542 1.17938 4.37542Z" fill="#BB41C1"/>
<path d="M22.7971 0.761612H20.1488C19.9051 0.761612 19.7075 0.959228 19.7075 1.20285C19.7075 1.44661 19.9051 1.64395 20.1488 1.64395H22.3559V3.93432C22.3559 4.17794 22.5532 4.37542 22.7971 4.37542C23.0406 4.37542 23.2382 4.17794 23.2382 3.93432V1.20285C23.2382 0.959228 23.0406 0.761612 22.7971 0.761612Z" fill="#BB41C1"/>
<path d="M3.82764 22.3604H1.62062V20.0701C1.62062 19.8267 1.42328 19.629 1.17938 19.629C0.935898 19.629 0.738281 19.8267 0.738281 20.0701V22.8016C0.738281 23.0453 0.935898 23.2429 1.17938 23.2429H3.82764C4.0714 23.2429 4.26901 23.0453 4.26901 22.8016C4.26901 22.5579 4.0714 22.3604 3.82764 22.3604Z" fill="#BB41C1"/>
<path d="M22.7971 19.629C22.5532 19.629 22.3559 19.8267 22.3559 20.0701V22.3604H20.1488C19.9051 22.3604 19.7075 22.5579 19.7075 22.8016C19.7075 23.0453 19.9051 23.2429 20.1488 23.2429H22.7971C23.0406 23.2429 23.2382 23.0453 23.2382 22.8016V20.0701C23.2382 19.8267 23.0406 19.629 22.7971 19.629Z" fill="#BB41C1"/>
</svg>
