<svg width="86" height="15" viewBox="0 0 86 15" fill="none" xmlns="http://www.w3.org/2000/svg">
<mask id="path-1-inside-1" fill="white">
<path d="M4.78686 7.68111L4.15336 11.5646C4.10286 11.8731 4.43236 12.1046 4.70486 11.9531L7.99986 10.1321L11.2949 11.9536C11.5649 12.1036 11.8974 11.8766 11.8464 11.5651L11.2129 7.68161L13.8929 4.9346C14.1054 4.7171 13.9834 4.3481 13.6814 4.3021L9.99236 3.7386L8.33886 0.216598C8.21536 -0.0464019 7.78386 -0.0464019 7.66036 0.216598L6.00736 3.7381L2.31836 4.3016C2.01536 4.3481 1.89436 4.7166 2.10686 4.9341L4.78686 7.68111Z"/>
</mask>
<path d="M4.78686 7.68111L4.15336 11.5646C4.10286 11.8731 4.43236 12.1046 4.70486 11.9531L7.99986 10.1321L11.2949 11.9536C11.5649 12.1036 11.8974 11.8766 11.8464 11.5651L11.2129 7.68161L13.8929 4.9346C14.1054 4.7171 13.9834 4.3481 13.6814 4.3021L9.99236 3.7386L8.33886 0.216598C8.21536 -0.0464019 7.78386 -0.0464019 7.66036 0.216598L6.00736 3.7381L2.31836 4.3016C2.01536 4.3481 1.89436 4.7166 2.10686 4.9341L4.78686 7.68111Z" fill="#FCFF66"/>
<path d="M4.78686 7.68111L11.4358 8.76572L11.9832 5.41019L9.60897 2.97661L4.78686 7.68111ZM4.15336 11.5646L10.8017 12.6529L10.8023 12.6492L4.15336 11.5646ZM4.70486 11.9531L1.44623 6.05681L1.43877 6.06093L1.43132 6.06507L4.70486 11.9531ZM7.99986 10.1321L11.2592 4.23618L8.00031 2.43466L4.74123 4.23581L7.99986 10.1321ZM11.2949 11.9536L14.5666 6.06455L14.5604 6.06111L14.5542 6.05769L11.2949 11.9536ZM11.8464 11.5651L5.1974 12.6497L5.19804 12.6536L11.8464 11.5651ZM11.2129 7.68161L6.39075 2.97711L4.01653 5.41069L4.5639 8.76622L11.2129 7.68161ZM13.8929 4.9346L9.07413 0.226647L9.07075 0.230108L13.8929 4.9346ZM13.6814 4.3021L12.6641 10.9617L12.6669 10.9621L13.6814 4.3021ZM9.99236 3.7386L3.89413 6.60158L5.42173 9.85542L8.9751 10.3982L9.99236 3.7386ZM8.33886 0.216598L14.4371 -2.64638L14.4368 -2.6469L8.33886 0.216598ZM7.66036 0.216598L1.56238 -2.6469L1.56196 -2.646L7.66036 0.216598ZM6.00736 3.7381L7.02463 10.3977L10.5783 9.85488L12.1058 6.6007L6.00736 3.7381ZM2.31836 4.3016L1.3011 -2.358L1.29645 -2.35728L2.31836 4.3016ZM2.10686 4.9341L6.92898 0.229607L6.9256 0.226148L2.10686 4.9341ZM-1.8621 6.59649L-2.4956 10.48L10.8023 12.6492L11.4358 8.76572L-1.8621 6.59649ZM-2.495 10.4763C-3.45409 16.3354 2.77514 20.734 7.9784 17.8412L1.43132 6.06507C6.08958 3.47525 11.6598 7.41086 10.8017 12.6529L-2.495 10.4763ZM7.96349 17.8494L11.2585 16.0284L4.74123 4.23581L1.44623 6.05681L7.96349 17.8494ZM4.74055 16.028L8.03555 17.8495L14.5542 6.05769L11.2592 4.23618L4.74055 16.028ZM8.02316 17.8427C13.1304 20.68 19.4716 16.4433 18.4947 10.4766L5.19804 12.6536C4.32315 7.30995 9.99937 3.52722 14.5666 6.06455L8.02316 17.8427ZM18.4953 10.4805L17.8618 6.59699L4.5639 8.76622L5.1974 12.6497L18.4953 10.4805ZM16.035 12.3861L18.715 9.6391L9.07075 0.230108L6.39075 2.97711L16.035 12.3861ZM18.7116 9.64256C22.7381 5.52134 20.451 -1.48131 14.6958 -2.35792L12.6669 10.9621C7.51574 10.1775 5.47265 3.91287 9.07413 0.226648L18.7116 9.64256ZM14.6986 -2.35749L11.0096 -2.92099L8.9751 10.3982L12.6641 10.9617L14.6986 -2.35749ZM16.0906 0.875624L14.4371 -2.64638L2.24063 3.07958L3.89413 6.60158L16.0906 0.875624ZM14.4368 -2.6469C12.9949 -5.7177 10.0481 -6.71749 7.99961 -6.71749C5.95111 -6.71749 3.00436 -5.7177 1.56238 -2.6469L13.7583 3.0801C12.4399 5.88789 9.77061 6.75619 7.99961 6.75619C6.22861 6.75619 3.55936 5.88789 2.24088 3.0801L14.4368 -2.6469ZM1.56196 -2.646L-0.0910449 0.875499L12.1058 6.6007L13.7588 3.0792L1.56196 -2.646ZM4.9901 -2.92149L1.3011 -2.35799L3.33562 10.9612L7.02463 10.3977L4.9901 -2.92149ZM1.29645 -2.35728C-4.45898 -1.47402 -6.73338 5.52593 -2.71187 9.64206L6.9256 0.226148C10.5221 3.90728 8.48971 10.1702 3.34027 10.9605L1.29645 -2.35728ZM-2.71525 9.6386L-0.0352519 12.3856L9.60897 2.97661L6.92897 0.229608L-2.71525 9.6386Z" fill="#FCFF66" mask="url(#path-1-inside-1)"/>
<mask id="path-3-inside-2" fill="white">
<path d="M22.4712 7.68111L21.8377 11.5646C21.7872 11.8731 22.1167 12.1046 22.3892 11.9531L25.6842 10.1321L28.9792 11.9536C29.2492 12.1036 29.5817 11.8766 29.5307 11.5651L28.8972 7.68161L31.5772 4.9346C31.7897 4.7171 31.6677 4.3481 31.3657 4.3021L27.6767 3.7386L26.0232 0.216598C25.8997 -0.0464019 25.4682 -0.0464019 25.3447 0.216598L23.6917 3.7381L20.0027 4.3016C19.6997 4.3481 19.5787 4.7166 19.7912 4.9341L22.4712 7.68111Z"/>
</mask>
<path d="M22.4712 7.68111L21.8377 11.5646C21.7872 11.8731 22.1167 12.1046 22.3892 11.9531L25.6842 10.1321L28.9792 11.9536C29.2492 12.1036 29.5817 11.8766 29.5307 11.5651L28.8972 7.68161L31.5772 4.9346C31.7897 4.7171 31.6677 4.3481 31.3657 4.3021L27.6767 3.7386L26.0232 0.216598C25.8997 -0.0464019 25.4682 -0.0464019 25.3447 0.216598L23.6917 3.7381L20.0027 4.3016C19.6997 4.3481 19.5787 4.7166 19.7912 4.9341L22.4712 7.68111Z" fill="#FCFF66"/>
<path d="M22.4712 7.68111L29.1201 8.76572L29.6675 5.41019L27.2933 2.97661L22.4712 7.68111ZM21.8377 11.5646L28.486 12.6529L28.4866 12.6492L21.8377 11.5646ZM22.3892 11.9531L19.1305 6.05681L19.1231 6.06093L19.1156 6.06507L22.3892 11.9531ZM25.6842 10.1321L28.9435 4.23618L25.6846 2.43466L22.4255 4.23581L25.6842 10.1321ZM28.9792 11.9536L32.2509 6.06455L32.2447 6.06111L32.2385 6.05769L28.9792 11.9536ZM29.5307 11.5651L22.8817 12.6497L22.8823 12.6536L29.5307 11.5651ZM28.8972 7.68161L24.075 2.97711L21.7008 5.41069L22.2482 8.76622L28.8972 7.68161ZM31.5772 4.9346L26.7584 0.226647L26.755 0.230108L31.5772 4.9346ZM31.3657 4.3021L30.3484 10.9617L30.3512 10.9621L31.3657 4.3021ZM27.6767 3.7386L21.5784 6.60158L23.106 9.85542L26.6594 10.3982L27.6767 3.7386ZM26.0232 0.216598L32.1214 -2.64638L32.1211 -2.6469L26.0232 0.216598ZM25.3447 0.216598L19.2467 -2.6469L19.2463 -2.646L25.3447 0.216598ZM23.6917 3.7381L24.7089 10.3977L28.2625 9.85488L29.7901 6.6007L23.6917 3.7381ZM20.0027 4.3016L18.9854 -2.358L18.9807 -2.35728L20.0027 4.3016ZM19.7912 4.9341L24.6133 0.229607L24.6099 0.226148L19.7912 4.9341ZM15.8222 6.59649L15.1887 10.48L28.4866 12.6492L29.1201 8.76572L15.8222 6.59649ZM15.1893 10.4763C14.2302 16.3354 20.4594 20.734 25.6627 17.8412L19.1156 6.06507C23.7739 3.47525 29.3441 7.41086 28.486 12.6529L15.1893 10.4763ZM25.6478 17.8494L28.9428 16.0284L22.4255 4.23581L19.1305 6.05681L25.6478 17.8494ZM22.4248 16.028L25.7198 17.8495L32.2385 6.05769L28.9435 4.23618L22.4248 16.028ZM25.7075 17.8427C30.8146 20.68 37.1559 16.4433 36.179 10.4766L22.8823 12.6536C22.0074 7.30995 27.6837 3.52722 32.2509 6.06455L25.7075 17.8427ZM36.1796 10.4805L35.5461 6.59699L22.2482 8.76622L22.8817 12.6497L36.1796 10.4805ZM33.7193 12.3861L36.3993 9.6391L26.755 0.230108L24.075 2.97711L33.7193 12.3861ZM36.3959 9.64256C40.4224 5.52134 38.1353 -1.48131 32.3801 -2.35792L30.3512 10.9621C25.2 10.1775 23.1569 3.91287 26.7584 0.226648L36.3959 9.64256ZM32.3829 -2.35749L28.6939 -2.92099L26.6594 10.3982L30.3484 10.9617L32.3829 -2.35749ZM33.7749 0.875624L32.1214 -2.64638L19.9249 3.07958L21.5784 6.60158L33.7749 0.875624ZM32.1211 -2.6469C30.6792 -5.7177 27.7324 -6.71749 25.6839 -6.71749C23.6354 -6.71749 20.6887 -5.7177 19.2467 -2.6469L31.4426 3.0801C30.1242 5.88789 27.4549 6.75619 25.6839 6.75619C23.9129 6.75619 21.2437 5.88789 19.9252 3.0801L32.1211 -2.6469ZM19.2463 -2.646L17.5933 0.875499L29.7901 6.6007L31.4431 3.0792L19.2463 -2.646ZM22.6744 -2.92149L18.9854 -2.35799L21.0199 10.9612L24.7089 10.3977L22.6744 -2.92149ZM18.9807 -2.35728C13.2253 -1.47402 10.9509 5.52593 14.9724 9.64206L24.6099 0.226148C28.2064 3.90728 26.174 10.1702 21.0246 10.9605L18.9807 -2.35728ZM14.969 9.6386L17.649 12.3856L27.2933 2.97661L24.6133 0.229608L14.969 9.6386Z" fill="#FCFF66" mask="url(#path-3-inside-2)"/>
<mask id="path-5-inside-3" fill="white">
<path d="M40.1555 7.68111L39.522 11.5646C39.4715 11.8731 39.801 12.1046 40.0735 11.9531L43.3685 10.1321L46.6635 11.9536C46.9335 12.1036 47.266 11.8766 47.215 11.5651L46.5815 7.68161L49.2615 4.9346C49.474 4.7171 49.352 4.3481 49.05 4.3021L45.361 3.7386L43.7075 0.216598C43.584 -0.0464019 43.1525 -0.0464019 43.029 0.216598L41.376 3.7381L37.687 4.3016C37.384 4.3481 37.263 4.7166 37.4755 4.9341L40.1555 7.68111Z"/>
</mask>
<path d="M40.1555 7.68111L39.522 11.5646C39.4715 11.8731 39.801 12.1046 40.0735 11.9531L43.3685 10.1321L46.6635 11.9536C46.9335 12.1036 47.266 11.8766 47.215 11.5651L46.5815 7.68161L49.2615 4.9346C49.474 4.7171 49.352 4.3481 49.05 4.3021L45.361 3.7386L43.7075 0.216598C43.584 -0.0464019 43.1525 -0.0464019 43.029 0.216598L41.376 3.7381L37.687 4.3016C37.384 4.3481 37.263 4.7166 37.4755 4.9341L40.1555 7.68111Z" fill="#FCFF66"/>
<path d="M40.1555 7.68111L46.8044 8.76572L47.3518 5.41019L44.9776 2.97661L40.1555 7.68111ZM39.522 11.5646L46.1703 12.6529L46.1709 12.6492L39.522 11.5646ZM40.0735 11.9531L36.8149 6.05681L36.8074 6.06093L36.7999 6.06507L40.0735 11.9531ZM43.3685 10.1321L46.6278 4.23618L43.3689 2.43466L40.1099 4.23581L43.3685 10.1321ZM46.6635 11.9536L49.9352 6.06455L49.929 6.06111L49.9228 6.05769L46.6635 11.9536ZM47.215 11.5651L40.566 12.6497L40.5667 12.6536L47.215 11.5651ZM46.5815 7.68161L41.7594 2.97711L39.3851 5.41069L39.9325 8.76622L46.5815 7.68161ZM49.2615 4.9346L44.4427 0.226647L44.4394 0.230108L49.2615 4.9346ZM49.05 4.3021L48.0327 10.9617L48.0355 10.9621L49.05 4.3021ZM45.361 3.7386L39.2628 6.60158L40.7904 9.85542L44.3437 10.3982L45.361 3.7386ZM43.7075 0.216598L49.8057 -2.64638L49.8055 -2.6469L43.7075 0.216598ZM43.029 0.216598L36.931 -2.6469L36.9306 -2.646L43.029 0.216598ZM41.376 3.7381L42.3932 10.3977L45.9469 9.85488L47.4744 6.6007L41.376 3.7381ZM37.687 4.3016L36.6697 -2.358L36.6651 -2.35728L37.687 4.3016ZM37.4755 4.9341L42.2976 0.229607L42.2942 0.226148L37.4755 4.9341ZM33.5065 6.59649L32.873 10.48L46.1709 12.6492L46.8044 8.76572L33.5065 6.59649ZM32.8736 10.4763C31.9145 16.3354 38.1438 20.734 43.347 17.8412L36.7999 6.06507C41.4582 3.47525 47.0284 7.41086 46.1703 12.6529L32.8736 10.4763ZM43.3321 17.8494L46.6271 16.0284L40.1099 4.23581L36.8149 6.05681L43.3321 17.8494ZM40.1092 16.028L43.4042 17.8495L49.9228 6.05769L46.6278 4.23618L40.1092 16.028ZM43.3918 17.8427C48.499 20.68 54.8402 16.4433 53.8633 10.4766L40.5667 12.6536C39.6918 7.30995 45.368 3.52722 49.9352 6.06455L43.3918 17.8427ZM53.8639 10.4805L53.2304 6.59699L39.9325 8.76622L40.566 12.6497L53.8639 10.4805ZM51.4036 12.3861L54.0836 9.6391L44.4394 0.230108L41.7594 2.97711L51.4036 12.3861ZM54.0802 9.64256C58.1067 5.52134 55.8196 -1.48131 50.0644 -2.35792L48.0355 10.9621C42.8844 10.1775 40.8413 3.91287 44.4427 0.226648L54.0802 9.64256ZM50.0672 -2.35749L46.3782 -2.92099L44.3437 10.3982L48.0327 10.9617L50.0672 -2.35749ZM51.4592 0.875624L49.8057 -2.64638L37.6093 3.07958L39.2628 6.60158L51.4592 0.875624ZM49.8055 -2.6469C48.3635 -5.7177 45.4167 -6.71749 43.3682 -6.71749C41.3197 -6.71749 38.373 -5.7177 36.931 -2.6469L49.127 3.0801C47.8085 5.88789 45.1392 6.75619 43.3682 6.75619C41.5972 6.75619 38.928 5.88789 37.6095 3.0801L49.8055 -2.6469ZM36.9306 -2.646L35.2776 0.875499L47.4744 6.6007L49.1274 3.0792L36.9306 -2.646ZM40.3587 -2.92149L36.6697 -2.35799L38.7042 10.9612L42.3932 10.3977L40.3587 -2.92149ZM36.6651 -2.35728C30.9096 -1.47402 28.6352 5.52593 32.6567 9.64206L42.2942 0.226148C45.8907 3.90728 43.8583 10.1702 38.7089 10.9605L36.6651 -2.35728ZM32.6534 9.6386L35.3334 12.3856L44.9776 2.97661L42.2976 0.229608L32.6534 9.6386Z" fill="#FCFF66" mask="url(#path-5-inside-3)"/>
<mask id="path-7-inside-4" fill="white">
<path d="M57.8398 7.68111L57.2063 11.5646C57.1558 11.8731 57.4853 12.1046 57.7578 11.9531L61.0528 10.1321L64.3478 11.9536C64.6178 12.1036 64.9503 11.8766 64.8993 11.5651L64.2658 7.68161L66.9458 4.9346C67.1583 4.7171 67.0363 4.3481 66.7343 4.3021L63.0453 3.7386L61.3918 0.216598C61.2683 -0.0464019 60.8368 -0.0464019 60.7133 0.216598L59.0603 3.7381L55.3713 4.3016C55.0683 4.3481 54.9473 4.7166 55.1598 4.9341L57.8398 7.68111Z"/>
</mask>
<path d="M57.8398 7.68111L57.2063 11.5646C57.1558 11.8731 57.4853 12.1046 57.7578 11.9531L61.0528 10.1321L64.3478 11.9536C64.6178 12.1036 64.9503 11.8766 64.8993 11.5651L64.2658 7.68161L66.9458 4.9346C67.1583 4.7171 67.0363 4.3481 66.7343 4.3021L63.0453 3.7386L61.3918 0.216598C61.2683 -0.0464019 60.8368 -0.0464019 60.7133 0.216598L59.0603 3.7381L55.3713 4.3016C55.0683 4.3481 54.9473 4.7166 55.1598 4.9341L57.8398 7.68111Z" fill="#FCFF66"/>
<path d="M57.8398 7.68111L64.4888 8.76572L65.0361 5.41019L62.6619 2.97661L57.8398 7.68111ZM57.2063 11.5646L63.8547 12.6529L63.8553 12.6492L57.2063 11.5646ZM57.7578 11.9531L54.4992 6.05681L54.4917 6.06093L54.4843 6.06507L57.7578 11.9531ZM61.0528 10.1321L64.3121 4.23618L61.0533 2.43466L57.7942 4.2358L61.0528 10.1321ZM64.3478 11.9536L67.6195 6.06455L67.6133 6.06111L67.6071 6.05768L64.3478 11.9536ZM64.8993 11.5651L58.2504 12.6497L58.251 12.6536L64.8993 11.5651ZM64.2658 7.68161L59.4437 2.97711L57.0695 5.41069L57.6169 8.76622L64.2658 7.68161ZM66.9458 4.9346L62.1271 0.226646L62.1237 0.230108L66.9458 4.9346ZM66.7343 4.3021L65.717 10.9617L65.7199 10.9621L66.7343 4.3021ZM63.0453 3.7386L56.9471 6.60158L58.4747 9.85542L62.028 10.3982L63.0453 3.7386ZM61.3918 0.216598L67.49 -2.64638L67.4898 -2.6469L61.3918 0.216598ZM60.7133 0.216598L54.6153 -2.6469L54.6149 -2.646L60.7133 0.216598ZM59.0603 3.7381L60.0776 10.3977L63.6312 9.85488L65.1587 6.6007L59.0603 3.7381ZM55.3713 4.3016L54.354 -2.358L54.3494 -2.35728L55.3713 4.3016ZM55.1598 4.9341L59.9819 0.229606L59.9785 0.226147L55.1598 4.9341ZM51.1909 6.59649L50.5574 10.48L63.8553 12.6492L64.4888 8.76572L51.1909 6.59649ZM50.558 10.4763C49.5989 16.3354 55.8281 20.734 61.0313 17.8411L54.4843 6.06507C59.1425 3.47525 64.7128 7.41086 63.8547 12.6529L50.558 10.4763ZM61.0164 17.8494L64.3114 16.0284L57.7942 4.2358L54.4992 6.05681L61.0164 17.8494ZM57.7935 16.028L61.0885 17.8495L67.6071 6.05768L64.3121 4.23618L57.7935 16.028ZM61.0761 17.8427C66.1833 20.68 72.5245 16.4433 71.5476 10.4766L58.251 12.6536C57.3761 7.30994 63.0523 3.52722 67.6195 6.06455L61.0761 17.8427ZM71.5483 10.4805L70.9148 6.59699L57.6169 8.76622L58.2504 12.6497L71.5483 10.4805ZM69.0879 12.3861L71.7679 9.6391L62.1237 0.230108L59.4437 2.97711L69.0879 12.3861ZM71.7645 9.64256C75.791 5.52134 73.5039 -1.48131 67.7488 -2.35792L65.7199 10.9621C60.5687 10.1775 58.5256 3.91286 62.1271 0.226647L71.7645 9.64256ZM67.7516 -2.35749L64.0626 -2.92099L62.028 10.3982L65.717 10.9617L67.7516 -2.35749ZM69.1435 0.875623L67.49 -2.64638L55.2936 3.07958L56.9471 6.60158L69.1435 0.875623ZM67.4898 -2.6469C66.0478 -5.7177 63.1011 -6.71749 61.0526 -6.71749C59.0041 -6.71749 56.0573 -5.7177 54.6153 -2.6469L66.8113 3.0801C65.4928 5.88789 62.8236 6.75619 61.0526 6.75619C59.2816 6.75619 56.6123 5.88789 55.2938 3.0801L67.4898 -2.6469ZM54.6149 -2.646L52.9619 0.875499L65.1587 6.6007L66.8117 3.0792L54.6149 -2.646ZM58.043 -2.9215L54.354 -2.35799L56.3886 10.9612L60.0776 10.3977L58.043 -2.9215ZM54.3494 -2.35728C48.594 -1.47402 46.3196 5.52592 50.3411 9.64206L59.9785 0.226147C63.5751 3.90728 61.5427 10.1702 56.3932 10.9605L54.3494 -2.35728ZM50.3377 9.6386L53.0177 12.3856L62.6619 2.97661L59.9819 0.229607L50.3377 9.6386Z" fill="#FCFF66" mask="url(#path-7-inside-4)"/>
<path d="M75.5241 7.68111L74.8906 11.5646C74.8401 11.8731 75.1696 12.1046 75.4421 11.9531L78.7371 10.1321L82.0321 11.9536C82.3021 12.1036 82.6346 11.8766 82.5836 11.5651L81.9501 7.68161L84.6301 4.9346C84.8426 4.7171 84.7206 4.3481 84.4186 4.3021L80.7296 3.7386L79.0761 0.216598C78.9526 -0.0464019 78.5211 -0.0464019 78.3976 0.216598L76.7446 3.7381L73.0556 4.3016C72.7526 4.3481 72.6316 4.7166 72.8441 4.9341L75.5241 7.68111Z" fill="#F0F5F5"/>
<defs>
<filter id="filter0_d" x="0.736842" y="0" width="85.2632" height="14.5263" filterUnits="userSpaceOnUse" color-interpolation-filters="sRGB">
<feFlood flood-opacity="0" result="BackgroundImageFix"/>
<feColorMatrix in="SourceAlpha" type="matrix" values="0 0 0 0 0 0 0 0 0 0 0 0 0 0 0 0 0 0 127 0"/>
<feOffset dy="1.26316"/>
<feGaussianBlur stdDeviation="0.631579"/>
<feColorMatrix type="matrix" values="0 0 0 0 0 0 0 0 0 0 0 0 0 0 0 0 0 0 0.08 0"/>
<feBlend mode="normal" in2="BackgroundImageFix" result="effect1_dropShadow"/>
<feBlend mode="normal" in="SourceGraphic" in2="effect1_dropShadow" result="shape"/>
</filter>
<clipPath id="clip0">
<rect width="82.7368" height="12" fill="white" transform="translate(2)"/>
</clipPath>
<clipPath id="clip1">
<rect width="12" height="12" fill="white" transform="translate(2)"/>
</clipPath>
<clipPath id="clip2">
<rect width="12" height="12" fill="white" transform="translate(19.6842)"/>
</clipPath>
<clipPath id="clip3">
<rect width="12" height="12" fill="white" transform="translate(37.3684)"/>
</clipPath>
<clipPath id="clip4">
<rect width="12" height="12" fill="white" transform="translate(55.0526)"/>
</clipPath>
<clipPath id="clip5">
<rect width="12" height="12" fill="white" transform="translate(72.7368)"/>
</clipPath>
</defs>
</svg>
