<svg width="92" height="12" viewBox="0 0 92 12" fill="none" xmlns="http://www.w3.org/2000/svg">
<path d="M2.78695 7.68092L2.15345 11.5644C2.10295 11.8729 2.43245 12.1044 2.70495 11.9529L5.99995 10.1319L9.29495 11.9534C9.56495 12.1034 9.89745 11.8764 9.84645 11.5649L9.21295 7.68142L11.893 4.93442C12.1055 4.71692 11.9835 4.34792 11.6815 4.30192L7.99245 3.73842L6.33895 0.216415C6.21545 -0.046585 5.78395 -0.046585 5.66045 0.216415L4.00745 3.73792L0.318453 4.30142C0.0154525 4.34792 -0.105548 4.71642 0.106953 4.93392L2.78695 7.68092Z" fill="#FED600"/>
<path d="M22.787 7.68092L22.1535 11.5644C22.103 11.8729 22.4325 12.1044 22.705 11.9529L26 10.1319L29.295 11.9534C29.565 12.1034 29.8975 11.8764 29.8465 11.5649L29.213 7.68142L31.893 4.93442C32.1055 4.71692 31.9835 4.34792 31.6815 4.30192L27.9925 3.73842L26.339 0.216415C26.2155 -0.046585 25.784 -0.046585 25.6605 0.216415L24.0075 3.73792L20.3185 4.30142C20.0155 4.34792 19.8945 4.71642 20.107 4.93392L22.787 7.68092Z" fill="#FED600"/>
<path d="M42.787 7.68092L42.1535 11.5644C42.103 11.8729 42.4325 12.1044 42.705 11.9529L46 10.1319L49.295 11.9534C49.565 12.1034 49.8975 11.8764 49.8465 11.5649L49.213 7.68142L51.893 4.93442C52.1055 4.71692 51.9835 4.34792 51.6815 4.30192L47.9925 3.73842L46.339 0.216415C46.2155 -0.046585 45.784 -0.046585 45.6605 0.216415L44.0075 3.73792L40.3185 4.30142C40.0155 4.34792 39.8945 4.71642 40.107 4.93392L42.787 7.68092Z" fill="#FED600"/>
<path d="M62.787 7.6808L62.1535 11.5643C62.103 11.8728 62.4325 12.1043 62.705 11.9528L66 10.1318L69.295 11.9533C69.565 12.1033 69.8975 11.8763 69.8465 11.5648L69.213 7.6813L71.893 4.9343C72.1055 4.7168 71.9835 4.3478 71.6815 4.3018L67.9925 3.7383L66.339 0.216293C66.2155 -0.0467071 65.784 -0.0467071 65.6605 0.216293L64.0075 3.7378L60.3185 4.3013C60.0155 4.3478 59.8945 4.7163 60.107 4.9338L62.787 7.6808Z" fill="#FED600"/>
<path opacity="0.2" d="M82.787 7.6808L82.1535 11.5643C82.103 11.8728 82.4325 12.1043 82.705 11.9528L86 10.1318L89.295 11.9533C89.565 12.1033 89.8975 11.8763 89.8465 11.5648L89.213 7.6813L91.893 4.9343C92.1055 4.7168 91.9835 4.3478 91.6815 4.3018L87.9925 3.7383L86.339 0.216293C86.2155 -0.0467071 85.784 -0.0467071 85.6605 0.216293L84.0075 3.7378L80.3185 4.3013C80.0155 4.3478 79.8945 4.7163 80.107 4.9338L82.787 7.6808Z" fill="#222222"/>
<clipPath id="clip0">
<rect width="12" height="12" fill="white"/>
</clipPath>
<clipPath id="clip1">
<rect width="12" height="12" fill="white" transform="translate(20)"/>
</clipPath>
<clipPath id="clip2">
<rect width="12" height="12" fill="white" transform="translate(40)"/>
</clipPath>
<clipPath id="clip3">
<rect width="12" height="12" fill="white" transform="translate(60)"/>
</clipPath>
<clipPath id="clip4">
<rect width="12" height="12" fill="white" transform="translate(80)"/>
</clipPath>
</defs>
</svg>
