<svg width="38" height="38" viewBox="0 0 38 38" fill="none" xmlns="http://www.w3.org/2000/svg">
<mask id="path-1-inside-1" fill="white">
<path d="M8.82549 24.3228L6.81941 36.6205C6.65949 37.5975 7.70291 38.3305 8.56583 37.8508L19 32.0843L29.4342 37.8524C30.2892 38.3274 31.3421 37.6085 31.1806 36.6221L29.1745 24.3244L37.6612 15.6255C38.3341 14.9368 37.9477 13.7683 36.9914 13.6226L25.3096 11.8382L20.0735 0.685173C19.6824 -0.147662 18.316 -0.147662 17.9249 0.685173L12.6904 11.8366L1.00858 13.621C0.0490754 13.7683 -0.334091 14.9352 0.338825 15.6239L8.82549 24.3228Z"/>
</mask>
<path d="M8.82549 24.3228L6.81941 36.6205C6.65949 37.5975 7.70291 38.3305 8.56583 37.8508L19 32.0843L29.4342 37.8524C30.2892 38.3274 31.3421 37.6085 31.1806 36.6221L29.1745 24.3244L37.6612 15.6255C38.3341 14.9368 37.9477 13.7683 36.9914 13.6226L25.3096 11.8382L20.0735 0.685173C19.6824 -0.147662 18.316 -0.147662 17.9249 0.685173L12.6904 11.8366L1.00858 13.621C0.0490754 13.7683 -0.334091 14.9352 0.338825 15.6239L8.82549 24.3228Z" fill="#FCFF66"/>
<path d="M8.82549 24.3228L29.8805 27.7574L31.6139 17.1315L24.0955 9.42522L8.82549 24.3228ZM6.81941 36.6205L27.8725 40.0668L27.8744 40.0552L6.81941 36.6205ZM8.56583 37.8508L-1.75316 19.1792L-1.77678 19.1922L-1.80037 19.2053L8.56583 37.8508ZM19 32.0843L29.3212 13.4139L19.0014 7.70903L8.68101 13.4127L19 32.0843ZM29.4342 37.8524L39.7946 19.2037L39.7749 19.1928L39.7553 19.182L29.4342 37.8524ZM31.1806 36.6221L10.1255 40.0568L10.1275 40.069L31.1806 36.6221ZM29.1745 24.3244L13.9045 9.4268L6.38611 17.1331L8.11946 27.759L29.1745 24.3244ZM37.6612 15.6255L22.4018 0.717L22.3965 0.722477L22.3911 0.727957L37.6612 15.6255ZM36.9914 13.6226L33.7701 34.7113L33.779 34.7127L36.9914 13.6226ZM25.3096 11.8382L5.99852 20.9043L10.8359 31.2081L22.0882 32.9269L25.3096 11.8382ZM20.0735 0.685173L39.3846 -8.38093L39.3838 -8.38258L20.0735 0.685173ZM17.9249 0.685173L-1.38537 -8.38258L-1.38671 -8.37973L17.9249 0.685173ZM12.6904 11.8366L15.9117 32.9253L27.1649 31.2064L32.002 20.9015L12.6904 11.8366ZM1.00858 13.621L-2.21276 -7.4677L-2.22011 -7.46658L-2.22747 -7.46545L1.00858 13.621ZM0.338825 15.6239L15.6088 0.726372L15.6035 0.720893L15.5982 0.715417L0.338825 15.6239ZM-12.2295 20.8882L-14.2356 33.1859L27.8744 40.0552L29.8805 27.7574L-12.2295 20.8882ZM-14.2337 33.1743C-17.2709 51.7279 2.45504 65.6569 18.932 56.4963L-1.80037 19.2053C12.9508 11.0042 30.5898 23.467 27.8725 40.0668L-14.2337 33.1743ZM18.8848 56.5224L29.319 50.7559L8.68101 13.4127L-1.75316 19.1792L18.8848 56.5224ZM8.67884 50.7547L19.113 56.5228L39.7553 19.182L29.3212 13.4139L8.67884 50.7547ZM19.0738 56.5011C35.2465 65.4859 55.3271 52.0696 52.2336 33.1752L10.1275 40.069C7.35709 23.1475 25.3318 11.1688 39.7946 19.2037L19.0738 56.5011ZM52.2356 33.1875L50.2295 20.8897L8.11946 27.759L10.1255 40.0568L52.2356 33.1875ZM44.4445 39.2219L52.9312 30.5231L22.3911 0.727957L13.9045 9.4268L44.4445 39.2219ZM52.9205 30.534C65.671 17.4835 58.4285 -4.69152 40.2038 -7.46748L33.779 34.7127C17.467 32.2281 10.9972 12.39 22.4018 0.717L52.9205 30.534ZM40.2128 -7.46612L28.5309 -9.25053L22.0882 32.9269L33.7701 34.7113L40.2128 -7.46612ZM44.6206 2.77209L39.3846 -8.38093L0.762436 9.75127L5.99852 20.9043L44.6206 2.77209ZM39.3838 -8.38258C34.8175 -18.1068 25.4861 -21.2728 18.9992 -21.2728C12.5123 -21.2728 3.18092 -18.1068 -1.38537 -8.38258L37.2352 9.75292C33.06 18.6443 24.6074 21.3939 18.9992 21.3939C13.391 21.3939 4.93842 18.6443 0.763211 9.75292L39.3838 -8.38258ZM-1.38671 -8.37973L-6.62121 2.77169L32.002 20.9015L37.2365 9.75008L-1.38671 -8.37973ZM9.46908 -9.25212L-2.21276 -7.4677L4.22991 34.7097L15.9117 32.9253L9.46908 -9.25212ZM-2.22747 -7.46545C-20.453 -4.66845 -27.6553 17.498 -14.9205 30.5325L15.5982 0.715417C26.9871 12.3723 20.5512 32.205 4.24462 34.7075L-2.22747 -7.46545ZM-14.9312 30.5215L-6.44453 39.2204L24.0955 9.42522L15.6088 0.726372L-14.9312 30.5215Z" fill="#FCFF66" mask="url(#path-1-inside-1)"/>
</svg>
