<svg width="24" height="24" viewBox="0 0 24 24" fill="none" xmlns="http://www.w3.org/2000/svg">
<path d="M11.8847 17.1687C14.7346 17.1687 17.0531 14.8502 17.0531 12.0003C17.0531 9.15037 14.7346 6.83179 11.8847 6.83179C9.0348 6.83179 6.71622 9.15037 6.71622 12.0003C6.71622 14.8502 9.0348 17.1687 11.8847 17.1687ZM11.8847 7.53491C14.3469 7.53491 16.35 9.53802 16.35 12.0003C16.35 14.4624 14.3469 16.4656 11.8847 16.4656C9.4225 16.4656 7.41934 14.4625 7.41934 12.0003C7.41934 9.53807 9.4225 7.53491 11.8847 7.53491Z" fill="#00CEF9"/>
<path d="M10.6804 13.8862C10.9944 14.0916 11.2232 14.171 11.5098 14.1978V14.4045C11.5098 14.5987 11.6671 14.7561 11.8613 14.7561C12.0555 14.7561 12.2129 14.5987 12.2129 14.4045V14.1647C12.7834 14.0172 13.1491 13.5287 13.2301 13.0469C13.3347 12.4245 12.9968 11.862 12.3892 11.6472C12.3311 11.6267 12.2721 11.6054 12.2129 11.5835V10.4772C12.4291 10.523 12.5775 10.6104 12.5836 10.6141C12.7476 10.716 12.9634 10.6668 13.0666 10.5032C13.1702 10.3389 13.1211 10.1218 12.9569 10.0182C12.9382 10.0065 12.6401 9.82221 12.2129 9.76381V9.59595C12.2129 9.40174 12.0555 9.24438 11.8613 9.24438C11.6671 9.24438 11.5098 9.40174 11.5098 9.59595V9.80384C11.4904 9.80895 11.471 9.81411 11.4515 9.82001C11.0415 9.94353 10.7353 10.2935 10.6524 10.7332C10.5763 11.1371 10.7076 11.528 10.995 11.7534C11.1291 11.8586 11.2922 11.955 11.5098 12.055V13.491C11.3602 13.4684 11.2458 13.4159 11.0654 13.2978C10.9028 13.1916 10.685 13.2371 10.5787 13.3995C10.4723 13.562 10.5179 13.7799 10.6804 13.8862ZM12.5367 12.9304C12.5064 13.1105 12.3965 13.2995 12.2129 13.41V12.3338C12.5673 12.4899 12.5587 12.7996 12.5367 12.9304ZM11.429 11.2002C11.3501 11.1383 11.3165 11.0061 11.3434 10.8635C11.3621 10.764 11.415 10.65 11.5098 10.5711V11.2576C11.481 11.2388 11.4538 11.2197 11.429 11.2002Z" fill="#00CEF9"/>
<path d="M19.7339 4.37602C19.6127 4.22438 19.3915 4.19958 19.2398 4.3208C19.0881 4.44197 19.0633 4.66322 19.1846 4.81491L19.5372 5.25624H17.3015C17.1072 5.25624 16.9499 5.4136 16.9499 5.6078C16.9499 5.802 17.1072 5.95936 17.3015 5.95936H19.5372L19.1846 6.40069C19.0633 6.55238 19.088 6.77363 19.2398 6.8948C19.3925 7.01672 19.6135 6.99029 19.7339 6.83958L20.5427 5.82722C20.6452 5.69888 20.6452 5.51668 20.5427 5.38833L19.7339 4.37602Z" fill="#00CEF9"/>
<path d="M4.26595 19.6248C4.3868 19.776 4.60791 19.8015 4.76006 19.68C4.91175 19.5588 4.9365 19.3376 4.81528 19.1859L4.46269 18.7446H6.69834C6.89255 18.7446 7.04991 18.5872 7.04991 18.393C7.04991 18.1988 6.89255 18.0414 6.69834 18.0414H4.46264L4.81524 17.6001C4.93645 17.4484 4.91175 17.2272 4.76002 17.106C4.60828 16.9848 4.38703 17.0095 4.26591 17.1612L3.45708 18.1736C3.35452 18.3019 3.35452 18.4841 3.45708 18.6125L4.26595 19.6248Z" fill="#00CEF9"/>
<path d="M2.78678 20.7595H10.1094C10.3036 20.7595 10.4609 20.6022 10.4609 20.408C10.4609 20.2138 10.3036 20.0564 10.1094 20.0564H2.90622V19.1944C2.90622 19.0519 2.82016 18.9235 2.68834 18.8692C2.55639 18.8149 2.40498 18.8458 2.30472 18.9472L0.101454 21.1743C-0.034062 21.3112 -0.034062 21.5318 0.101454 21.6688L2.30472 23.8958C2.40442 23.9967 2.55597 24.0283 2.68834 23.9737C2.82016 23.9196 2.90622 23.7911 2.90622 23.6486V22.7866H10.1094C10.3036 22.7866 10.4609 22.6293 10.4609 22.4351C10.4609 22.2409 10.3036 22.0835 10.1094 22.0835H2.78678C2.46494 22.0835 2.20309 22.3454 2.20309 22.6671V22.7933L0.845922 21.4214L2.20309 20.0496V20.1757C2.20309 20.4977 2.46494 20.7595 2.78678 20.7595Z" fill="#00CEF9"/>
<path d="M11.8845 5.10938C8.08495 5.10938 4.99384 8.20049 4.99384 12.0001C4.99384 13.3864 5.40399 14.7232 6.17991 15.866C6.28899 16.0267 6.50766 16.0684 6.66825 15.9594C6.82889 15.8503 6.87066 15.6317 6.76163 15.4711C6.06511 14.4452 5.69696 13.245 5.69696 12.0001C5.69696 8.58824 8.4727 5.8125 11.8845 5.8125C15.2964 5.8125 18.0721 8.58824 18.0721 12.0001C18.0721 15.4119 15.2964 18.1876 11.8845 18.1876C10.2925 18.1876 8.78006 17.5842 7.62567 16.4886C7.48486 16.3548 7.2623 16.3606 7.12866 16.5015C6.99497 16.6423 7.00073 16.8648 7.14159 16.9985C8.42718 18.2188 10.1115 18.8908 11.8845 18.8908C15.6841 18.8908 18.7752 15.7996 18.7752 12.0001C18.7752 8.20049 15.6841 5.10938 11.8845 5.10938Z" fill="#00CEF9"/>
<path d="M23.8983 2.33172L21.695 0.104647C21.5947 0.00330286 21.4433 -0.0276346 21.3114 0.0267404C21.1796 0.0809279 21.0935 0.209365 21.0935 0.351912V1.21385H19.4722C19.278 1.21385 19.1206 1.37121 19.1206 1.56541C19.1206 1.75962 19.278 1.91697 19.4722 1.91697H21.213C21.5348 1.91697 21.7966 1.65513 21.7966 1.33333V1.20719L23.1538 2.57904L21.7966 3.95083V3.82474C21.7966 3.5029 21.5348 3.24105 21.213 3.24105H13.8904C13.6962 3.24105 13.5388 3.39841 13.5388 3.59262C13.5388 3.78682 13.6962 3.94418 13.8904 3.94418H21.0935V4.80612C21.0935 4.94866 21.1796 5.07705 21.3114 5.13129C21.444 5.1859 21.5954 5.15402 21.695 5.05338L23.8983 2.82635C24.0338 2.68924 24.0338 2.46869 23.8983 2.33172Z" fill="#00CEF9"/>
<path d="M13.8904 1.91699H18.0666C18.2608 1.91699 18.4181 1.75963 18.4181 1.56543C18.4181 1.37123 18.2608 1.21387 18.0666 1.21387H13.8904C13.6962 1.21387 13.5388 1.37123 13.5388 1.56543C13.5388 1.75963 13.6962 1.91699 13.8904 1.91699Z" fill="#00CEF9"/>
</svg>
